<?xml version="1.0" encoding="UTF-8"?>
<svg version="1.1" xmlns="http://www.w3.org/2000/svg" width="244" height="241">
<path d="M0 0 C80.52 0 161.04 0 244 0 C244 79.53 244 159.06 244 241 C163.48 241 82.96 241 0 241 C0 161.47 0 81.94 0 0 Z " fill="#1A1A1C" transform="translate(0,0)"/>
<path d="M0 0 C0 0.66 0 1.32 0 2 C1.36125 1.7215625 1.36125 1.7215625 2.75 1.4375 C5.84859333 1.02038167 7.10718097 1.18605092 10 2 C10.66257813 2.13019531 11.32515625 2.26039062 12.0078125 2.39453125 C17.18707802 3.41700618 21.85759831 5.02352348 26.72265625 7.0625 C29.1147459 8.08307109 29.1147459 8.08307109 32.125 9 C36.78211448 10.6198659 41.48420214 12.48420214 45 16 C45.99 16.495 46.98 16.99 48 17.5 C51 19 51 19 53 21 C55.18491699 22.71672049 57.37894009 24.23253142 59.75 25.6875 C65.22007514 29.57966885 70.06720035 33.90976073 73 40 C74.6454378 41.68762851 76.31288577 43.3540349 78 45 C79.62133096 46.98162672 80.88394296 48.76063236 82 51.0625 C82.91871148 53.08339991 82.91871148 53.08339991 84.625 54.625 C85.07875 55.07875 85.5325 55.5325 86 56 C86 56.66 86 57.32 86 58 C86.44085938 58.43441406 86.88171875 58.86882812 87.3359375 59.31640625 C89.34127495 61.34528053 90.37119496 63.37989155 91.625 65.9375 C92.05039063 66.79214844 92.47578125 67.64679688 92.9140625 68.52734375 C93.87592913 70.7174933 94.62305686 72.64155844 95 75 C94.67 75.66 94.34 76.32 94 77 C94.66 77.33 95.32 77.66 96 78 C96.88671875 79.70703125 96.88671875 79.70703125 97.6875 81.8125 C97.95949219 82.49957031 98.23148438 83.18664062 98.51171875 83.89453125 C99.06812731 86.29376496 98.77364938 87.6894364 98 90 C98.66 90 99.32 90 100 90 C99.979375 90.7425 99.95875 91.485 99.9375 92.25 C100.00720876 95.31718564 100.64588877 97.82821675 101.52685547 100.7434082 C102.11538782 103.55032486 102.12976601 106.17469911 102.1328125 109.04296875 C102.13410156 110.19861328 102.13539063 111.35425781 102.13671875 112.54492188 C102.13285156 113.74697266 102.12898437 114.94902344 102.125 116.1875 C102.12886719 117.40115234 102.13273438 118.61480469 102.13671875 119.86523438 C102.13478516 121.59290039 102.13478516 121.59290039 102.1328125 123.35546875 C102.13168457 124.41403076 102.13055664 125.47259277 102.12939453 126.56323242 C102 129 102 129 101 130 C101.0309375 131.3303125 101.0309375 131.3303125 101.0625 132.6875 C100.99565618 136.23022229 100.15527144 138.67009996 99 142 C98.7834375 143.6396875 98.7834375 143.6396875 98.5625 145.3125 C97.88408347 149.75989723 96.5214961 153.78000138 95 158 C94.34 158 93.68 158 93 158 C92.9175 158.99 92.835 159.98 92.75 161 C92.0349282 166.02593323 90.0168463 171.01210365 86.3671875 174.609375 C84.76630931 175.91267376 84.76630931 175.91267376 85 178 C84.34 178.66 83.68 179.32 83 180 C82.690625 180.639375 82.38125 181.27875 82.0625 181.9375 C80.92643769 184.14279743 79.81402088 185.32035103 78 187 C75.32388063 189.53888248 73.13028643 191.78884614 71.1875 194.9375 C68.76529034 198.32859352 66.25471111 200.23508453 62.890625 202.62109375 C60.69854193 204.21986508 58.88175173 206.05104285 57 208 C55.0255845 209.60421259 53.22685976 210.89000739 50.9375 212 C48.91660009 212.91871148 48.91660009 212.91871148 47.375 214.625 C46.92125 215.07875 46.4675 215.5325 46 216 C45.34 216 44.68 216 44 216 C43.33291016 216.67482422 43.33291016 216.67482422 42.65234375 217.36328125 C40.74967605 219.24795682 39.00708001 220.111555 36.5625 221.1875 C35.80066406 221.53167969 35.03882813 221.87585938 34.25390625 222.23046875 C32 223 32 223 28 223 C28 223.66 28 224.32 28 225 C25.19995156 226.07694171 23.8088426 225.95876997 20.8125 225.3125 C18 224 18 224 17.34179688 222.38256836 C16.87295893 219.114433 16.78400881 215.86171002 16.71875 212.56640625 C16.69113586 211.49397926 16.69113586 211.49397926 16.66296387 210.39988708 C16.60440839 208.12083893 16.55152134 205.84171735 16.5 203.5625 C16.43205368 200.56365427 16.35835894 197.56502879 16.28125 194.56640625 C16.26088684 193.54118614 16.26088684 193.54118614 16.2401123 192.49525452 C16.14668314 188.877154 15.74864455 185.53370837 15 182 C15 180.68 15 179.36 15 178 C14.34 177.67 13.68 177.34 13 177 C12.65657551 175.66923011 12.32380126 174.33568021 12 173 C11.34 172.34 10.68 171.68 10 171 C9.38125 169.845 8.7625 168.69 8.125 167.5 C6.43447889 164.46332319 5.26348359 163.32579021 2 162 C1.319375 161.29875 0.63875 160.5975 -0.0625 159.875 C-1.90993327 157.65228929 -1.90993327 157.65228929 -5 158 C-5 157.34 -5 156.68 -5 156 C-3.01432292 155.77213542 -1.02864583 155.54427083 0.95703125 155.31640625 C3.19396393 155.02829265 3.19396393 155.02829265 6 154 C7.89212737 153.77820215 9.78884472 153.59385985 11.6875 153.4375 C12.68136719 153.35371094 13.67523438 153.26992187 14.69921875 153.18359375 C15.45847656 153.12300781 16.21773437 153.06242188 17 153 C17 152.34 17 151.68 17 151 C20.07617188 150.70703125 20.07617188 150.70703125 23.15234375 150.4140625 C23.76207031 150.27742187 24.37179688 150.14078125 25 150 C25.33 149.34 25.66 148.68 26 148 C27.33333333 147.66666667 28.66666667 147.33333333 30 147 C30.33 146.34 30.66 145.68 31 145 C31.70125 144.649375 32.4025 144.29875 33.125 143.9375 C36.76587833 141.4838646 38.87911409 138.48272171 41.44921875 134.9609375 C43 133 43 133 45 132 C48.59287034 131.63330624 52.20500018 131.53154754 55.8125 131.375 C56.81087891 131.3234375 57.80925781 131.271875 58.83789062 131.21875 C59.80533203 131.17492187 60.77277344 131.13109375 61.76953125 131.0859375 C62.65229736 131.0451709 63.53506348 131.0044043 64.44458008 130.96240234 C67.08633689 131.00127027 69.42218254 131.44903643 72 132 C73.010625 132 74.02125 132 75.0625 132 C77.67141992 132 79.51246001 132.3580542 82 133 C83.66623639 133.03786901 85.33397597 133.04627845 87 133 C87 133.66 87 134.32 87 135 C87.99 134.34 88.98 133.68 90 133 C90 132.01 90 131.02 90 130 C84.01208873 128.95211553 78.14419779 128 72.0625 128 C71.051875 128 70.04125 128 69 128 C68.67 127.67 68.34 127.34 68 127 C66.5112814 126.91330568 65.018555 126.89296506 63.52734375 126.90234375 C62.17866211 126.90717773 62.17866211 126.90717773 60.80273438 126.91210938 C59.85720703 126.92048828 58.91167969 126.92886719 57.9375 126.9375 C56.98810547 126.94201172 56.03871094 126.94652344 55.06054688 126.95117188 C52.70696935 126.9629989 50.35351523 126.97947975 48 127 C47.67 126.34 47.34 125.68 47 125 C47.66 125 48.32 125 49 125 C48.67 124.01 48.34 123.02 48 122 C54.62665469 119.56316332 61.00059047 119.73795472 68 119.8125 C69.14984375 119.81314453 70.2996875 119.81378906 71.484375 119.81445312 C77.09940032 119.84356328 82.4660376 120.06012867 88 121 C88.99 121 89.98 121 91 121 C91 119.68 91 118.36 91 117 C89.329375 117.0309375 89.329375 117.0309375 87.625 117.0625 C84 117 84 117 82 116 C79.67583704 115.91413191 77.34916693 115.89288957 75.0234375 115.90234375 C74.33819 115.9037587 73.6529425 115.90517365 72.94692993 115.90663147 C70.75624239 115.91223325 68.5656567 115.92478594 66.375 115.9375 C64.89062648 115.94251478 63.40625135 115.94707772 61.921875 115.95117188 C58.28121685 115.96220323 54.64061836 115.97946901 51 116 C50.83057134 114.58235862 50.66457951 113.16430627 50.5 111.74609375 C50.4071875 110.9564624 50.314375 110.16683105 50.21875 109.35327148 C49.9288009 106.23405342 50 103.130549 50 100 C49.67 99.34 49.34 98.68 49 98 C49.33 97.01 49.66 96.02 50 95 C49.34 94.67 48.68 94.34 48 94 C42.36631579 82.26315789 42.36631579 82.26315789 43.875 76.875 C44.431875 75.451875 44.431875 75.451875 45 74 C45.0370279 72.3337447 45.04759962 70.66598681 45 69 C45.33 68.67 45.66 68.34 46 68 C46.28419945 62.50547738 45.75818543 58.2745563 44 53 C43.67 52.01 43.34 51.02 43 50 C41.20767663 50.30871122 39.41615679 50.62209064 37.625 50.9375 C36.62726563 51.11152344 35.62953125 51.28554688 34.6015625 51.46484375 C32.03090344 51.87712062 32.03090344 51.87712062 30 53 C29.34 52.67 28.68 52.34 28 52 C27.67 52.66 27.34 53.32 27 54 C25.00428677 54.67939174 23.00405227 55.34561559 21 56 C20.01 56.99 20.01 56.99 19 58 C16.67823258 59.27322729 14.52412752 60.15862416 12 61 C12 60.34 12 59.68 12 59 C11.01 59.33 10.02 59.66 9 60 C9 59.34 9 58.68 9 58 C7.68 58.33 6.36 58.66 5 59 C5 58.34 5 57.68 5 57 C3.68 57.33 2.36 57.66 1 58 C1 57.34 1 56.68 1 56 C0.030625 56.185625 -0.93875 56.37125 -1.9375 56.5625 C-2.948125 56.706875 -3.95875 56.85125 -5 57 C-5.33 56.67 -5.66 56.34 -6 56 C-8.65653443 55.89997545 -11.28129272 55.86122537 -13.9375 55.875 C-15.0502832 55.86919922 -15.0502832 55.86919922 -16.18554688 55.86328125 C-20.22322878 55.78260332 -20.22322878 55.78260332 -24 57 C-30.63157895 58.18421053 -30.63157895 58.18421053 -33 57 C-33.495 57.99 -33.495 57.99 -34 59 C-39.67828251 61.49844431 -39.67828251 61.49844431 -42.84375 60.3046875 C-44.6066795 59.26084766 -46.29632835 58.13713969 -48 57 C-50.64719912 55.85689129 -53.26426635 54.91191122 -56 54 C-56 53.34 -56 52.68 -56 52 C-57.485 52.495 -57.485 52.495 -59 53 C-59 52.34 -59 51.68 -59 51 C-60.65 51.33 -62.3 51.66 -64 52 C-64 51.34 -64 50.68 -64 50 C-67.465 50.495 -67.465 50.495 -71 51 C-71 51.66 -71 52.32 -71 53 C-71.66 53 -72.32 53 -73 53 C-73.92055082 56.908688 -74.13429682 60.55092235 -74.125 64.5625 C-74.12757812 65.67753906 -74.13015625 66.79257813 -74.1328125 67.94140625 C-74.10697821 70.89594851 -74.10697821 70.89594851 -73.4296875 73.27734375 C-73 75 -73 75 -74 77 C-73.34 77 -72.68 77 -72 77 C-72.495 78.98 -72.495 78.98 -73 81 C-72.34 81 -71.68 81 -71 81 C-71 82.32 -71 83.64 -71 85 C-71.66 85.66 -72.32 86.32 -73 87 C-75.28529928 90.24570741 -75.28529928 90.24570741 -76 94 C-76.66 94 -77.32 94 -78 94 C-77.979375 94.94875 -77.95875 95.8975 -77.9375 96.875 C-78 100 -78 100 -79 102 C-79.06998896 104.79518407 -78.99705161 107.57589002 -78.9375 110.37109375 C-79 113 -79 113 -80 116 C-81.50566528 116.03758423 -81.50566528 116.03758423 -83.04174805 116.07592773 C-86.7785236 116.17035296 -90.51512843 116.27048686 -94.25170898 116.37231445 C-95.86657711 116.41553083 -97.48148702 116.45721489 -99.09643555 116.49731445 C-101.42249117 116.55534048 -103.74833904 116.61894029 -106.07421875 116.68359375 C-106.79212082 116.70030624 -107.51002289 116.71701874 -108.24967957 116.73423767 C-111.93771676 116.84236012 -115.4085348 117.13964048 -119 118 C-119 119.32 -119 120.64 -119 122 C-118.01249756 121.83701416 -117.02499512 121.67402832 -116.00756836 121.50610352 C-111.96436896 120.93096729 -107.95680586 120.87259839 -103.87890625 120.90234375 C-103.13414536 120.9037587 -102.38938446 120.90517365 -101.62205505 120.90663147 C-99.26882727 120.91218011 -96.9156985 120.92472267 -94.5625 120.9375 C-92.95638159 120.94252165 -91.35026168 120.94708339 -89.74414062 120.95117188 C-85.82938957 120.96213265 -81.91471151 120.97936116 -78 121 C-77.67 121.66 -77.34 122.32 -77 123 C-77.33 123.66 -77.66 124.32 -78 125 C-77.01 125.495 -77.01 125.495 -76 126 C-77 127 -77 127 -80.67578125 127.0625 C-83.00217959 127.03837141 -85.32810186 126.99973975 -87.65429688 126.9609375 C-88.40388672 126.95320313 -89.15347656 126.94546875 -89.92578125 126.9375 C-90.95312378 126.92009766 -90.95312378 126.92009766 -92.0012207 126.90234375 C-94.11862703 127.00579587 -95.94995592 127.48013359 -98 128 C-100.33333333 128 -102.66666667 128 -105 128 C-107.00636471 128.29259485 -109.00714063 128.62633887 -111 129 C-113.33257494 129.33859959 -115.66574212 129.6732039 -118 130 C-118 131.32 -118 132.64 -118 134 C-117.13375 133.835 -116.2675 133.67 -115.375 133.5 C-112.18797843 133.02784866 -109.21270799 133 -106 133 C-105.34 132.67 -104.68 132.34 -104 132 C-101.72433301 131.93090954 -99.4670476 132.00251604 -97.19140625 132.0625 C-94.81980059 132.1005187 -94.81980059 132.1005187 -92 131 C-90.51876453 130.9193378 -89.03417796 130.89238807 -87.55078125 130.90234375 C-86.70322266 130.90556641 -85.85566406 130.90878906 -84.98242188 130.91210938 C-84.10134766 130.92048828 -83.22027344 130.92886719 -82.3125 130.9375 C-80.97348633 130.94426758 -80.97348633 130.94426758 -79.60742188 130.95117188 C-77.40488013 130.96295017 -75.20247401 130.97939836 -73 131 C-72.731875 131.76957031 -72.46375 132.53914062 -72.1875 133.33203125 C-71.01428905 135.96789665 -70.25063958 136.99389372 -68 138.6875 C-65 141 -65 141 -63 143 C-61.3734906 143.87044757 -59.7245435 144.69948566 -58.0625 145.5 C-55.20399156 146.8808406 -52.64929721 148.23380186 -50 150 C-47.88719655 150.63292383 -47.88719655 150.63292383 -46 151 C-46 151.66 -46 152.32 -46 153 C-45.4225 152.814375 -44.845 152.62875 -44.25 152.4375 C-41.79307475 151.95976454 -40.35602466 152.24270636 -38 153 C-38 153.66 -38 154.32 -38 155 C-36.02 154.67 -34.04 154.34 -32 154 C-32 154.66 -32 155.32 -32 156 C-31.34 155.67 -30.68 155.34 -30 155 C-27.3276379 154.86584528 -24.67749512 154.95681459 -22 155 C-22.33 155.99 -22.66 156.98 -23 158 C-24.2684375 158.61875 -24.2684375 158.61875 -25.5625 159.25 C-30.79660795 161.91463677 -34.8668861 165.8668861 -39 170 C-47.25359141 172.5614594 -55.45278696 172.1887728 -64 172 C-64 171.34 -64 170.68 -64 170 C-64.99 170.33 -65.98 170.66 -67 171 C-67 170.34 -67 169.68 -67 169 C-68.32 169 -69.64 169 -71 169 C-73.1484375 166.734375 -73.1484375 166.734375 -75.375 163.75 C-79.49263728 158.48104967 -82.57936374 155.14021209 -89 153 C-89 152.34 -89 151.68 -89 151 C-90.65 151.33 -92.3 151.66 -94 152 C-93.21625 152.94875 -92.4325 153.8975 -91.625 154.875 C-91.18414062 155.40867188 -90.74328125 155.94234375 -90.2890625 156.4921875 C-89.24749008 157.71051161 -88.13339903 158.86660097 -87 160 C-84.6383149 163.54252764 -83.29005019 166.95784274 -82 171 C-81.36729133 172.34977849 -80.69937532 173.68352881 -80 175 C-79.566875 176.010625 -79.13375 177.02125 -78.6875 178.0625 C-75.99054677 182.75719636 -71.94957257 184.24125943 -67 186 C-64.39787925 186.3589674 -64.39787925 186.3589674 -61.69921875 186.4140625 C-60.23452148 186.47207031 -60.23452148 186.47207031 -58.74023438 186.53125 C-57.73283203 186.5621875 -56.72542969 186.593125 -55.6875 186.625 C-54.66076172 186.66367188 -53.63402344 186.70234375 -52.57617188 186.7421875 C-50.05095735 186.83614897 -47.52574408 186.9218154 -45 187 C-44.90084386 191.60809095 -44.82839818 196.21555592 -44.78027344 200.82446289 C-44.76020442 202.39097923 -44.73294249 203.95742109 -44.69824219 205.52368164 C-44.64951246 207.78029794 -44.6269853 210.03592083 -44.609375 212.29296875 C-44.58872986 212.98899704 -44.56808472 213.68502533 -44.54681396 214.40214539 C-44.54517319 217.98813551 -44.92606685 219.88497053 -46.88378906 222.9309082 C-49.017212 225.01682876 -50.07752025 225.68687717 -53 226 C-53 225.34 -53 224.68 -53 224 C-53.99 224.33 -54.98 224.66 -56 225 C-59.14848303 223.95050566 -62.05427842 222.51749294 -65 221 C-66.546875 220.2575 -66.546875 220.2575 -68.125 219.5 C-71 218 -71 218 -73 216 C-74.15569935 215.11056472 -75.32414594 214.23761425 -76.5 213.375 C-91.72867043 201.98088687 -106.50830373 189.42819567 -115 172 C-115.495 171.525625 -115.99 171.05125 -116.5 170.5625 C-119.56353019 167.37132272 -120 164.3281561 -120 160 C-120.66 159.67 -121.32 159.34 -122 159 C-123.72664863 155.54670274 -124.21952523 152.84169158 -124 149 C-124.66 149 -125.32 149 -126 149 C-126 146.36 -126 143.72 -126 141 C-126.66 140.67 -127.32 140.34 -128 140 C-128.37890625 137.85546875 -128.37890625 137.85546875 -128.5625 135.1875 C-128.79666248 131.64609408 -128.79666248 131.64609408 -129.50708008 128.18481445 C-130.09647779 125.57237261 -130.12966277 123.17817127 -130.1328125 120.5 C-130.13410156 119.448125 -130.13539063 118.39625 -130.13671875 117.3125 C-130.13285156 116.219375 -130.12898437 115.12625 -130.125 114 C-130.13080078 112.3603125 -130.13080078 112.3603125 -130.13671875 110.6875 C-130.13542969 109.635625 -130.13414062 108.58375 -130.1328125 107.5 C-130.13168457 106.5409375 -130.13055664 105.581875 -130.12939453 104.59375 C-130.01122841 102.22507667 -129.63302407 100.27245519 -129 98 C-128.855625 96.906875 -128.71125 95.81375 -128.5625 94.6875 C-127.99710253 90.98100548 -127.08826771 87.58488188 -126 84 C-125.6226272 82.68818026 -125.24755652 81.37569568 -124.875 80.0625 C-124.58625 79.051875 -124.2975 78.04125 -124 77 C-123.34 77 -122.68 77 -122 77 C-122.33 76.01 -122.66 75.02 -123 74 C-122.34 74 -121.68 74 -121 74 C-121.33 73.01 -121.66 72.02 -122 71 C-120.85546875 68.15234375 -120.85546875 68.15234375 -119.1875 64.9375 C-118.64480469 63.87402344 -118.10210937 62.81054688 -117.54296875 61.71484375 C-116 59 -116 59 -114 57 C-113.67 56.01 -113.34 55.02 -113 54 C-112.34 53.34 -111.68 52.68 -111 52 C-110.505 51.175 -110.01 50.35 -109.5 49.5 C-108 47 -108 47 -106 45 C-102.74733654 41.11871342 -102.74733654 41.11871342 -99.55078125 37.19140625 C-96.37114873 33.31075239 -93.28247252 30.69981963 -89 28 C-87.64691687 26.68671343 -86.31129922 25.35500919 -85 24 C-83.0255845 22.39578741 -81.22685976 21.10999261 -78.9375 20 C-76.91660009 19.08128852 -76.91660009 19.08128852 -75.375 17.375 C-74.92125 16.92125 -74.4675 16.4675 -74 16 C-73.34 16 -72.68 16 -72 16 C-71.55011719 15.54625 -71.10023437 15.0925 -70.63671875 14.625 C-67.70559105 11.7148589 -63.77644342 10.54240477 -60 9 C-59.27683594 8.69578125 -58.55367188 8.3915625 -57.80859375 8.078125 C-54.09184972 6.58296421 -51.01918036 5.62320184 -47 6 C-47 5.34 -47 4.68 -47 4 C-46.15695313 3.86722656 -45.31390625 3.73445312 -44.4453125 3.59765625 C-43.34960938 3.42105469 -42.25390625 3.24445312 -41.125 3.0625 C-39.48917969 2.80146484 -39.48917969 2.80146484 -37.8203125 2.53515625 C-35.06178454 2.14448841 -35.06178454 2.14448841 -33 1 C-30.78546363 0.84499167 -28.56662133 0.74987282 -26.34765625 0.68359375 C-25.69171982 0.66281265 -25.03578339 0.64203156 -24.35997009 0.62062073 C-22.26092042 0.55521602 -20.16174294 0.49633932 -18.0625 0.4375 C-16.65167989 0.39429677 -15.24087232 0.3506819 -13.83007812 0.30664062 C-3.82669861 0 -3.82669861 0 0 0 Z " fill="#FDFDFD" transform="translate(135,7)"/>
</svg>
