<?xml version="1.0" standalone="no"?>
<!DOCTYPE svg PUBLIC "-//W3C//DTD SVG 20010904//EN"
 "http://www.w3.org/TR/2001/REC-SVG-20010904/DTD/svg10.dtd">
<svg version="1.0" xmlns="http://www.w3.org/2000/svg"
 width="2560.000000pt" height="2560.000000pt" viewBox="0 0 2560.000000 2560.000000"
 preserveAspectRatio="xMidYMid meet">

<g transform="translate(0.000000,2560.000000) scale(0.100000,-0.100000)"
fill="#FFFFFF" stroke="none">
<path d="M13015 21769 c-16 -16 -35 -29 -40 -29 -12 0 -67 -43 -101 -77 -12
-13 -28 -23 -36 -23 -8 0 -27 -13 -42 -29 -16 -16 -38 -32 -51 -35 -12 -3 -44
-26 -70 -51 -27 -25 -54 -45 -60 -45 -11 0 -24 -10 -97 -76 -14 -13 -32 -24
-38 -24 -7 0 -30 -16 -51 -35 -22 -19 -45 -35 -53 -35 -7 0 -33 -20 -56 -44
-24 -25 -54 -47 -67 -51 -12 -3 -44 -25 -70 -50 -27 -25 -53 -45 -59 -45 -11
0 -36 -20 -96 -75 -15 -14 -33 -25 -40 -25 -7 0 -24 -12 -37 -26 -13 -14 -38
-31 -55 -39 -17 -7 -51 -32 -76 -54 -25 -23 -50 -41 -56 -41 -6 0 -36 -22 -65
-50 -30 -27 -62 -50 -71 -50 -10 0 -22 -9 -27 -19 -6 -10 -30 -28 -53 -40 -24
-11 -58 -36 -77 -56 -18 -20 -47 -42 -65 -49 -17 -7 -52 -32 -78 -55 -25 -22
-50 -41 -56 -41 -5 0 -34 -22 -63 -50 -30 -27 -61 -50 -69 -50 -8 0 -26 -12
-40 -27 -14 -14 -37 -31 -52 -37 -15 -7 -46 -30 -70 -52 -24 -21 -54 -44 -68
-50 -14 -7 -46 -30 -72 -53 -25 -22 -50 -41 -55 -41 -5 0 -24 -13 -43 -30 -18
-16 -43 -33 -54 -36 -12 -4 -41 -27 -65 -50 -24 -24 -50 -44 -57 -44 -7 0 -39
-22 -72 -50 -33 -27 -63 -50 -67 -50 -4 0 -26 -16 -49 -35 -24 -19 -48 -35
-55 -35 -6 0 -29 -18 -52 -41 -22 -22 -55 -47 -73 -54 -17 -7 -54 -34 -81 -59
-27 -25 -53 -46 -58 -46 -5 0 -26 -13 -47 -30 -21 -16 -42 -30 -48 -30 -5 0
-28 -18 -51 -39 -23 -22 -55 -52 -71 -67 -50 -46 -48 -58 18 -124 33 -33 64
-70 67 -82 4 -13 19 -34 34 -48 40 -39 131 -147 131 -156 0 -5 19 -27 42 -51
l42 -42 30 29 c89 83 100 91 120 88 l21 -3 3 -724 c2 -573 0 -726 -10 -733 -7
-4 -796 -8 -1753 -8 l-1740 0 -21 -23 c-12 -12 -24 -31 -28 -43 -3 -11 -20
-36 -36 -54 -17 -19 -30 -39 -30 -45 0 -6 -13 -25 -30 -43 -16 -18 -30 -38
-30 -44 0 -5 -13 -27 -28 -47 -16 -20 -39 -54 -51 -76 -13 -22 -29 -44 -37
-48 -8 -4 -14 -16 -14 -27 0 -10 -6 -25 -14 -32 -7 -8 -16 -24 -20 -35 -4 -12
-20 -36 -37 -54 -16 -17 -29 -35 -29 -41 0 -5 -16 -30 -35 -55 -19 -25 -35
-51 -35 -58 0 -6 -13 -24 -28 -41 -16 -16 -32 -41 -36 -56 -3 -16 -11 -28 -16
-28 -6 0 -10 -6 -10 -14 0 -7 -16 -34 -35 -59 -19 -25 -35 -49 -35 -52 0 -3
-16 -27 -35 -52 -19 -25 -35 -51 -35 -57 0 -6 -14 -26 -30 -45 -17 -18 -30
-39 -30 -45 0 -6 -14 -26 -30 -44 -16 -18 -30 -38 -30 -43 0 -15 -59 -116 -76
-130 -8 -7 -21 -26 -29 -43 -7 -17 -25 -44 -39 -60 -14 -16 -26 -34 -26 -40 0
-6 -14 -26 -30 -44 -17 -18 -30 -37 -30 -42 0 -5 -15 -28 -33 -52 -17 -24 -44
-69 -60 -100 -15 -32 -38 -69 -52 -84 -14 -15 -25 -31 -25 -37 0 -5 -13 -26
-30 -47 -16 -21 -30 -41 -30 -45 0 -4 -13 -24 -28 -44 -16 -20 -39 -54 -51
-76 -13 -22 -29 -44 -37 -48 -12 -7 -10 -15 6 -47 l20 -40 280 0 c266 0 280
-1 290 -19 11 -21 15 -4616 4 -4645 -5 -14 -42 -16 -304 -16 -224 0 -301 -3
-306 -12 -6 -9 -9 -503 -4 -600 0 -5 3433 -8 7629 -8 6947 0 7629 1 7635 16 8
20 8 552 0 581 l-6 23 -302 2 -301 3 0 2335 0 2335 272 5 c246 5 274 7 294 23
32 28 20 72 -35 131 -25 27 -46 54 -46 61 0 7 -12 25 -26 40 -15 16 -33 43
-40 61 -8 18 -18 35 -24 39 -5 3 -10 13 -10 21 0 7 -16 34 -35 60 -19 25 -35
49 -35 54 0 5 -13 24 -30 42 -16 18 -30 38 -30 44 0 6 -12 24 -26 40 -14 16
-32 44 -40 62 -8 17 -18 32 -22 32 -5 0 -19 19 -32 43 -13 23 -36 58 -52 78
-15 20 -28 44 -28 52 0 8 -7 20 -15 27 -8 7 -15 18 -15 25 0 6 -12 25 -26 41
-14 16 -32 44 -40 62 -8 17 -18 32 -22 32 -4 0 -16 17 -27 38 -11 20 -27 48
-37 61 -10 13 -18 32 -18 41 0 10 -6 20 -13 23 -7 2 -21 22 -32 43 -11 22 -32
52 -47 68 -16 17 -28 35 -28 41 0 7 -16 33 -35 58 -19 25 -35 48 -35 51 0 3
-16 26 -35 52 -19 25 -35 50 -35 55 0 6 -7 17 -15 25 -8 9 -15 24 -15 35 0 10
-4 19 -10 19 -5 0 -21 21 -36 48 -15 26 -40 63 -56 83 -15 20 -28 40 -28 44 0
4 -13 24 -30 45 -16 21 -30 42 -30 47 0 6 -9 20 -20 33 -11 13 -20 32 -20 42
0 10 -7 21 -15 24 -8 3 -24 25 -35 49 -12 24 -43 66 -70 94 l-49 51 -1729 0
c-1331 0 -1731 3 -1740 12 -9 9 -12 179 -12 704 0 381 3 699 6 708 11 28 47
17 95 -27 25 -23 62 -51 83 -62 l38 -19 51 58 c28 32 59 75 70 94 10 20 30 45
44 56 14 10 31 33 38 50 7 17 32 50 54 74 23 24 41 47 41 52 0 5 16 29 35 54
19 26 35 50 35 54 0 12 -100 92 -115 92 -7 0 -30 18 -51 41 -22 22 -54 46 -71
54 -18 8 -51 32 -74 54 -22 23 -45 41 -50 41 -11 0 -70 41 -151 105 -28 22
-65 47 -82 57 -18 9 -50 35 -73 57 -22 23 -47 41 -55 41 -7 0 -28 13 -46 29
-18 17 -43 36 -56 43 -13 7 -47 31 -75 53 -128 100 -157 121 -194 143 -22 12
-54 38 -71 57 -18 19 -39 35 -47 35 -9 0 -39 23 -68 50 -29 28 -58 50 -65 50
-6 0 -37 23 -68 50 -31 28 -63 50 -70 50 -8 0 -28 13 -44 30 -16 16 -34 30
-40 30 -10 0 -24 11 -96 76 -14 13 -33 24 -41 24 -8 0 -38 23 -67 50 -29 28
-58 50 -64 50 -6 0 -36 22 -66 50 -30 27 -62 50 -71 50 -9 0 -29 13 -45 30
-16 16 -35 30 -43 30 -7 0 -24 10 -36 23 -48 48 -84 77 -97 77 -7 0 -38 22
-68 50 -30 27 -62 50 -70 50 -9 0 -34 19 -55 41 -22 23 -53 48 -71 55 -17 7
-42 24 -55 38 -13 14 -31 26 -40 26 -10 0 -40 23 -68 50 -28 28 -57 50 -64 50
-7 0 -37 22 -67 50 -30 27 -62 50 -71 50 -8 0 -28 14 -44 30 -16 17 -35 30
-43 30 -8 0 -25 10 -37 23 -48 48 -84 77 -97 77 -7 0 -38 22 -68 50 -30 27
-60 50 -65 50 -6 0 -25 14 -43 30 -43 39 -86 39 -127 -1z m123 -769 c23 -17
47 -39 54 -50 7 -11 20 -20 28 -20 9 0 41 -21 71 -47 29 -27 69 -56 88 -67 18
-10 49 -34 68 -52 19 -19 40 -34 47 -34 7 0 33 -19 58 -42 25 -24 62 -52 82
-62 21 -11 50 -35 66 -53 16 -18 35 -33 43 -33 7 0 38 -21 68 -48 29 -26 71
-56 92 -67 20 -11 37 -23 37 -27 0 -4 15 -14 33 -22 17 -8 50 -32 72 -53 22
-21 53 -44 68 -50 15 -7 47 -31 71 -53 24 -22 48 -40 54 -40 6 0 35 -22 65
-50 30 -27 61 -50 68 -50 8 0 38 -22 68 -50 30 -27 59 -50 66 -50 6 0 33 -20
59 -45 27 -25 52 -45 56 -45 5 0 32 -21 62 -46 29 -25 67 -52 83 -60 17 -8 48
-31 70 -53 22 -21 50 -41 63 -45 12 -4 42 -27 66 -52 24 -24 50 -44 58 -44 8
0 42 -26 76 -58 l62 -57 -2 -4400 -3 -4400 -490 0 -490 0 -5 1281 c-4 936 -8
1285 -16 1295 -7 8 -15 37 -19 66 -4 29 -13 57 -21 64 -8 6 -14 19 -14 29 0 9
-11 37 -25 61 -13 24 -29 55 -35 68 -6 13 -24 41 -40 61 -17 21 -30 42 -30 47
0 17 -235 245 -266 258 -16 7 -42 25 -58 39 -16 14 -35 26 -41 26 -7 0 -18 7
-25 15 -7 8 -20 15 -30 15 -10 0 -23 7 -30 15 -7 8 -21 15 -31 15 -9 0 -24 7
-33 15 -8 8 -28 15 -43 15 -16 0 -38 7 -49 15 -10 8 -45 17 -76 21 -32 4 -63
13 -69 20 -17 20 -331 20 -348 0 -6 -8 -37 -17 -69 -21 -31 -4 -65 -13 -76
-21 -11 -8 -35 -14 -53 -14 -18 0 -33 -3 -33 -8 0 -4 -24 -18 -52 -31 -29 -12
-60 -27 -68 -32 -8 -5 -24 -13 -36 -18 -12 -5 -36 -23 -55 -40 -18 -17 -40
-31 -49 -31 -20 0 -212 -195 -234 -237 -9 -18 -25 -40 -35 -50 -10 -10 -21
-30 -25 -45 -3 -16 -11 -28 -16 -28 -6 0 -10 -8 -10 -17 0 -10 -9 -31 -20 -48
-11 -16 -20 -39 -20 -51 0 -11 -7 -29 -15 -40 -8 -10 -15 -33 -15 -50 0 -17
-6 -37 -14 -43 -7 -6 -16 -41 -19 -82 -3 -39 -12 -78 -19 -86 -10 -13 -14
-252 -16 -1235 l-2 -1218 -473 2 -472 3 -3 4403 -2 4403 31 27 c17 15 44 34
59 43 16 9 60 44 98 77 38 34 74 62 80 62 6 0 26 14 44 30 18 17 41 33 51 36
10 3 39 25 64 50 26 24 53 44 60 44 6 0 39 23 72 50 33 28 63 50 65 50 3 0 26
16 52 35 25 19 49 35 53 35 4 0 29 20 55 45 27 25 55 45 63 45 8 0 38 23 67
50 29 28 59 50 66 50 7 0 38 23 70 50 32 28 61 50 65 50 4 0 34 23 67 50 33
28 64 50 69 50 4 0 30 20 56 45 26 25 57 48 68 51 11 4 33 20 49 35 17 16 36
29 44 29 7 0 39 23 70 50 31 28 60 50 65 50 5 0 36 23 69 50 33 28 64 50 68
50 5 0 24 14 42 30 18 17 39 30 47 30 7 0 28 15 45 33 17 18 47 42 66 52 19
11 54 35 78 53 24 17 49 32 57 32 7 0 15 7 19 15 8 22 28 18 74 -15z m-2807
-5660 c16 -9 19 -22 19 -78 0 -39 -5 -73 -12 -80 -9 -9 -9 -18 0 -37 7 -14 12
-38 12 -53 0 -16 -5 -33 -12 -40 -9 -9 -9 -18 0 -37 7 -14 12 -38 12 -53 0
-16 -5 -33 -12 -40 -9 -9 -9 -18 0 -37 7 -14 12 -38 12 -53 0 -16 -5 -33 -12
-40 -9 -9 -9 -18 0 -37 15 -33 15 -78 1 -92 -9 -9 -9 -19 0 -40 8 -21 11 -525
9 -1988 l-3 -1960 -1840 0 -1840 0 -3 2325 c-1 1279 0 2331 3 2338 6 16 3635
18 3666 2z m9128 -4 c8 -10 10 -628 9 -2337 l-3 -2324 -1834 -3 c-1347 -1
-1837 1 -1847 9 -12 10 -14 392 -14 2334 0 1277 3 2325 7 2328 3 4 831 7 1838
7 1530 0 1834 -2 1844 -14z"/>
<path d="M12950 19581 c-57 -6 -92 -17 -150 -50 -8 -4 -37 -19 -64 -32 -56
-28 -85 -50 -170 -135 -89 -90 -112 -117 -119 -139 -4 -11 -18 -32 -31 -47
-14 -14 -28 -38 -32 -52 -3 -14 -12 -30 -20 -37 -8 -6 -14 -23 -14 -38 0 -15
-6 -36 -14 -47 -8 -11 -17 -58 -21 -104 -4 -47 -13 -91 -19 -99 -7 -9 -13 -96
-16 -245 -3 -158 -9 -238 -17 -253 -8 -12 -13 -56 -13 -100 0 -76 0 -78 -36
-110 -20 -17 -62 -44 -93 -60 -31 -15 -62 -34 -69 -40 -7 -7 -21 -13 -31 -13
-33 0 -58 -41 -65 -109 -3 -35 -12 -71 -18 -79 -8 -9 -13 -48 -13 -101 l0 -86
1140 -3 c627 -1 1146 0 1154 3 11 4 11 9 -3 23 -12 14 -16 39 -16 98 0 55 -5
86 -15 100 -8 10 -15 37 -15 60 0 43 -34 94 -63 94 -8 0 -20 7 -27 15 -7 8
-17 15 -22 15 -18 0 -114 50 -133 69 -51 51 -50 45 -53 256 -2 129 -8 205 -15
213 -7 9 -13 89 -15 228 -4 165 -8 216 -18 225 -8 6 -14 24 -14 39 0 25 -69
172 -91 195 -5 5 -9 15 -9 22 0 16 -175 193 -191 193 -6 0 -28 13 -48 29 -20
15 -52 31 -72 35 -21 4 -42 13 -49 21 -7 8 -19 15 -28 15 -8 0 -23 6 -31 14
-19 16 -237 27 -341 17z"/>
<path d="M8070 14440 c0 -6 -103 -10 -289 -10 l-290 0 -6 -42 c-3 -24 -5 -257
-3 -518 l3 -475 320 0 320 0 0 512 c0 500 0 512 -20 527 -23 18 -35 20 -35 6z"/>
<path d="M9474 14440 c-6 -6 -126 -11 -294 -12 l-285 -3 -3 -517 -2 -518 305
0 305 0 0 518 c0 284 -4 523 -8 529 -5 9 -12 9 -18 3z"/>
<path d="M7486 12568 c-7 -28 -8 -981 -1 -1000 4 -11 63 -13 315 -12 170 2
314 5 320 9 11 7 15 961 4 1003 l-6 22 -313 0 -313 0 -6 -22z"/>
<path d="M8890 12081 c0 -346 3 -512 11 -516 5 -4 141 -8 302 -8 l292 -2 0
515 0 515 -302 3 -303 2 0 -509z"/>
<path d="M16595 14419 c-3 -19 -4 -257 -3 -529 l3 -495 300 -2 c174 -2 306 1
315 7 11 7 15 35 16 130 0 66 -3 123 -8 126 -4 3 -5 11 -1 17 11 18 12 100 1
114 -5 6 -5 14 0 17 11 6 10 96 -1 113 -4 6 -4 14 1 17 10 6 10 427 -1 443 -4
6 -3 14 3 18 5 3 10 13 10 21 0 11 -25 14 -138 14 -94 0 -142 4 -150 12 -9 9
-15 9 -24 0 -16 -16 -90 -16 -106 0 -9 9 -15 9 -24 0 -15 -15 -160 -16 -175
-1 -9 9 -13 3 -18 -22z"/>
<path d="M18017 14432 c-15 -17 -17 -68 -17 -530 l0 -512 318 2 317 3 3 509
c2 506 2 509 -19 529 -15 14 -24 16 -32 8 -14 -14 -523 -16 -532 -1 -9 15 -20
12 -38 -8z"/>
<path d="M16596 12568 c-7 -28 -8 -981 -1 -1000 5 -12 57 -14 311 -12 169 2
309 6 312 9 10 10 10 155 0 161 -4 3 -5 11 -1 17 11 16 11 307 1 313 -5 3 -5
11 -1 17 11 18 12 100 1 114 -5 6 -5 14 0 17 11 6 10 96 -1 113 -4 6 -3 14 2
17 5 3 8 48 7 101 -1 52 1 100 5 106 3 6 4 20 2 30 -5 18 -20 19 -318 19
l-313 0 -6 -22z"/>
<path d="M18000 12080 l0 -510 23 -8 c12 -5 155 -7 317 -7 l295 1 0 515 0 514
-317 3 -318 2 0 -510z"/>
<path d="M23078 8391 c-20 -20 -24 -81 -7 -98 8 -8 8 -17 0 -31 -6 -10 -8 -22
-4 -25 9 -10 11 -107 2 -113 -5 -3 -5 -14 1 -25 7 -12 7 -25 1 -36 -6 -11 -5
-23 2 -35 9 -13 9 -20 0 -29 -8 -8 -7 -20 3 -45 12 -28 14 -253 14 -1429 l0
-1395 305 0 305 0 0 106 c0 58 5 114 11 125 10 20 11 20 31 2 11 -10 26 -30
34 -45 8 -16 19 -28 25 -28 6 0 36 -22 67 -48 63 -54 170 -112 205 -112 12 0
31 -6 42 -14 11 -7 45 -17 75 -21 30 -4 64 -14 75 -21 28 -20 263 -20 291 1
12 8 52 17 90 21 38 4 78 13 89 20 11 8 29 14 41 14 37 0 224 101 273 147 25
23 53 43 61 43 17 0 100 85 100 103 0 7 21 34 45 60 25 26 45 52 45 57 0 4 16
29 35 54 19 26 35 52 35 60 0 7 7 19 15 26 8 7 15 20 15 30 0 10 7 23 15 30 8
7 15 24 15 39 0 14 9 40 20 56 13 19 20 47 20 76 0 29 6 51 15 59 21 17 22
477 1 518 -7 15 -16 58 -19 95 -4 40 -12 74 -22 83 -8 9 -15 30 -15 48 0 19
-7 39 -15 46 -8 7 -15 20 -15 30 0 10 -7 23 -15 30 -8 7 -15 20 -15 30 0 10
-7 23 -15 30 -8 6 -17 22 -21 33 -4 12 -20 38 -35 58 -16 20 -29 41 -29 45 0
16 -215 224 -231 224 -9 0 -26 11 -39 25 -13 14 -52 39 -87 56 -34 17 -65 35
-68 40 -4 5 -17 9 -29 9 -13 0 -29 7 -36 15 -8 9 -30 15 -57 15 -24 0 -55 7
-69 17 -22 14 -58 17 -249 17 -198 1 -225 -1 -242 -17 -11 -9 -33 -17 -49 -17
-16 0 -38 -7 -48 -15 -11 -8 -32 -15 -47 -15 -16 0 -40 -12 -58 -29 -18 -17
-41 -33 -53 -37 -29 -9 -156 -138 -169 -171 -10 -27 -11 -27 -25 -9 -9 14 -14
47 -14 102 0 46 -4 85 -9 88 -5 4 -5 18 2 35 8 23 8 36 -2 55 -8 15 -11 36 -7
53 4 15 7 34 6 41 0 6 0 19 0 27 0 8 -1 21 -1 28 -1 6 -5 201 -8 432 -4 231
-8 421 -9 423 -1 1 -131 2 -289 1 -262 0 -290 -2 -305 -18z m1216 -1456 c14
-10 45 -15 102 -15 60 0 85 -4 94 -15 7 -8 20 -15 30 -15 10 0 23 -7 30 -15 7
-8 21 -15 32 -15 23 0 208 -181 208 -203 0 -8 7 -20 15 -27 8 -7 15 -23 15
-36 0 -13 7 -27 16 -32 9 -5 18 -28 21 -53 3 -24 13 -54 20 -66 20 -30 15
-415 -4 -435 -7 -6 -13 -21 -13 -31 0 -10 -9 -30 -20 -44 -11 -14 -20 -31 -20
-38 0 -7 -7 -18 -15 -25 -8 -7 -15 -20 -15 -29 0 -22 -148 -171 -170 -171 -10
0 -23 -7 -30 -15 -7 -8 -19 -15 -28 -15 -8 0 -24 -7 -34 -16 -10 -10 -41 -19
-70 -22 -29 -2 -59 -10 -67 -16 -19 -15 -243 -15 -262 0 -8 6 -30 14 -50 18
-21 4 -42 13 -49 21 -7 8 -21 15 -31 15 -10 0 -20 4 -23 9 -3 5 -31 25 -61 46
-57 37 -115 93 -115 110 0 6 -16 27 -35 49 -19 21 -35 45 -35 53 0 8 -7 21
-15 29 -8 9 -15 26 -15 38 0 13 -7 29 -15 36 -9 8 -15 30 -15 59 0 26 -7 56
-15 67 -21 28 -21 236 0 254 9 8 15 30 15 59 0 26 7 56 15 67 8 10 15 30 15
43 0 23 37 93 52 99 5 2 15 19 23 39 18 42 118 141 163 160 17 7 32 18 32 23
0 6 10 10 23 10 13 0 32 7 43 15 12 9 42 14 80 15 37 0 68 6 80 15 10 8 33 14
49 14 17 0 39 -6 49 -14z"/>
<path d="M1381 8336 c-7 -8 -42 -17 -82 -21 -39 -4 -83 -13 -98 -21 -14 -8
-37 -14 -51 -14 -14 0 -34 -7 -44 -15 -11 -8 -32 -15 -47 -15 -14 0 -32 -7
-39 -15 -7 -8 -22 -15 -34 -15 -12 0 -27 -9 -34 -20 -7 -11 -23 -20 -36 -20
-13 0 -26 -7 -30 -15 -3 -8 -16 -15 -29 -15 -13 0 -36 -13 -52 -30 -16 -16
-36 -30 -45 -30 -10 0 -41 -22 -71 -50 -30 -27 -59 -50 -66 -50 -14 0 -193
-179 -193 -193 0 -5 -22 -34 -50 -66 -27 -32 -50 -62 -50 -67 0 -5 -13 -25
-30 -44 -16 -19 -29 -43 -30 -52 0 -9 -6 -23 -13 -30 -18 -18 -57 -96 -57
-112 0 -7 -7 -19 -15 -26 -8 -7 -15 -25 -15 -39 0 -15 -7 -36 -15 -47 -8 -10
-15 -28 -15 -39 0 -11 -7 -33 -16 -50 -8 -16 -18 -52 -21 -80 -3 -27 -12 -59
-19 -70 -9 -13 -14 -51 -14 -110 -1 -63 -5 -96 -15 -109 -22 -29 -21 -331 0
-372 10 -19 15 -58 15 -115 0 -59 4 -91 15 -105 8 -10 15 -29 15 -42 0 -12 9
-39 20 -59 11 -21 20 -49 20 -63 0 -14 7 -34 15 -44 8 -11 15 -32 15 -47 0
-15 7 -29 15 -33 8 -3 15 -16 15 -29 0 -14 7 -30 15 -37 8 -7 15 -19 15 -26 0
-14 34 -63 107 -158 21 -27 45 -61 53 -76 23 -42 240 -252 283 -274 21 -11 43
-28 48 -38 5 -10 17 -18 25 -18 9 0 33 -13 54 -30 21 -16 41 -30 45 -30 4 0
18 -9 32 -20 14 -11 32 -20 40 -20 8 0 21 -7 29 -15 9 -8 24 -15 33 -15 10 0
24 -7 31 -15 7 -8 27 -15 45 -15 18 0 38 -7 45 -15 7 -8 27 -15 44 -15 17 0
40 -6 51 -14 11 -7 51 -16 89 -20 38 -4 78 -13 90 -21 30 -22 592 -22 622 0
12 8 52 17 90 21 38 4 78 13 89 20 11 8 31 14 46 14 15 0 32 7 39 15 7 8 25
15 41 15 26 0 237 100 248 119 3 5 22 17 42 28 20 10 54 33 76 51 23 18 45 32
50 32 14 0 246 236 254 257 4 10 26 41 51 68 24 28 59 81 78 118 18 38 39 71
47 74 7 3 13 15 13 27 0 11 16 53 35 91 19 39 35 80 35 93 0 13 5 32 11 44 6
11 9 22 6 24 -3 3 -150 6 -328 7 -295 2 -326 0 -341 -15 -10 -10 -20 -28 -23
-41 -4 -13 -20 -39 -36 -56 -16 -18 -29 -38 -29 -46 0 -21 -246 -265 -268
-265 -10 0 -22 -4 -28 -10 -5 -5 -44 -28 -87 -50 -56 -29 -90 -40 -121 -40
-27 0 -48 -6 -56 -15 -10 -13 -50 -15 -245 -15 -195 0 -235 2 -245 15 -7 8
-27 15 -44 15 -18 0 -41 7 -52 15 -10 8 -29 15 -40 15 -12 0 -27 7 -34 15 -7
8 -21 15 -31 15 -10 0 -24 9 -31 20 -7 11 -18 20 -25 20 -19 0 -95 41 -127 69
-70 61 -157 154 -172 184 -9 18 -30 48 -45 68 -16 20 -29 44 -29 52 0 8 -7 20
-15 27 -8 7 -15 20 -15 30 0 10 -6 23 -14 29 -7 6 -16 29 -20 50 -3 21 -13 51
-21 67 -8 16 -15 47 -15 70 0 22 -6 46 -12 53 -10 9 -13 70 -13 236 0 166 3
227 13 237 6 6 12 30 12 53 0 22 9 57 20 78 11 20 20 45 20 54 0 10 27 73 61
140 60 119 65 126 190 248 79 77 136 125 149 125 11 0 20 4 20 10 0 16 73 60
100 60 15 0 35 7 46 15 10 8 33 15 50 15 17 0 37 7 44 15 9 11 32 15 80 15 48
0 71 4 80 15 17 21 196 21 224 0 13 -10 43 -15 81 -15 38 0 68 -5 81 -15 10
-8 29 -15 42 -15 13 0 52 -16 88 -35 35 -19 70 -35 77 -35 7 0 33 -19 58 -42
25 -24 57 -48 71 -55 15 -7 28 -22 30 -35 2 -15 11 -24 26 -26 14 -2 28 -14
35 -31 7 -15 18 -33 25 -41 13 -15 91 -131 103 -153 4 -7 16 -30 27 -52 l21
-40 335 -3 c357 -2 356 -3 321 44 -8 10 -15 28 -15 38 0 17 -29 89 -51 126 -5
8 -12 22 -15 30 -24 60 -84 169 -106 194 -16 17 -28 35 -28 41 0 5 -34 46 -76
90 -41 44 -80 92 -85 108 -6 15 -18 27 -27 27 -10 1 -57 39 -107 85 -49 47
-94 85 -98 85 -5 0 -26 12 -46 28 -20 15 -74 47 -121 70 -47 24 -92 47 -100
51 -64 33 -83 41 -95 41 -7 0 -18 7 -25 15 -7 9 -29 15 -54 15 -22 0 -54 7
-70 15 -15 8 -42 15 -60 15 -17 0 -48 9 -69 20 -34 19 -56 20 -306 20 -218 0
-271 -3 -280 -14z"/>
<path d="M17442 6718 l3 -1593 305 0 305 0 5 650 5 650 710 0 710 0 3 -640 c1
-351 5 -642 10 -647 12 -12 594 -19 609 -6 11 8 13 296 13 1572 0 858 -3 1571
-6 1584 l-6 22 -303 0 -303 0 -6 -26 c-4 -15 -6 -302 -5 -639 1 -337 -2 -618
-5 -624 -8 -12 -1380 -17 -1410 -5 -14 6 -16 71 -16 634 0 346 -3 635 -6 644
-5 14 -42 16 -310 16 l-304 0 2 -1592z"/>
<path d="M4421 7433 c-61 -3 -101 -9 -115 -18 -11 -8 -41 -15 -67 -15 -29 0
-51 -6 -59 -15 -7 -8 -27 -15 -44 -15 -19 0 -38 -8 -49 -20 -9 -11 -25 -20
-36 -20 -25 0 -75 -27 -114 -62 -18 -16 -38 -28 -46 -28 -20 0 -152 -139 -176
-184 -11 -21 -25 -41 -32 -43 -7 -3 -13 -11 -13 -18 0 -7 -9 -24 -20 -38 -11
-14 -20 -34 -20 -45 0 -11 -7 -25 -15 -32 -8 -7 -15 -24 -15 -39 0 -15 -6 -35
-14 -46 -8 -11 -15 -45 -17 -75 l-4 -55 299 -3 c324 -3 316 -4 316 52 0 23 16
45 75 102 63 63 80 74 109 74 18 0 39 7 46 15 18 22 326 21 354 0 11 -8 34
-15 50 -15 23 0 46 -13 89 -51 65 -58 97 -105 97 -141 0 -13 7 -33 15 -44 15
-19 21 -118 9 -148 -5 -14 -50 -16 -399 -16 -321 0 -395 -3 -404 -14 -6 -7
-38 -16 -70 -20 -33 -4 -65 -13 -71 -21 -7 -8 -28 -15 -47 -15 -19 0 -41 -7
-49 -15 -9 -8 -24 -15 -34 -15 -10 0 -20 -7 -24 -15 -3 -8 -14 -15 -25 -15
-11 0 -37 -17 -59 -37 -22 -21 -69 -66 -106 -100 -36 -35 -66 -67 -66 -72 0
-6 -7 -14 -15 -18 -18 -10 -55 -80 -55 -104 0 -9 -6 -22 -14 -28 -7 -6 -16
-41 -20 -77 -4 -37 -13 -76 -21 -88 -19 -27 -20 -139 -2 -158 8 -7 17 -45 20
-83 7 -73 30 -131 71 -174 13 -14 25 -31 27 -38 2 -7 34 -43 71 -81 62 -65
184 -142 223 -142 7 0 18 -7 25 -15 7 -8 23 -15 35 -15 12 0 28 -6 34 -14 6
-7 41 -16 77 -20 37 -4 76 -13 88 -21 16 -12 56 -15 178 -15 139 0 163 2 195
20 21 11 52 20 69 20 28 0 74 16 114 40 8 5 38 20 65 34 55 27 138 103 161
148 11 21 21 28 37 26 25 -3 37 -46 17 -58 -7 -5 -13 -36 -14 -81 l-1 -74 288
-3 287 -2 0 757 c-1 651 -3 761 -15 777 -10 13 -15 43 -15 82 0 40 -5 66 -14
73 -7 6 -16 29 -20 50 -3 21 -13 44 -21 51 -8 7 -15 19 -15 27 0 8 -13 32 -30
53 -16 21 -30 43 -30 49 0 20 -205 218 -233 225 -15 3 -27 11 -27 16 0 6 -5
10 -11 10 -15 0 -118 50 -124 61 -4 5 -21 9 -40 9 -18 0 -40 7 -49 15 -9 9
-33 15 -65 15 -28 0 -55 6 -63 13 -15 15 -248 26 -417 20z m607 -1370 c2 -27
-3 -51 -12 -65 -9 -12 -16 -41 -16 -63 0 -23 -7 -50 -15 -61 -8 -10 -15 -33
-15 -51 0 -17 -4 -34 -9 -37 -5 -4 -19 -25 -30 -49 -25 -53 -135 -167 -160
-167 -10 0 -24 -7 -31 -15 -7 -8 -23 -15 -35 -15 -12 0 -28 -7 -35 -15 -18
-22 -267 -22 -296 0 -10 8 -33 15 -51 15 -26 0 -44 12 -90 58 -94 94 -93 93
-93 207 0 91 2 104 24 134 48 64 128 130 165 137 20 3 45 9 56 14 38 17 61 18
350 16 l290 -1 3 -42z"/>
<path d="M7143 7432 c-56 -2 -85 -7 -93 -17 -7 -8 -27 -15 -44 -15 -17 0 -40
-7 -50 -15 -11 -8 -28 -15 -38 -15 -10 0 -21 -7 -24 -15 -4 -8 -14 -15 -24
-15 -19 0 -170 -146 -170 -165 0 -7 -7 -18 -15 -25 -8 -7 -15 -20 -15 -29 0
-10 -14 -30 -30 -46 -26 -25 -32 -27 -40 -15 -5 8 -10 88 -10 178 0 89 -3 162
-6 162 -3 0 -12 -7 -20 -15 -20 -19 -48 -19 -64 0 -11 13 -15 13 -33 0 -30
-21 -264 -21 -293 -1 -16 13 -21 13 -35 0 -14 -13 -18 -13 -29 1 -17 21 -86
20 -94 -1 -9 -23 -7 -2237 2 -2249 4 -7 113 -10 304 -10 l298 0 0 725 c0 706
1 726 20 763 11 20 20 46 20 57 0 11 4 20 10 20 5 0 17 16 25 36 22 53 87 109
180 154 80 39 85 40 187 40 82 0 108 -3 118 -15 7 -8 27 -15 44 -15 38 0 57
-12 127 -83 102 -101 129 -136 129 -165 0 -15 6 -37 14 -48 12 -17 15 -135 18
-745 l3 -724 290 0 c160 0 298 4 308 8 16 7 17 53 17 750 l0 742 27 53 c37 73
147 182 184 182 9 0 22 7 29 15 7 8 27 15 45 15 18 0 38 7 45 15 17 21 196 21
224 0 11 -8 30 -15 42 -15 12 0 24 -7 28 -15 3 -8 15 -15 27 -15 52 0 209
-205 209 -273 0 -13 6 -29 13 -35 9 -10 13 -173 17 -719 l5 -706 300 -1 300
-1 3 730 c2 620 0 735 -12 765 -8 19 -17 64 -19 99 -3 35 -11 67 -17 71 -6 4
-14 26 -17 48 -3 23 -12 47 -19 53 -8 6 -14 22 -14 34 0 33 -43 113 -86 160
-20 22 -39 47 -42 56 -12 29 -110 126 -134 132 -13 4 -35 18 -50 32 -15 14
-34 25 -43 25 -8 0 -24 9 -35 20 -11 11 -33 20 -49 20 -16 0 -36 7 -45 15 -8
8 -27 15 -43 15 -16 0 -39 7 -51 16 -34 24 -429 24 -463 0 -13 -9 -38 -16 -55
-16 -17 0 -37 -7 -44 -15 -7 -8 -21 -15 -31 -15 -10 0 -21 -5 -24 -10 -4 -6
-21 -16 -39 -24 -18 -7 -45 -25 -61 -40 -15 -14 -32 -26 -37 -26 -16 0 -108
-92 -125 -125 -9 -16 -22 -35 -30 -43 -8 -8 -21 -25 -30 -38 -15 -23 -43 -33
-43 -16 0 5 -9 19 -20 32 -11 13 -20 28 -20 34 0 23 -176 182 -233 210 -31 16
-60 33 -63 37 -3 5 -13 9 -23 9 -10 0 -24 6 -30 14 -6 7 -37 16 -68 20 -31 4
-61 11 -67 15 -12 10 -181 17 -303 13z"/>
<path d="M15965 7433 c-43 -2 -85 -8 -91 -14 -7 -5 -45 -13 -84 -16 -46 -4
-74 -11 -77 -20 -3 -7 -16 -13 -28 -13 -13 0 -30 -6 -37 -14 -8 -7 -29 -17
-48 -21 -18 -4 -51 -20 -73 -36 -22 -16 -44 -29 -50 -29 -5 0 -41 -31 -79 -70
-54 -54 -81 -93 -124 -176 l-54 -108 0 -198 0 -198 46 -87 c25 -49 54 -97 65
-109 10 -11 19 -24 19 -30 0 -13 38 -46 85 -74 22 -13 44 -30 48 -37 4 -7 17
-13 27 -13 10 0 21 -4 24 -9 9 -14 90 -51 112 -51 10 0 31 -7 46 -14 16 -8 49
-18 75 -22 27 -4 57 -13 68 -19 11 -7 58 -15 104 -18 46 -3 88 -10 94 -16 6
-6 45 -11 87 -11 52 0 82 -5 96 -15 10 -8 40 -15 65 -15 31 0 55 -7 72 -20 14
-11 32 -20 41 -20 8 0 40 -24 70 -53 50 -49 55 -58 61 -111 6 -49 4 -65 -15
-104 -35 -71 -97 -132 -136 -132 -17 0 -37 -7 -44 -15 -10 -12 -43 -15 -180
-15 -137 0 -170 3 -180 15 -7 8 -20 15 -30 15 -29 0 -140 103 -140 130 0 10
-6 23 -14 29 -8 7 -17 27 -20 46 -4 19 -11 35 -15 35 -5 0 -11 14 -15 30 l-6
30 -282 -2 -283 -3 -3 -73 c-2 -53 1 -78 13 -94 8 -13 15 -34 15 -48 0 -15 7
-35 15 -46 8 -10 15 -29 15 -41 0 -13 16 -43 35 -69 19 -25 35 -49 35 -54 0
-13 135 -150 148 -150 6 0 31 -16 56 -35 26 -19 52 -35 60 -35 7 0 19 -7 26
-15 7 -8 27 -15 45 -15 18 0 38 -7 45 -15 7 -8 24 -15 39 -15 15 0 35 -6 46
-14 11 -7 51 -16 89 -20 38 -4 78 -13 90 -21 16 -12 62 -15 228 -15 189 0 212
2 245 20 24 13 57 20 89 20 34 0 56 5 64 15 7 8 29 15 50 15 24 0 40 5 44 15
3 8 16 15 29 15 14 0 30 7 37 15 7 8 20 15 30 15 9 0 25 9 35 20 10 11 25 20
34 20 26 0 186 169 210 222 13 27 26 50 31 53 4 3 11 30 15 62 4 31 14 67 22
80 12 18 14 49 12 151 -3 76 -9 135 -15 143 -7 8 -15 38 -19 67 -4 31 -13 56
-21 59 -8 3 -14 13 -14 23 0 35 -51 106 -133 188 -46 45 -91 82 -99 82 -9 0
-21 7 -28 15 -7 8 -20 15 -30 15 -10 0 -23 7 -30 15 -7 8 -23 15 -35 15 -12 0
-28 6 -34 14 -6 7 -29 16 -50 20 -21 3 -44 13 -51 21 -9 11 -34 15 -95 15 -61
0 -86 4 -95 15 -10 12 -36 15 -115 15 -79 0 -105 3 -115 15 -8 10 -31 15 -69
15 -31 0 -67 6 -81 13 -14 8 -41 17 -59 20 -43 9 -121 72 -121 98 0 11 -7 30
-16 44 -14 21 -14 26 0 54 9 16 16 44 16 62 0 52 108 149 165 149 17 0 37 6
44 13 8 8 44 12 106 12 62 0 98 -4 107 -12 6 -7 26 -13 43 -13 75 0 175 -116
195 -225 l5 -30 288 -3 287 -2 0 68 c0 44 -5 75 -15 88 -8 10 -15 29 -15 41 0
24 -45 119 -60 128 -6 3 -10 14 -10 23 0 9 -38 54 -85 100 -60 59 -106 94
-161 122 -42 22 -82 40 -89 40 -7 0 -15 7 -19 15 -3 10 -19 15 -44 15 -23 0
-45 6 -52 15 -8 9 -30 15 -59 15 -26 0 -55 6 -66 14 -22 14 -254 25 -400 19z"/>
<path d="M11100 7415 c-8 -10 -31 -15 -65 -15 -38 0 -55 -4 -59 -15 -3 -8 -16
-15 -30 -15 -14 0 -27 -4 -31 -9 -3 -6 -31 -22 -63 -37 -36 -17 -94 -61 -156
-120 -55 -51 -104 -90 -108 -88 -4 3 -8 58 -8 122 0 162 0 162 -65 162 -35 0
-57 -5 -65 -15 -12 -14 -15 -14 -31 1 -17 15 -19 15 -34 0 -22 -22 -231 -23
-261 -2 -16 13 -21 13 -35 0 -14 -13 -18 -13 -29 1 -7 8 -22 15 -35 15 -28 0
-60 -34 -48 -52 4 -7 10 -735 13 -1618 l5 -1605 293 -3 292 -2 0 614 c0 338 4
617 8 620 5 3 31 -17 57 -44 27 -28 53 -50 58 -50 11 0 70 -42 80 -57 4 -7 16
-13 26 -13 10 0 24 -7 31 -15 7 -8 20 -15 30 -15 10 0 23 -7 30 -15 7 -8 30
-18 52 -21 21 -4 41 -11 44 -15 3 -5 17 -9 32 -9 15 0 44 -9 65 -20 32 -18 56
-20 195 -20 122 0 162 3 178 15 12 8 52 17 90 21 38 4 78 13 89 20 11 8 31 14
46 14 15 0 29 7 33 15 3 8 16 15 29 15 14 0 30 7 37 15 7 8 19 15 27 15 8 0
34 16 57 35 24 19 49 35 56 35 17 0 280 267 280 283 0 7 13 28 29 47 15 19 32
46 36 60 4 13 14 30 21 38 8 7 14 25 14 40 0 15 7 36 15 46 8 11 15 30 15 42
0 12 6 24 13 27 9 3 16 30 20 72 4 37 12 74 19 82 17 21 18 504 0 525 -6 8
-14 40 -18 71 -4 31 -13 62 -20 68 -8 6 -14 23 -14 36 0 14 -7 37 -15 51 -8
15 -26 52 -40 82 -25 53 -34 71 -55 108 -6 9 -14 27 -19 38 -13 30 -247 264
-263 264 -8 0 -28 14 -46 30 -18 17 -35 30 -38 30 -12 0 -114 52 -119 61 -4 5
-21 9 -39 9 -19 0 -39 6 -45 14 -6 7 -38 16 -71 20 -33 4 -62 11 -65 16 -4 6
-91 10 -209 10 -169 0 -206 -3 -216 -15z m260 -510 c7 -8 27 -15 44 -15 32 0
74 -22 89 -47 4 -7 18 -13 29 -13 24 0 168 -142 168 -165 0 -8 6 -20 13 -27
30 -31 57 -78 57 -100 0 -13 7 -33 15 -44 10 -13 14 -44 15 -95 0 -50 5 -82
15 -95 18 -23 19 -56 3 -72 -10 -10 -10 -17 -1 -31 8 -12 8 -22 2 -28 -6 -6
-13 -43 -16 -84 -3 -41 -12 -83 -19 -94 -8 -11 -14 -28 -14 -38 0 -9 -7 -20
-15 -23 -8 -4 -15 -16 -15 -29 0 -12 -7 -28 -15 -35 -8 -7 -15 -18 -15 -24 0
-29 -119 -153 -166 -172 -19 -8 -34 -19 -34 -24 0 -6 -13 -10 -29 -10 -16 0
-34 -6 -40 -14 -7 -8 -27 -18 -44 -21 -18 -4 -47 -13 -66 -22 -27 -12 -61 -15
-168 -11 -83 3 -138 9 -145 16 -7 7 -22 12 -33 12 -12 0 -30 9 -40 20 -10 11
-29 20 -42 20 -12 0 -23 5 -23 10 0 6 -12 15 -26 20 -48 19 -173 144 -174 175
-1 5 -14 26 -30 45 -17 19 -30 46 -30 60 0 14 -6 34 -14 45 -7 11 -16 44 -19
74 -4 30 -11 59 -17 65 -17 17 -12 237 5 260 8 11 15 40 15 65 0 25 7 55 15
65 8 11 15 30 15 43 0 13 7 26 15 29 8 4 15 12 15 19 0 7 16 33 35 58 19 25
35 50 35 54 0 14 83 90 107 97 11 4 24 13 27 21 3 8 17 15 31 15 14 0 28 7 31
15 4 8 16 15 28 15 12 0 31 7 42 15 28 21 366 22 384 0z"/>
<path d="M12680 6622 c0 -516 3 -781 10 -788 6 -6 13 -42 17 -80 3 -38 12 -78
19 -89 8 -11 14 -29 14 -40 0 -28 58 -142 98 -192 17 -22 32 -46 32 -51 0 -15
148 -162 163 -162 7 0 28 -13 47 -30 19 -16 45 -29 56 -30 12 0 24 -7 28 -15
3 -8 16 -15 28 -15 13 0 36 -7 52 -15 16 -8 53 -18 82 -21 30 -4 59 -13 65
-20 16 -20 296 -20 324 0 11 7 43 16 70 20 50 7 130 40 141 57 3 5 13 9 23 9
10 0 24 7 31 15 7 8 19 15 28 15 21 0 150 133 176 183 41 76 50 58 56 -98 l5
-140 305 0 305 0 1 1115 c1 613 0 1123 -3 1133 -4 16 -27 17 -303 17 -262 0
-299 -2 -304 -16 -3 -9 -6 -334 -6 -724 0 -617 -2 -709 -15 -720 -8 -7 -15
-27 -15 -44 0 -37 -17 -63 -89 -139 -34 -35 -63 -57 -77 -57 -12 0 -27 -7 -34
-15 -7 -8 -20 -15 -30 -15 -10 0 -23 -7 -30 -15 -7 -8 -28 -15 -48 -15 -20 0
-44 -8 -55 -17 -27 -25 -207 -25 -235 0 -10 9 -32 17 -49 17 -17 0 -36 7 -43
15 -7 8 -20 15 -30 15 -20 0 -140 122 -140 143 0 8 -7 20 -15 27 -8 7 -15 27
-15 44 0 17 -7 41 -15 53 -12 18 -15 123 -17 722 l-3 700 -24 23 c-16 16 -25
19 -28 11 -6 -15 -39 -17 -48 -3 -4 6 -100 10 -256 10 l-249 0 0 -778z"/>
<path d="M20535 7380 c-15 -17 -16 -24 -7 -46 9 -18 12 -229 12 -781 0 -688 1
-758 16 -775 10 -10 19 -41 22 -70 3 -29 11 -62 18 -73 8 -11 14 -31 14 -46 0
-15 7 -32 15 -39 8 -7 15 -19 15 -26 0 -8 16 -34 35 -60 19 -25 35 -50 35 -56
0 -17 206 -218 222 -218 9 0 21 -7 28 -15 7 -8 20 -15 30 -15 10 0 23 -7 30
-15 7 -8 24 -15 39 -15 14 0 38 -7 53 -14 16 -8 49 -18 75 -21 27 -4 58 -13
70 -21 31 -20 300 -20 328 0 11 7 44 17 73 21 29 4 72 18 95 31 23 13 49 27
57 31 8 3 31 19 51 35 20 15 41 28 47 28 22 0 91 79 116 133 22 45 32 57 51
57 30 0 35 -20 35 -162 l0 -118 305 0 305 0 0 331 c0 202 -4 338 -10 349 -7
13 -7 21 0 25 6 4 10 107 10 276 0 162 -4 278 -10 289 -7 13 -7 21 0 25 5 3
10 24 10 46 0 22 -5 49 -10 59 -7 13 -7 21 0 25 13 8 13 81 -1 106 -7 15 -7
24 2 35 9 11 9 17 0 28 -9 10 -9 20 -3 33 7 12 7 25 0 36 -7 13 -6 22 2 33 10
11 10 17 1 28 -9 10 -9 20 -3 33 7 12 7 25 0 36 -7 13 -6 22 2 33 10 11 10 17
0 28 -8 11 -9 20 -2 33 7 11 7 24 0 36 -6 13 -6 23 3 33 9 11 9 17 0 28 -9 11
-9 20 -2 35 7 13 8 22 1 26 -14 9 -13 158 2 173 9 9 7 16 -10 32 -20 19 -34
20 -299 20 -320 -1 -325 -2 -305 -68 9 -28 12 -217 12 -659 0 -539 -2 -622
-15 -633 -10 -8 -15 -30 -15 -65 0 -32 -5 -57 -14 -64 -7 -6 -16 -24 -19 -39
-8 -37 -161 -191 -198 -199 -16 -3 -34 -12 -40 -19 -7 -8 -30 -14 -57 -14 -27
0 -52 -6 -62 -15 -25 -23 -184 -23 -209 -1 -10 9 -31 16 -48 16 -17 0 -36 7
-43 15 -7 8 -22 15 -33 15 -12 0 -50 30 -94 75 -55 57 -73 82 -73 103 0 15 -7
37 -15 49 -12 17 -15 108 -17 581 -2 416 -6 564 -15 573 -9 9 -8 17 3 35 16
23 11 89 -7 100 -5 3 -5 14 1 25 7 13 7 25 1 37 -7 13 -6 23 2 31 8 8 9 16 0
29 -7 12 -8 24 -1 36 7 13 5 23 -8 37 -16 18 -33 19 -299 19 -269 0 -283 -1
-300 -20z"/>
</g>
</svg>
