<?xml version="1.0" encoding="UTF-8"?>
<svg version="1.1" xmlns="http://www.w3.org/2000/svg" width="500" height="500">
<path d="M0 0 C1.43838552 0.79005662 2.87567415 1.58211045 4.3125 2.375 C5.11300781 2.81585938 5.91351563 3.25671875 6.73828125 3.7109375 C8.53527943 4.73513335 10.27900708 5.85267138 12 7 C12 7.66 12 8.32 12 9 C12.71542969 9.2578125 13.43085938 9.515625 14.16796875 9.78125 C17.17160111 11.07384765 19.63505372 12.6277709 22.3125 14.5 C23.19550781 15.1084375 24.07851563 15.716875 24.98828125 16.34375 C25.65214844 16.8903125 26.31601562 17.436875 27 18 C27 18.66 27 19.32 27 20 C27.71542969 20.2578125 28.43085938 20.515625 29.16796875 20.78125 C32.17160111 22.07384765 34.63505372 23.6277709 37.3125 25.5 C38.19550781 26.1084375 39.07851563 26.716875 39.98828125 27.34375 C40.65214844 27.8903125 41.31601562 28.436875 42 29 C42 29.66 42 30.32 42 31 C42.66 31 43.32 31 44 31 C44 31.66 44 32.32 44 33 C44.68964844 33.23847656 45.37929688 33.47695312 46.08984375 33.72265625 C49.54748828 35.24030694 52.50233291 37.25770319 55.5625 39.4375 C56.40844727 40.03014648 56.40844727 40.03014648 57.27148438 40.63476562 C60.21924786 42.70681926 63.13187789 44.81910519 66 47 C64.50596652 51.61792165 62.35726951 54.5627955 59 58 C57.68 58 56.36 58 55 58 C54.67 65.92 54.34 73.84 54 82 C55.98362549 81.99476318 57.96725098 81.98952637 60.01098633 81.98413086 C66.56084024 81.96801351 73.11068947 81.95651871 79.66055775 81.94818783 C83.63219624 81.9429666 87.6038133 81.9358827 91.57543945 81.92456055 C95.40741372 81.91370473 99.23936736 81.90771743 103.07135582 81.90512276 C104.53420016 81.90327338 105.99704335 81.89966208 107.45987892 81.89426994 C109.50688757 81.88702378 111.55381069 81.88601057 113.60083008 81.88647461 C114.76665115 81.884254 115.93247223 81.88203339 117.13362122 81.87974548 C120 82 120 82 123 83 C124.58844773 85.18228731 126.02761382 87.33246388 127.4375 89.625 C127.81970703 90.22957031 128.20191406 90.83414063 128.59570312 91.45703125 C136.32176137 103.76100856 136.32176137 103.76100856 137 108 C137.66 108 138.32 108 139 108 C139 108.99 139 109.98 139 111 C139.66 111 140.32 111 141 111 C142.40234375 113.046875 142.40234375 113.046875 143.9375 115.75 C145.79575179 119.00075249 147.69068578 122.04959258 150 125 C149.34 126.32 148.68 127.64 148 129 C144.37 129 140.74 129 137 129 C137.0721875 130.44503906 137.144375 131.89007813 137.21875 133.37890625 C138.54039347 161.61786504 138.00768027 189.76695821 137 218 C141.29 218 145.58 218 150 218 C150.09765625 228.05859375 150.09765625 228.05859375 150 231 C149 232 149 232 146.96501678 232.1241985 C146.06014324 232.12381878 145.15526969 232.12343906 144.22297573 232.12304783 C143.1829328 232.12503888 142.14288987 232.12702993 141.07133049 232.12908131 C139.91474074 232.12616847 138.75815099 232.12325563 137.56651306 232.12025452 C136.34876003 232.12110894 135.131007 232.12196337 133.87635237 232.12284368 C130.48092147 232.12421191 127.08554749 232.12106428 123.69012344 232.11606562 C120.03434679 232.11176455 116.37857204 232.1132073 112.72279358 232.1139679 C106.38381975 232.11449335 100.04485618 232.11134432 93.70588493 232.10573006 C84.54069156 232.09761795 75.37550317 232.09500013 66.21030659 232.09374207 C51.34194312 232.09155109 36.47358511 232.08488977 21.60522461 232.07543945 C7.15828478 232.06626651 -7.28865356 232.0591851 -21.7355957 232.05493164 C-22.62545766 232.05466892 -23.51531962 232.05440619 -24.43214709 232.05413551 C-28.89612968 232.05283051 -33.36011228 232.05156679 -37.82409489 232.05032361 C-74.88273379 232.03994957 -111.94136647 232.02233002 -149 232 C-150.5456757 227.36297289 -150.05735628 222.87528349 -150 218 C-146.04 218 -142.08 218 -138 218 C-138 188.63 -138 159.26 -138 129 C-141.3 129 -144.6 129 -148 129 C-148.80078125 127.0234375 -148.80078125 127.0234375 -149 124 C-147.72939975 121.00191906 -145.96183159 118.34757144 -144.1875 115.625 C-143.68847168 114.83496582 -143.18944336 114.04493164 -142.67529297 113.23095703 C-138.60781606 106.828566 -134.41539799 100.50531834 -130.1484375 94.234375 C-128.3832028 91.57689439 -126.79982007 88.90875324 -125.25 86.125 C-123 83 -123 83 -120.26339722 82.31178284 C-116.99645918 81.99966171 -113.81731206 81.87988492 -110.53564453 81.88647461 C-108.64436325 81.88658791 -108.64436325 81.88658791 -106.71487427 81.88670349 C-105.3541866 81.89180891 -103.99349935 81.89702489 -102.6328125 81.90234375 C-101.22891287 81.90421088 -99.82501258 81.90563339 -98.42111206 81.90663147 C-94.74192478 81.91043342 -91.06277752 81.92024367 -87.38360596 81.93133545 C-83.62293031 81.94159969 -79.86224814 81.9461398 -76.1015625 81.95117188 C-68.73435472 81.96186821 -61.36718809 81.97944599 -54 82 C-54.33 74.08 -54.66 66.16 -55 58 C-56.32 57.34 -57.64 56.68 -59 56 C-60.703125 54.0546875 -60.703125 54.0546875 -62.25 51.875 C-62.77078125 51.15054688 -63.2915625 50.42609375 -63.828125 49.6796875 C-64.21484375 49.12539062 -64.6015625 48.57109375 -65 48 C-61.25669182 43.882361 -57.09921707 40.84659283 -52.5078125 37.71484375 C-50.30243648 36.20680625 -48.14877179 34.64935448 -46 33.0625 C-43 31 -43 31 -41 31 C-41 30.34 -41 29.68 -41 29 C-38.9055032 27.36570249 -36.82217909 25.85832766 -34.625 24.375 C-34.02171875 23.95476562 -33.4184375 23.53453125 -32.796875 23.1015625 C-28.26537135 20 -28.26537135 20 -26 20 C-26 19.34 -26 18.68 -26 18 C-24.35 17.34 -22.7 16.68 -21 16 C-21 15.34 -21 14.68 -21 14 C-19.02997018 12.47142503 -17.06985966 11.06882434 -15 9.6875 C-14.41001221 9.28668213 -13.82002441 8.88586426 -13.2121582 8.47290039 C-8.8733828 5.54065434 -4.47512319 2.72017292 0 0 Z M-6.125 21.5625 C-7.11371094 22.29984375 -8.10242188 23.0371875 -9.12109375 23.796875 C-11.49534224 25.61380329 -13.84606127 27.45378564 -16.1875 29.3125 C-21.11195967 33.19645453 -26.30138089 36.68482958 -31.50463867 40.1809082 C-32.17084229 40.63167725 -32.8370459 41.08244629 -33.5234375 41.546875 C-34.12075684 41.94745117 -34.71807617 42.34802734 -35.33349609 42.76074219 C-36.15841553 43.3741748 -36.15841553 43.3741748 -37 44 C-37.52193089 44.37922513 -38.04386179 44.75845026 -38.58160877 45.14916706 C-40.74259943 47.9690045 -40.36848952 50.33726851 -40.36076355 53.85258484 C-40.36332682 54.55343557 -40.3658901 55.2542863 -40.36853105 55.97637492 C-40.37348193 58.33042949 -40.35695518 60.68384608 -40.34057617 63.0378418 C-40.33973018 64.72299179 -40.3402045 66.40814289 -40.34190369 68.09329224 C-40.34276615 72.67364344 -40.32509983 77.25376004 -40.30418181 81.83405662 C-40.2854568 86.61867322 -40.28366787 91.40329491 -40.28010559 96.1879425 C-40.27077283 105.25084063 -40.24614241 114.31363048 -40.21605712 123.37648088 C-40.18255138 133.69314665 -40.16603674 144.00981752 -40.15097082 154.32652414 C-40.11959392 175.55107821 -40.06620684 196.77552848 -40 218 C-34.39 218 -28.78 218 -23 218 C-22.98018066 216.618125 -22.96036133 215.23625 -22.93994141 213.8125 C-22.86358222 208.66111749 -22.77491218 203.51000632 -22.68261719 198.35888672 C-22.64445236 196.13400652 -22.60957819 193.90906724 -22.578125 191.68408203 C-22.53220238 188.47667398 -22.47425325 185.26966825 -22.4140625 182.0625 C-22.39673569 180.58233398 -22.39673569 180.58233398 -22.37905884 179.07226562 C-22.17595408 169.45994423 -20.88318085 161.75120299 -13.6875 154.75 C-8.34316284 151.2699665 -2.30954089 150.086931 4 151 C11.06919986 152.92907354 16.04509356 156.84305425 20 163 C22.47846773 168.67125368 22.34658828 174.2247722 22.4140625 180.3046875 C22.43342865 181.38380402 22.4527948 182.46292053 22.4727478 183.57473755 C22.53233942 187.00807895 22.57884761 190.44145424 22.625 193.875 C22.66319853 196.20834764 22.70225135 198.54168146 22.7421875 200.875 C22.83802417 206.58321032 22.92313112 212.29150444 23 218 C25.81256281 218.02684312 28.62487241 218.04676188 31.4375 218.0625 C32.23994141 218.07087891 33.04238281 218.07925781 33.86914062 218.08789062 C35.91295221 218.0965143 37.95683902 218.0522815 40 218 C41.86902445 216.13097555 41.16332198 212.97374383 41.18754578 210.47972107 C41.19545586 209.79030727 41.20336594 209.10089347 41.21151572 208.39058834 C41.23672773 206.06306679 41.25454052 203.73554916 41.2722168 201.40795898 C41.28829386 199.74593319 41.30467359 198.0839103 41.32133484 196.42189026 C41.46617345 181.2272605 41.54111387 166.03180159 41.60025311 150.83662319 C41.64481842 139.60199418 41.72192755 128.3685866 41.84183758 117.13450378 C41.92327461 109.23890505 41.96639616 101.3436408 41.98155528 93.44764 C41.99171989 88.73062139 42.0189971 84.01513948 42.08786583 79.29858208 C42.15200594 74.85668869 42.1686407 70.41710376 42.14937019 65.97481346 C42.15052157 64.34777028 42.16870782 62.72063284 42.205513 61.09400558 C42.56567172 52.14928427 42.56567172 52.14928427 38.85245705 44.3123951 C36.32388564 42.2528941 33.83306589 40.60622996 31 39 C29.51536487 38.00813682 28.03518728 37.00951781 26.5625 36 C25.46615234 35.28650391 25.46615234 35.28650391 24.34765625 34.55859375 C17.23993104 29.8398211 10.45816596 24.67143079 3.875 19.25 C-0.26753947 16.48830702 -2.64294747 18.94848051 -6.125 21.5625 Z M-124 129 C-124 158.37 -124 187.74 -124 218 C-100.9 218 -77.8 218 -54 218 C-54 188.63 -54 159.26 -54 129 C-77.1 129 -100.2 129 -124 129 Z M54 129 C54 158.37 54 187.74 54 218 C77.1 218 100.2 218 124 218 C125.05165498 213.79338007 125.09287102 210.03188652 125.02172852 205.74316406 C125.01212097 204.91352646 125.00251343 204.08388885 124.99261475 203.22911072 C124.95967543 200.49119444 124.9193238 197.75344025 124.87890625 195.015625 C124.85460018 193.11562672 124.83075687 191.21562246 124.80735779 189.31561279 C124.74456531 184.31786287 124.67548493 179.32021883 124.60510254 174.3225708 C124.52193751 168.32456124 124.44656874 162.32644927 124.36989594 156.32835388 C124.25257555 147.21881006 124.12534175 138.10945289 124 129 C100.9 129 77.8 129 54 129 Z " fill="#E3E3E3" transform="translate(255,73)"/>
<path d="M0 0 C2.27635782 1.14586931 4.22064908 2.44943637 6.2734375 3.953125 C8.09251159 5.28073428 8.09251159 5.28073428 11 4.8125 C11.66 4.544375 12.32 4.27625 13 4 C13 3.34 13 2.68 13 2 C18.38289369 -0.41502798 23.1697947 -0.8072592 29 0 C33.54201755 1.86586973 37.61170939 4.62146722 40 9 C41.81312745 13.58584999 42.24649597 17.413561 42.23046875 22.33203125 C42.23001053 23.00924728 42.22955231 23.68646332 42.2290802 24.38420105 C42.22607815 25.80359671 42.21825385 27.22298969 42.20581055 28.64233398 C42.187407 30.82352221 42.18530215 33.00428864 42.18554688 35.18554688 C42.14765045 45.85234955 42.14765045 45.85234955 41 47 C38.81360547 47.07258946 36.62499611 47.08373783 34.4375 47.0625 C32.64119141 47.04896484 32.64119141 47.04896484 30.80859375 47.03515625 C29.88175781 47.02355469 28.95492187 47.01195312 28 47 C27.98541748 46.1121582 27.97083496 45.22431641 27.95581055 44.30957031 C27.89465466 41.00672038 27.82048622 37.70469085 27.73754883 34.40234375 C27.70435206 32.97472086 27.67630369 31.54696837 27.65356445 30.11914062 C27.61991987 28.06324185 27.56760438 26.00852488 27.51171875 23.953125 C27.48553467 22.71723633 27.45935059 21.48134766 27.43237305 20.20800781 C26.97416772 16.80833646 26.47917764 15.34102691 24 13 C20.58518389 12.57314799 18.17468171 12.33434703 15.125 14.0625 C12.04059527 19.37453037 12.90713489 26.68163322 13 32.625 C13.02567781 34.28378625 13.04665055 35.94265323 13.0625 37.6015625 C13.07410156 38.32682129 13.08570313 39.05208008 13.09765625 39.79931641 C13 42 13 42 12 47 C7.71 47 3.42 47 -1 47 C-1.92483189 43.30067243 -2.16655688 40.34192789 -2.24609375 36.5546875 C-2.27896484 35.31332031 -2.31183594 34.07195312 -2.34570312 32.79296875 C-2.40708192 30.17326965 -2.46434969 27.55347112 -2.51757812 24.93359375 C-2.55173828 23.69480469 -2.58589844 22.45601563 -2.62109375 21.1796875 C-2.6461499 20.04257324 -2.67120605 18.90545898 -2.69702148 17.73388672 C-2.72776059 14.85562809 -2.72776059 14.85562809 -5 13 C-9.06095958 12.52786327 -9.06095958 12.52786327 -13 13 C-15.79568631 15.44544373 -15.99435492 16.920028 -16.2578125 20.65234375 C-16.22704735 22.08108386 -16.18207286 23.50956881 -16.125 24.9375 C-16.09224957 26.45564617 -16.06365298 27.97388724 -16.0390625 29.4921875 C-16.02649414 30.24725586 -16.01392578 31.00232422 -16.00097656 31.78027344 C-15.99873423 36.8770967 -16.53352883 41.92712599 -17 47 C-21.29 47 -25.58 47 -30 47 C-30.73914434 41.05454897 -31.14923867 35.26887418 -31.1328125 29.28125 C-31.13376923 28.49729858 -31.13472595 27.71334717 -31.13571167 26.90563965 C-31.13638596 25.268798 -31.13458473 23.63195355 -31.13037109 21.99511719 C-31.12495362 19.47845602 -31.13037096 16.96196864 -31.13671875 14.4453125 C-31.13605897 12.84895794 -31.13477988 11.25260349 -31.1328125 9.65625 C-31.13584885 8.52515808 -31.13584885 8.52515808 -31.13894653 7.37121582 C-31.11499059 2.11499059 -31.11499059 2.11499059 -30 1 C-27.98035801 0.92755947 -25.95832876 0.91622812 -23.9375 0.9375 C-22.28041016 0.95103516 -22.28041016 0.95103516 -20.58984375 0.96484375 C-19.73519531 0.97644531 -18.88054687 0.98804688 -18 1 C-17.67 1.99 -17.34 2.98 -17 4 C-16.236875 3.34 -15.47375 2.68 -14.6875 2 C-10.14905244 -0.99344414 -5.22997879 -0.90633155 0 0 Z " fill="#DEDDDD" transform="translate(147,354)"/>
<path d="M0 0 C0.87527344 -0.00257813 1.75054687 -0.00515625 2.65234375 -0.0078125 C5.0625 0.125 5.0625 0.125 8.0625 1.125 C8.0625 9.375 8.0625 17.625 8.0625 26.125 C16.6425 26.125 25.2225 26.125 34.0625 26.125 C34.0625 17.875 34.0625 9.625 34.0625 1.125 C36.41520593 -0.05135297 37.883252 -0.00859359 40.5 0 C41.67369141 -0.00386719 41.67369141 -0.00386719 42.87109375 -0.0078125 C45.0625 0.125 45.0625 0.125 48.0625 1.125 C48.0856271 9.32190561 48.10341696 17.51879768 48.11431217 25.71572781 C48.1195402 29.52151577 48.12663638 33.32728148 48.13793945 37.13305664 C48.1487712 40.80292544 48.15477744 44.47277278 48.15737724 48.14265633 C48.15923097 49.54574992 48.1628506 50.94884229 48.16823006 52.3519268 C48.17544419 54.3106968 48.17590809 56.2694882 48.17602539 58.22827148 C48.178246 59.34523911 48.18046661 60.46220673 48.18275452 61.61302185 C48.0625 64.125 48.0625 64.125 47.0625 65.125 C42.7725 65.125 38.4825 65.125 34.0625 65.125 C34.0625 56.545 34.0625 47.965 34.0625 39.125 C25.4825 39.125 16.9025 39.125 8.0625 39.125 C8.1020914 47.30752797 8.1020914 47.30752797 8.15258789 55.48999023 C8.15508545 56.50262939 8.15758301 57.51526855 8.16015625 58.55859375 C8.16539307 59.60072021 8.17062988 60.64284668 8.17602539 61.71655273 C8.0625 64.125 8.0625 64.125 7.0625 65.125 C4.87610547 65.19758946 2.68749611 65.20873783 0.5 65.1875 C-0.69753906 65.17847656 -1.89507812 65.16945313 -3.12890625 65.16015625 C-4.51916016 65.14275391 -4.51916016 65.14275391 -5.9375 65.125 C-6.5527546 43.789083 -7.13962213 22.47220604 -6.9375 1.125 C-4.46371876 -0.11189062 -2.75834683 -0.00810087 0 0 Z " fill="#DDDDDD" transform="translate(345.9375,335.875)"/>
<path d="M0 0 C0 0.66 0 1.32 0 2 C0.66 2 1.32 2 2 2 C2 2.66 2 3.32 2 4 C2.66 4 3.32 4 4 4 C4.81837442 5.41328129 5.62946219 6.83078346 6.4375 8.25 C7.11619141 9.43335938 7.11619141 9.43335938 7.80859375 10.640625 C8.89311602 12.78833468 9.53148716 14.65205061 10 17 C4.575346 17.45896015 -0.59114315 17.73063187 -6 17 C-8.22895421 15.09319933 -8.98667517 13.67702096 -9.98046875 10.9453125 C-10.87845537 8.79277753 -10.87845537 8.79277753 -13.2734375 7.765625 C-18.24167787 6.37053171 -24.16581155 5.71173252 -28.9765625 7.8984375 C-30.36736256 8.86446119 -31.69089513 9.92586267 -33 11 C-33.66 11 -34.32 11 -35 11 C-35 11.66 -35 12.32 -35 13 C-35.66 13 -36.32 13 -37 13 C-38.77825328 20.6210855 -39.78338124 27.52881878 -37 35 C-36.731875 35.886875 -36.46375 36.77375 -36.1875 37.6875 C-34.14373644 41.66746062 -31.17298915 43.60900362 -27 45 C-17.69841844 45.66935864 -17.69841844 45.66935864 -9 43 C-7.67518454 40.60470331 -7.67518454 40.60470331 -7 38 C-6.34 37.01 -5.68 36.02 -5 35 C-2.37302936 34.77862607 0.00893964 34.71837975 2.625 34.8125 C3.33140625 34.82603516 4.0378125 34.83957031 4.765625 34.85351562 C6.51074128 34.8888896 8.25546608 34.94269779 10 35 C9.00069657 43.080082 6.48150249 46.93810036 0.3125 52.1875 C-8.62672117 58.99275862 -16.85995052 59.96590024 -28 59 C-37.4348837 57.01014648 -44.31558829 52.22173745 -49.6875 44.1875 C-54.96080011 35.29917026 -55.19129797 25.32231818 -52.9375 15.375 C-50.47608653 7.24769136 -44.90848784 0.79364463 -38 -4 C-25.50506449 -10.0938415 -10.86097745 -9.02221151 0 0 Z " fill="#E3E3E2" transform="translate(54,343)"/>
<path d="M0 0 C14.73258047 -0.80849527 14.73258047 -0.80849527 21 4 C27.17495477 10.17495477 29.16423062 15.40238629 29.4375 23.9375 C29.24555799 31.18523036 28.11587925 35.66534625 23.1640625 40.96484375 C17.34359375 46.41735183 12.21482402 48.41788231 4.2578125 48.26953125 C0.76637811 47.85273372 -1.88025075 46.59306344 -5 45 C-6.45942841 46.22750423 -6.45942841 46.22750423 -6.0625 49.9296875 C-6.03832606 52.41557424 -5.99959534 54.90101947 -5.9609375 57.38671875 C-5.95320312 58.18464844 -5.94546875 58.98257813 -5.9375 59.8046875 C-5.92589844 60.53671387 -5.91429687 61.26874023 -5.90234375 62.02294922 C-6 64 -6 64 -7 67 C-8.97909398 67.02686553 -10.95828971 67.04633375 -12.9375 67.0625 C-14.03964844 67.07410156 -15.14179688 67.08570313 -16.27734375 67.09765625 C-19 67 -19 67 -20 66 C-20.09409479 63.97505769 -20.11743122 61.9468013 -20.11352539 59.91967773 C-20.11344986 58.61840439 -20.11337433 57.31713104 -20.11329651 55.97642517 C-20.10818909 54.54548098 -20.10297308 53.11453718 -20.09765625 51.68359375 C-20.09579203 50.2277074 -20.09436815 48.77182043 -20.09336853 47.31593323 C-20.08954365 43.47720621 -20.07971364 39.63851681 -20.06866455 35.79980469 C-20.05844978 31.88542184 -20.05387077 27.97103294 -20.04882812 24.05664062 C-20.03809133 16.37107459 -20.02049479 8.68554735 -20 1 C-15.71 1 -11.42 1 -7 1 C-7 1.99 -7 2.98 -7 4 C-6.01 3.34 -5.02 2.68 -4 2 C-2.68 2 -1.36 2 0 2 C0 1.34 0 0.68 0 0 Z M-6 17 C-7.72814239 20.45628479 -7.35633298 24.21396205 -7 28 C-5.47715678 32.27148926 -5.47715678 32.27148926 -2.1640625 35.1328125 C2.06011262 36.82553249 6.65919134 37.0004286 10.8828125 35.1953125 C13.30150818 33.50105707 14.78436797 31.69823704 15.65625 28.875 C16.52671329 23.01915606 15.64287358 18.71431287 12.5625 13.625 C6.07305138 9.5097399 -1.56611958 10.79256741 -6 17 Z " fill="#DDDCDC" transform="translate(214,354)"/>
<path d="M0 0 C1.17755859 0.02320313 1.17755859 0.02320313 2.37890625 0.046875 C4.4375 0.25 4.4375 0.25 6.4375 1.25 C6.4375 8.84 6.4375 16.43 6.4375 24.25 C9.0775 22.93 11.7175 21.61 14.4375 20.25 C20.82825912 18.99146176 26.24978459 19.68719491 31.9375 22.875 C37.66947823 26.78817744 40.92677485 31.45173681 42.4375 38.25 C43.17889266 47.57593925 42.1629548 54.04805696 36.25 61.5 C31.58019346 66.56222725 27.24487467 67.98263098 20.5 68.625 C15.8778876 68.45959638 11.71335951 66.91283426 7.4375 65.25 C6.9425 66.24 6.9425 66.24 6.4375 67.25 C4.83342672 67.27708567 3.2292215 67.29643483 1.625 67.3125 C0.73167969 67.32410156 -0.16164063 67.33570313 -1.08203125 67.34765625 C-3.5625 67.25 -3.5625 67.25 -6.5625 66.25 C-6.76263749 58.08795107 -6.94636391 49.92576888 -7.10908794 41.76289654 C-7.1851626 37.97263389 -7.26690768 34.1826698 -7.36157227 30.39282227 C-7.45270345 26.73610508 -7.52899092 23.07935299 -7.59494972 19.42209816 C-7.6227437 18.02612554 -7.65590558 16.63024924 -7.69449425 15.23453331 C-7.74758492 13.28128221 -7.77991124 11.32749999 -7.8112793 9.3737793 C-7.83570602 8.2612529 -7.86013275 7.1487265 -7.88529968 6.00248718 C-7.5625 3.25 -7.5625 3.25 -6.18391418 1.38777161 C-4.02386736 -0.12796692 -2.61559343 -0.086181 0 0 Z M8.625 34.75 C5.62786786 38.53585113 5.92216364 42.58223881 5.97265625 47.25 C6.4782755 50.51315614 7.0208509 51.73827707 9.375 54 C12.92452909 56.42635153 16.08906024 57.0654705 20.3515625 56.7890625 C23.70410893 55.9226741 25.36155737 53.90980149 27.4375 51.25 C27.7675 50.92 28.0975 50.59 28.4375 50.25 C28.98512919 44.98019122 29.02859612 40.54586458 26.8125 35.6875 C24.10649207 32.91028133 22.19724372 32.06733559 18.4375 31.25 C14.76977651 31.25 11.44478602 32.41638398 8.625 34.75 Z " fill="#DCDCDC" transform="translate(456.5625,333.75)"/>
<path d="M0 0 C4.40715391 2.39986196 6.7194753 4.97092589 8.3125 9.75 C8.39744728 12.40894107 8.42844796 15.04085377 8.41015625 17.69921875 C8.4087413 18.47183548 8.40732635 19.24445221 8.40586853 20.04048157 C8.40027466 22.50619389 8.38772333 24.97181515 8.375 27.4375 C8.36998421 29.11002473 8.36542144 30.78255088 8.36132812 32.45507812 C8.35030724 36.55342046 8.33304684 40.65169479 8.3125 44.75 C4.3525 44.75 0.3925 44.75 -3.6875 44.75 C-4.0175 44.09 -4.3475 43.43 -4.6875 42.75 C-5.656875 43.245 -6.62625 43.74 -7.625 44.25 C-12.71365876 46.39421307 -17.61691521 46.75906143 -22.8984375 45.0234375 C-27.1982233 43.05736444 -30.26344218 40.91937945 -32.6875 36.75 C-33.82528096 32.65398856 -33.83865084 30.28847486 -32.6875 26.1875 C-30.25896142 22.01344932 -27.93992932 19.11157425 -23.6875 16.75 C-20.33867782 15.90864302 -17.13077695 15.76565126 -13.6875 15.75 C-12.38039063 15.72873047 -12.38039063 15.72873047 -11.046875 15.70703125 C-8.92710045 15.69036636 -6.80706437 15.71581348 -4.6875 15.75 C-5.3475 14.1 -6.0075 12.45 -6.6875 10.75 C-10.3175 10.75 -13.9475 10.75 -17.6875 10.75 C-18.3475 12.07 -19.0075 13.39 -19.6875 14.75 C-23.9775 14.75 -28.2675 14.75 -32.6875 14.75 C-32.6875 7.68103448 -32.6875 7.68103448 -29.6875 3.75 C-21.52427143 -3.76876316 -9.97940938 -4.76957066 0 0 Z M-19.6875 27.75 C-19.9377157 30.83365871 -19.9377157 30.83365871 -19.6875 33.75 C-16.08177296 34.95190901 -13.4772565 35.07670315 -9.6875 34.75 C-6.67801026 33.22662048 -6.67801026 33.22662048 -4.6875 30.75 C-4.51533835 28.15338863 -4.51533835 28.15338863 -4.6875 25.75 C-6.62469378 25.69593878 -8.56231921 25.65717975 -10.5 25.625 C-11.57894531 25.60179687 -12.65789062 25.57859375 -13.76953125 25.5546875 C-16.88152868 25.51976283 -16.88152868 25.51976283 -19.6875 27.75 Z " fill="#E2E1E1" transform="translate(101.6875,356.25)"/>
<path d="M0 0 C1.19109375 -0.00386719 1.19109375 -0.00386719 2.40625 -0.0078125 C4.5 0.125 4.5 0.125 6.5 1.125 C8.01398408 8.28921224 7.83229569 15.73354242 8.01757812 23.02734375 C8.06881836 24.52201172 8.06881836 24.52201172 8.12109375 26.046875 C8.1461499 26.95018555 8.17120605 27.85349609 8.19702148 28.78417969 C8.35892178 31.39363283 8.35892178 31.39363283 10.5 34.125 C14.39349993 35.42283331 17.53208086 34.9554947 21.5 34.125 C22.56232201 30.62388634 22.66948955 27.32728568 22.74609375 23.6796875 C22.77896484 22.43832031 22.81183594 21.19695312 22.84570312 19.91796875 C22.90708192 17.29826965 22.96434969 14.67847112 23.01757812 12.05859375 C23.05173828 10.81980469 23.08589844 9.58101563 23.12109375 8.3046875 C23.1461499 7.16757324 23.17120605 6.03045898 23.19702148 4.85888672 C23.5 2.125 23.5 2.125 25.5 0.125 C27.8125 -0.10546875 27.8125 -0.10546875 30.5 -0.0625 C31.8303125 -0.05283203 31.8303125 -0.05283203 33.1875 -0.04296875 C35.5 0.125 35.5 0.125 37.5 1.125 C37.5 16.305 37.5 31.485 37.5 47.125 C33.21 47.125 28.92 47.125 24.5 47.125 C23.84 46.135 23.18 45.145 22.5 44.125 C21.901875 44.599375 21.30375 45.07375 20.6875 45.5625 C16.26970946 48.71806467 11.72301252 48.60063516 6.5 48.125 C1.12432525 46.33310842 -2.41772958 42.79358549 -5.5 38.125 C-6.67243847 34.55126262 -6.71933884 31.01699541 -6.8515625 27.27734375 C-6.88629166 26.29768394 -6.88629166 26.29768394 -6.92172241 25.29823303 C-6.9691892 23.92244656 -7.01444324 22.54658217 -7.05761719 21.1706543 C-7.12489054 19.06592451 -7.2026476 16.96175548 -7.28125 14.85742188 C-7.32615499 13.51825028 -7.37044676 12.17905795 -7.4140625 10.83984375 C-7.4752124 9.01634399 -7.4752124 9.01634399 -7.53759766 7.15600586 C-7.5 4.125 -7.5 4.125 -6.5 1.125 C-4.13386544 -0.05806728 -2.63219264 -0.00854608 0 0 Z " fill="#D9D8D8" transform="translate(253.5,353.875)"/>
<path d="M0 0 C0.02505615 0.86278564 0.0501123 1.72557129 0.07592773 2.61450195 C0.17111385 5.81823769 0.27034444 9.02181537 0.37231445 12.2253418 C0.41560218 13.61135983 0.45728164 14.99742906 0.49731445 16.38354492 C0.55516584 18.37691798 0.61929776 20.37010565 0.68359375 22.36328125 C0.72025146 23.56251221 0.75690918 24.76174316 0.79467773 25.99731445 C0.87733025 29.04994349 0.87733025 29.04994349 2 32 C5.89631421 34.04092649 7.54910606 34.13305067 11.8125 32.875 C15.03987888 31.4133075 15.03987888 31.4133075 15.69970703 29.25830078 C16.07051708 26.46968866 16.05703275 23.80544083 15.9921875 20.9921875 C15.97542969 19.84105469 15.95867187 18.68992187 15.94140625 17.50390625 C15.89698966 15.07667051 15.84485559 12.64956419 15.78515625 10.22265625 C15.77097656 9.07410156 15.75679688 7.92554688 15.7421875 6.7421875 C15.7201123 5.6888623 15.69803711 4.63553711 15.67529297 3.55029297 C15.78244629 2.70869629 15.88959961 1.86709961 16 1 C19.50579381 -1.33719587 20.5529846 -1.15827595 24.625 -0.75 C25.60726562 -0.66234375 26.58953125 -0.5746875 27.6015625 -0.484375 C28.39304687 -0.32453125 29.18453125 -0.1646875 30 0 C31.15410254 2.30820508 31.1210297 3.60784276 31.11352539 6.17431641 C31.11344986 7.03505768 31.11337433 7.89579895 31.11329651 8.78262329 C31.10813522 9.71287323 31.10297394 10.64312317 31.09765625 11.6015625 C31.0962413 12.55316254 31.09482635 13.50476257 31.09336853 14.48519897 C31.08776012 17.53183097 31.07520619 20.57839013 31.0625 23.625 C31.05748608 25.68749894 31.05292299 27.74999903 31.04882812 29.8125 C31.03778796 34.87502817 31.02051767 39.93750173 31 45 C28.23952457 45.92015848 26.36637731 46.19267245 23.5 46.25 C22.7265625 46.27578125 21.953125 46.3015625 21.15625 46.328125 C18.51169162 45.9256922 17.66759198 45.03104151 16 43 C15.5153125 43.28875 15.030625 43.5775 14.53125 43.875 C9.34981749 46.74471647 5.91714201 47.65746022 0 47 C-6.2166928 44.92776907 -9.60367762 42.72095095 -12.59765625 36.88671875 C-15.06158103 30.11361549 -14.31147282 22.60465644 -14.1875 15.5 C-14.1724286 13.99480503 -14.15874453 12.48959549 -14.14648438 10.984375 C-14.11366687 7.32261059 -14.06201989 3.66139979 -14 0 C-9.24730038 -1.58423321 -4.78454757 -1.32495164 0 0 Z " fill="#DDDCDC" transform="translate(414,355)"/>
<path d="M0 0 C3.71851695 3.39041251 5.86163531 6.8669417 6.29394531 11.90722656 C6.41614021 14.9245005 6.51810874 17.92610977 6.44628906 20.94580078 C6.40368832 23.40161154 6.40368832 23.40161154 7.125 26.9375 C8.12789063 27.60265625 9.13078125 28.2678125 10.1640625 28.953125 C11.14117187 29.60796875 12.11828125 30.2628125 13.125 30.9375 C13.125 33.5775 13.125 36.2175 13.125 38.9375 C-1.725 38.9375 -16.575 38.9375 -31.875 38.9375 C-32.875 33.9375 -32.875 33.9375 -31.625 31.1875 C-29.875 28.9375 -29.875 28.9375 -26.875 27.9375 C-26.84921875 26.8753125 -26.8234375 25.813125 -26.796875 24.71875 C-26.22159036 8.44338948 -26.22159036 8.44338948 -20.3828125 2.390625 C-14.16750334 -3.11347963 -7.51205962 -2.77619595 0 0 Z " fill="#E5E5E5" transform="translate(264.875,118.0625)"/>
<path d="M0 0 C3.72573495 2.37812869 5.55404677 4.11925552 7.9375 7.875 C8.25 11.75 8.25 11.75 7.9375 14.875 C4.55558388 15.17050723 1.31015327 15.31740051 -2.0625 14.875 C-4.75 12.375 -4.75 12.375 -7.0625 9.875 C-10.77250718 9.45668596 -10.77250718 9.45668596 -14.0625 9.875 C-14.3925 11.195 -14.7225 12.515 -15.0625 13.875 C-10.49782309 15.25452405 -10.49782309 15.25452405 -5.83984375 16.2421875 C0.07276871 17.23607433 4.10845296 19.14563879 7.9375 23.875 C10.09591435 28.82136622 10.4210758 32.68248469 8.9375 37.875 C6.50979068 41.89131105 4.04293658 44.37646978 -0.25 46.3125 C-9.31055877 47.64930375 -16.92285474 47.48092172 -25.0625 42.875 C-27.7276861 40.59055477 -28.90984546 39.28837045 -29.2890625 35.77734375 C-29.30989622 33.80855715 -29.19567881 31.83938746 -29.0625 29.875 C-25.1025 29.875 -21.1425 29.875 -17.0625 29.875 C-16.4025 31.195 -15.7425 32.515 -15.0625 33.875 C-12.53774538 35.13737731 -10.75049534 34.97356404 -7.9375 34.9375 C-7.02742188 34.92847656 -6.11734375 34.91945313 -5.1796875 34.91015625 C-4.48101562 34.89855469 -3.78234375 34.88695312 -3.0625 34.875 C-3.3925 33.555 -3.7225 32.235 -4.0625 30.875 C-5.81626953 30.49408203 -5.81626953 30.49408203 -7.60546875 30.10546875 C-9.15375037 29.75827833 -10.70192175 29.41059609 -12.25 29.0625 C-13.01892578 28.89685547 -13.78785156 28.73121094 -14.58007812 28.56054688 C-19.8664132 27.35807581 -24.12534419 26.01255124 -27.875 21.875 C-29.71946629 17.2152957 -29.83075347 12.81066615 -29.0625 7.875 C-24.15595746 -2.54616087 -9.70291051 -3.59050433 0 0 Z " fill="#D8D7D7" transform="translate(325.0625,355.125)"/>
<path d="M0 0 C4.40715391 2.39986196 6.7194753 4.97092589 8.3125 9.75 C8.35204234 12.08299825 8.35651732 14.41708189 8.3125 16.75 C7.6525 16.09 6.9925 15.43 6.3125 14.75 C5.755625 15.03875 5.19875 15.3275 4.625 15.625 C3.861875 15.99625 3.09875 16.3675 2.3125 16.75 C1.52875 17.1625 0.745 17.575 -0.0625 18 C-3.51947182 18.98770624 -5.43385406 18.11199133 -8.6875 16.75 C-7.3675 16.42 -6.0475 16.09 -4.6875 15.75 C-5.3475 14.1 -6.0075 12.45 -6.6875 10.75 C-10.3175 10.75 -13.9475 10.75 -17.6875 10.75 C-18.3475 12.07 -19.0075 13.39 -19.6875 14.75 C-23.9775 14.75 -28.2675 14.75 -32.6875 14.75 C-32.6875 7.68103448 -32.6875 7.68103448 -29.6875 3.75 C-21.52427143 -3.76876316 -9.97940938 -4.76957066 0 0 Z " fill="#DAD9DA" transform="translate(101.6875,356.25)"/>
<path d="M0 0 C-1.65 0.66 -3.3 1.32 -5 2 C-3.79618552 4.49361571 -2.54571278 6.68143083 -1 9 C-1.99 9.495 -1.99 9.495 -3 10 C-3.65772428 13.02934491 -3.65772428 13.02934491 -4 16 C-0.04 16 3.92 16 8 16 C8 18.33333333 8 20.66666667 8 23 C8.99 23.66 9.98 24.32 11 25 C5.58666349 27.76425694 1.08310607 28.94068651 -5 28 C-10.21229428 26.28712591 -14.19164714 23.83036692 -17 19 C-18.13778096 14.90398856 -18.15115084 12.53847486 -17 8.4375 C-14.36108938 3.90187238 -10.99749709 0.04040706 -5.91796875 -1.72265625 C-3.39123323 -2.08802941 -2.14063967 -1.29967408 0 0 Z " fill="#D9D8D8" transform="translate(86,374)"/>
<path d="M0 0 C1.1859375 0.00257813 2.371875 0.00515625 3.59375 0.0078125 C4.7796875 0.00523437 5.965625 0.00265625 7.1875 0 C10.09375 0.1328125 10.09375 0.1328125 11.09375 1.1328125 C11.18060603 2.69453995 11.20077219 4.26010594 11.19140625 5.82421875 C11.18818359 6.76845703 11.18496094 7.71269531 11.18164062 8.68554688 C11.17326172 9.67876953 11.16488281 10.67199219 11.15625 11.6953125 C11.15173828 12.69240234 11.14722656 13.68949219 11.14257812 14.71679688 C11.13075023 17.18882737 11.11281415 19.66082722 11.09375 22.1328125 C6.47375 22.1328125 1.85375 22.1328125 -2.90625 22.1328125 C-4.22619126 15.20312089 -4.22683604 8.16684741 -3.90625 1.1328125 C-2.90625 0.1328125 -2.90625 0.1328125 0 0 Z " fill="#CCCCCC" transform="translate(175.90625,216.8671875)"/>
<path d="M0 0 C4.62 0 9.24 0 14 0 C15.29393444 7.60186486 15.27177624 14.36934259 14 22 C9.38 22 4.76 22 0 22 C0 14.74 0 7.48 0 0 Z " fill="#DBDADA" transform="translate(145,217)"/>
<path d="M0 0 C2.31243792 -0.02685412 4.6249627 -0.04632841 6.9375 -0.0625 C8.22527344 -0.07410156 9.51304687 -0.08570313 10.83984375 -0.09765625 C14 0 14 0 15 1 C15.09880797 2.47652664 15.13079245 3.95767236 15.1328125 5.4375 C15.13474609 6.77941406 15.13474609 6.77941406 15.13671875 8.1484375 C15.13285156 9.08945313 15.12898438 10.03046875 15.125 11 C15.12886719 11.94101563 15.13273437 12.88203125 15.13671875 13.8515625 C15.13542969 14.74617187 15.13414062 15.64078125 15.1328125 16.5625 C15.13168457 17.38878906 15.13055664 18.21507812 15.12939453 19.06640625 C15 21 15 21 14 22 C11.83519203 22.0989294 9.66706215 22.129711 7.5 22.125 C6.3140625 22.12757813 5.128125 22.13015625 3.90625 22.1328125 C1 22 1 22 0 21 C-0.08685603 19.43827255 -0.10702219 17.87270656 -0.09765625 16.30859375 C-0.09443359 15.36435547 -0.09121094 14.42011719 -0.08789062 13.44726562 C-0.07951172 12.45404297 -0.07113281 11.46082031 -0.0625 10.4375 C-0.05798828 9.44041016 -0.05347656 8.44332031 -0.04882812 7.41601562 C-0.03700007 4.94395151 -0.02051849 2.47200482 0 0 Z " fill="#D2D1D1" transform="translate(323,217)"/>
<path d="M0 0 C4.62 0 9.24 0 14 0 C15.28571429 14.85714286 15.28571429 14.85714286 14 22 C9.38 22 4.76 22 0 22 C0 14.74 0 7.48 0 0 Z " fill="#DAD9D9" transform="translate(145,253)"/>
<path d="M0 0 C1.79244141 0.01740234 1.79244141 0.01740234 3.62109375 0.03515625 C5.41740234 0.04869141 5.41740234 0.04869141 7.25 0.0625 C8.17683594 0.07410156 9.10367187 0.08570313 10.05859375 0.09765625 C11.15331633 4.51129967 11.2079755 8.82890509 11.18359375 13.34765625 C11.18746094 14.07984375 11.19132812 14.81203125 11.1953125 15.56640625 C11.18530409 20.97094591 11.18530409 20.97094591 10.05859375 22.09765625 C7.87219922 22.17024571 5.68358986 22.18139408 3.49609375 22.16015625 C1.69978516 22.14662109 1.69978516 22.14662109 -0.1328125 22.1328125 C-1.05964844 22.12121094 -1.98648437 22.10960937 -2.94140625 22.09765625 C-4.10722543 19.76601789 -4.07046234 18.37612143 -4.07421875 15.78125 C-4.07550781 14.93498047 -4.07679688 14.08871094 -4.078125 13.21679688 C-4.07425781 12.33185547 -4.07039063 11.44691406 -4.06640625 10.53515625 C-4.07027344 9.64634766 -4.07414062 8.75753906 -4.078125 7.84179688 C-4.07683594 6.99681641 -4.07554687 6.15183594 -4.07421875 5.28125 C-4.07309082 4.50322021 -4.07196289 3.72519043 -4.07080078 2.92358398 C-3.84993175 -0.1931697 -3.16687108 0.1051418 0 0 Z " fill="#D5D5D5" transform="translate(326.94140625,252.90234375)"/>
<path d="M0 0 C4.99213851 0.46801299 9.12963993 2.91715737 13 6 C13 6.66 13 7.32 13 8 C13.66 8 14.32 8 15 8 C15 8.66 15 9.32 15 10 C15.66 10 16.32 10 17 10 C17.81837442 11.41328129 18.62946219 12.83078346 19.4375 14.25 C20.11619141 15.43335938 20.11619141 15.43335938 20.80859375 16.640625 C21.89311602 18.78833468 22.53148716 20.65205061 23 23 C17.575346 23.45896015 12.40885685 23.73063187 7 23 C4.77887684 21.09989855 4.00402539 19.56824447 2.85546875 16.91015625 C2.10930442 14.75834651 2.10930442 14.75834651 -0.375 13.5625 C-3.57089314 12.87766576 -6.75428054 12.38184935 -10 12 C-10 11.67 -10 11.34 -10 11 C-8.84371094 11.01740234 -8.84371094 11.01740234 -7.6640625 11.03515625 C-6.15972656 11.04869141 -6.15972656 11.04869141 -4.625 11.0625 C-3.12839844 11.07990234 -3.12839844 11.07990234 -1.6015625 11.09765625 C0.98432453 11.18006602 0.98432453 11.18006602 3 10 C2.690625 9.0925 2.38125 8.185 2.0625 7.25 C1.2727737 4.83436662 0.57050703 2.47219715 0 0 Z " fill="#E1E0E0" transform="translate(41,337)"/>
<path d="M0 0 C10.05859375 -0.09765625 10.05859375 -0.09765625 13 0 C14 1 14 1 14.11352539 3.04125977 C14.10828857 3.91580811 14.10305176 4.79035645 14.09765625 5.69140625 C14.09443359 6.63564453 14.09121094 7.57988281 14.08789062 8.55273438 C14.07951172 9.54595703 14.07113281 10.53917969 14.0625 11.5625 C14.05798828 12.55958984 14.05347656 13.55667969 14.04882812 14.58398438 C14.03700007 17.05604849 14.02051849 19.52799518 14 22 C9.27967883 23.57344039 4.92182643 22.52113456 0 22 C0 14.74 0 7.48 0 0 Z " fill="#D4D4D4" transform="translate(173,253)"/>
<path d="M0 0 C4.29 0 8.58 0 13 0 C13.91300909 2.73902726 14.12846608 4.3744827 14.1328125 7.1953125 C14.13474609 8.39220703 14.13474609 8.39220703 14.13671875 9.61328125 C14.13285156 10.44214844 14.12898438 11.27101562 14.125 12.125 C14.12886719 12.96160156 14.13273437 13.79820312 14.13671875 14.66015625 C14.12664874 20.87335126 14.12664874 20.87335126 13 22 C8.66469082 22.14393457 4.33842269 22.04212061 0 22 C0 14.74 0 7.48 0 0 Z " fill="#E4E3E3" transform="translate(351,217)"/>
<path d="M0 0 C4.29 0 8.58 0 13 0 C13.94137255 2.82411765 14.11725382 4.52918032 14.09765625 7.44921875 C14.09443359 8.29677734 14.09121094 9.14433594 14.08789062 10.01757812 C14.07951172 10.89865234 14.07113281 11.77972656 14.0625 12.6875 C14.05798828 13.58017578 14.05347656 14.47285156 14.04882812 15.39257812 C14.03705004 17.59508073 14.01911481 19.79754885 14 22 C9.38 22 4.76 22 0 22 C0 14.74 0 7.48 0 0 Z " fill="#DFDDDB" transform="translate(351,253)"/>
<path d="M0 0 C2.62697064 -0.22137393 5.00893964 -0.28162025 7.625 -0.1875 C8.33140625 -0.17396484 9.0378125 -0.16042969 9.765625 -0.14648438 C11.51074128 -0.1111104 13.25546608 -0.05730221 15 0 C13.82171525 9.52727383 9.79041693 13.47609136 2.53515625 19.36328125 C-0.064786 21.0418264 -1.95445933 21.62407459 -5 22 C-4 19 -4 19 -2 17 C-2.66 17 -3.32 17 -4 17 C-4.38218767 15.34385343 -4.71395102 13.67542976 -5 12 C-4.67 11.67 -4.34 11.34 -4 11 C-5.32 10.34 -6.64 9.68 -8 9 C-7.38125 8.938125 -6.7625 8.87625 -6.125 8.8125 C-3.75320779 8.18624774 -3.75320779 8.18624774 -2.875 5.625 C-2.441875 4.325625 -2.441875 4.325625 -2 3 C-1.34 2.01 -0.68 1.02 0 0 Z " fill="#D5D4D4" transform="translate(49,378)"/>
<path d="M0 0 C1.35158203 0.15275391 1.35158203 0.15275391 2.73046875 0.30859375 C3.41753906 0.39238281 4.10460937 0.47617187 4.8125 0.5625 C6.30390021 4.18447194 7.5999262 7.83816618 8.8125 11.5625 C5.41924716 13.82466856 4.43695451 13.73674972 0.5 13.5625 C-3.89526764 13.46405527 -7.03359236 14.07896156 -11.1875 15.5625 C-14.0625 15.1875 -14.0625 15.1875 -16.1875 14.5625 C-15.8575 13.5725 -15.5275 12.5825 -15.1875 11.5625 C-15.538125 10.7375 -15.88875 9.9125 -16.25 9.0625 C-16.559375 8.2375 -16.86875 7.4125 -17.1875 6.5625 C-16.5275 5.5725 -15.8675 4.5825 -15.1875 3.5625 C-12.0625 3.375 -12.0625 3.375 -9.1875 3.5625 C-8.8575 2.5725 -8.5275 1.5825 -8.1875 0.5625 C-4.98734144 -0.50421952 -3.30205706 -0.38595472 0 0 Z " fill="#E6E6E5" transform="translate(36.1875,335.4375)"/>
<path d="M0 0 C0.33 0 0.66 0 1 0 C1.33 6.27 1.66 12.54 2 19 C3.32 19.33 4.64 19.66 6 20 C8.97856458 21.303122 11.65156506 22.73543774 14 25 C14 26.65 14 28.3 14 30 C9.71 30 5.42 30 1 30 C0.08788499 26.35153995 -0.11589698 23.64298469 -0.09765625 19.921875 C-0.09443359 18.76171875 -0.09121094 17.6015625 -0.08789062 16.40625 C-0.07951172 15.1996875 -0.07113281 13.993125 -0.0625 12.75 C-0.05798828 11.52796875 -0.05347656 10.3059375 -0.04882812 9.046875 C-0.03704815 6.03120054 -0.02059853 3.01562502 0 0 Z " fill="#B8B6B7" transform="translate(145,371)"/>
<path d="M0 0 C-0.33 0.66 -0.66 1.32 -1 2 C-4.0625 2.625 -4.0625 2.625 -7 3 C-6.67 5.64 -6.34 8.28 -6 11 C-6.66 11 -7.32 11 -8 11 C-7.01 12.32 -6.02 13.64 -5 15 C-5.639375 15.28875 -6.27875 15.5775 -6.9375 15.875 C-9.15206079 16.82823451 -9.15206079 16.82823451 -10 19 C-10.12375 18.21625 -10.2475 17.4325 -10.375 16.625 C-10.79117993 13.85942178 -10.79117993 13.85942178 -13 12 C-13.66 11.01 -14.32 10.02 -15 9 C-18.11332248 9.66868314 -18.11332248 9.66868314 -19.1875 12.0625 C-19.455625 12.701875 -19.72375 13.34125 -20 14 C-20.66 14 -21.32 14 -22 14 C-22 14.66 -22 15.32 -22 16 C-22.66 15.67 -23.32 15.34 -24 15 C-18.67346352 7.38796382 -10.60995147 -3.44233981 0 0 Z " fill="#D3D2D1" transform="translate(28,337)"/>
<path d="M0 0 C5.15464734 0.48324819 8.81550319 3.18610761 13 6 C12.34 7.65 11.68 9.3 11 11 C8.69 11.33 6.38 11.66 4 12 C4.66 14.31 5.32 16.62 6 19 C5.443125 18.38125 4.88625 17.7625 4.3125 17.125 C0.04444152 13.20300031 -4.35170437 12.66450537 -10 12 C-10 11.67 -10 11.34 -10 11 C-8.84371094 11.01740234 -8.84371094 11.01740234 -7.6640625 11.03515625 C-6.15972656 11.04869141 -6.15972656 11.04869141 -4.625 11.0625 C-3.12839844 11.07990234 -3.12839844 11.07990234 -1.6015625 11.09765625 C0.98432453 11.18006602 0.98432453 11.18006602 3 10 C2.690625 9.0925 2.38125 8.185 2.0625 7.25 C1.2727737 4.83436662 0.57050703 2.47219715 0 0 Z " fill="#CCCCCC" transform="translate(41,337)"/>
<path d="M0 0 C2.31 0 4.62 0 7 0 C8.25664978 2.90600261 9 4.79604584 9 8 C9.33 8.66 9.66 9.32 10 10 C7.36 10 4.72 10 2 10 C0.875 8.25 0.875 8.25 0 6 C0.875 3.75 0.875 3.75 2 2 C1.34 1.34 0.68 0.68 0 0 Z " fill="#EDEBEC" transform="translate(214,355)"/>
<path d="M0 0 C-2.28905883 4.09621053 -4.85655548 7.53415091 -8 11 C-8.66 11 -9.32 11 -10 11 C-10.33 8.69 -10.66 6.38 -11 4 C-9.68 3.67 -8.36 3.34 -7 3 C-7 2.34 -7 1.68 -7 1 C-4.53721199 -0.231394 -2.7204945 -0.07159196 0 0 Z " fill="#EDECEB" transform="translate(142,355)"/>
<path d="M0 0 C2.475 0.99 2.475 0.99 5 2 C4.525625 2.763125 4.05125 3.52625 3.5625 4.3125 C1.89893903 6.96410548 1.89893903 6.96410548 1 10 C-0.32 10 -1.64 10 -3 10 C-3 10.99 -3 11.98 -3 13 C-2.01 13.33 -1.02 13.66 0 14 C-3.68754757 13.50168276 -5.60490662 12.89932357 -8 10 C-7.401875 9.979375 -6.80375 9.95875 -6.1875 9.9375 C-3.588171 9.10465386 -3.588171 9.10465386 -2.3125 5.5625 C-1.879375 4.386875 -1.44625 3.21125 -1 2 C-0.67 1.34 -0.34 0.68 0 0 Z " fill="#CCCCCA" transform="translate(22,386)"/>
<path d="M0 0 C-0.66 0.61875 -1.32 1.2375 -2 1.875 C-4.2284549 3.75637427 -4.2284549 3.75637427 -4 6 C-0.7 6 2.6 6 6 6 C6 6.33 6 6.66 6 7 C4.08496326 7.22281874 2.16783494 7.42771076 0.25 7.625 C-0.81734375 7.74101562 -1.8846875 7.85703125 -2.984375 7.9765625 C-6.03792399 8.00029475 -7.46162421 7.61420985 -10 6 C-9.8125 3.625 -9.8125 3.625 -9 1 C-5.71803757 -0.95143712 -3.5838203 -1.32734085 0 0 Z " fill="#F0EEEF" transform="translate(90,374)"/>
<path d="M0 0 C0.7940625 -0.01417969 1.588125 -0.02835937 2.40625 -0.04296875 C4.5 0.1875 4.5 0.1875 6.5 2.1875 C4.87585622 2.38227739 3.25063577 2.56809458 1.625 2.75 C0.72007812 2.85441406 -0.18484375 2.95882813 -1.1171875 3.06640625 C-3.5 3.1875 -3.5 3.1875 -5.5 2.1875 C-5.5 10.1075 -5.5 18.0275 -5.5 26.1875 C-5.83 26.1875 -6.16 26.1875 -6.5 26.1875 C-6.5 17.9375 -6.5 9.6875 -6.5 1.1875 C-4.14653604 0.01076802 -2.6193967 0.02126134 0 0 Z " fill="#B4B4B4" transform="translate(386.5,335.8125)"/>
<path d="M0 0 C2.05078125 0.03255208 4.1015625 0.06510417 6.15234375 0.09765625 C6.46171875 0.88140625 6.77109375 1.66515625 7.08984375 2.47265625 C8.08109413 5.02095753 8.08109413 5.02095753 9.15234375 7.09765625 C8.20359375 6.74703125 7.25484375 6.39640625 6.27734375 6.03515625 C3.28174203 4.74738848 3.28174203 4.74738848 1.15234375 6.09765625 C1.15234375 5.10765625 1.15234375 4.11765625 1.15234375 3.09765625 C-0.82765625 4.08765625 -0.82765625 4.08765625 -2.84765625 5.09765625 C-2.84765625 0.15051037 -2.84765625 0.15051037 0 0 Z " fill="#CAC7C8" transform="translate(205.84765625,393.90234375)"/>
<path d="M0 0 C2.31 0.33 4.62 0.66 7 1 C5.93453047 3.13093906 4.70840281 4.36587557 3 6 C2.34 5.67 1.68 5.34 1 5 C1 8.3 1 11.6 1 15 C0.67 15 0.34 15 0 15 C0 10.05 0 5.1 0 0 Z " fill="#F0EEEF" transform="translate(146,218)"/>
<path d="M0 0 C2.29240007 0.05985379 4.58406206 0.14859027 6.875 0.25 C8.78925781 0.31960938 8.78925781 0.31960938 10.7421875 0.390625 C14 1 14 1 15.46875 2.90625 C16.08141997 5.32089045 15.82999255 6.67602086 15 9 C13.35 9 11.7 9 10 9 C11.32 8.67 12.64 8.34 14 8 C13.34 6.35 12.68 4.7 12 3 C10.20841511 2.97303635 8.41671527 2.95362083 6.625 2.9375 C5.12839844 2.92009766 5.12839844 2.92009766 3.6015625 2.90234375 C1.01567547 2.81993398 1.01567547 2.81993398 -1 4 C-0.67 2.68 -0.34 1.36 0 0 Z " fill="#B0ADB0" transform="translate(83,364)"/>
<path d="M0 0 C-1.65 0.66 -3.3 1.32 -5 2 C-4.67 3.32 -4.34 4.64 -4 6 C-4.66 6 -5.32 6 -6 6 C-6 6.66 -6 7.32 -6 8 C-6.99 8 -7.98 8 -9 8 C-9.08886184 4.80097361 -8.91058531 2.07322544 -8 -1 C-4.59745511 -2.2151946 -3.06748874 -1.86240388 0 0 Z " fill="#D3D2D2" transform="translate(86,374)"/>
<path d="M0 0 C0.33 0 0.66 0 1 0 C0.85973717 2.31284456 0.71264442 4.62527591 0.5625 6.9375 C0.48128906 8.22527344 0.40007812 9.51304687 0.31640625 10.83984375 C0 14 0 14 -1 15 C-1.36760731 17.32817964 -1.70241581 19.6618385 -2 22 C-2.33 22 -2.66 22 -3 22 C-3.41136629 14.12309743 -2.436168 7.49701701 0 0 Z " fill="#969696" transform="translate(3,353)"/>
<path d="M0 0 C0 0.66 0 1.32 0 2 C-1.65002828 3.35386936 -3.3174387 4.68678142 -5 6 C-5.33 6.66 -5.66 7.32 -6 8 C-5.34 8 -4.68 8 -4 8 C-4.33 8.99 -4.66 9.98 -5 11 C-5.66 11 -6.32 11 -7 11 C-7.66 10.01 -8.32 9.02 -9 8 C-9.99 8 -10.98 8 -12 8 C-7.25 4 -7.25 4 -5 4 C-5 3.34 -5 2.68 -5 2 C-2 0 -2 0 0 0 Z " fill="#BAB8B9" transform="translate(219,100)"/>
<path d="M0 0 C0.33 0.66 0.66 1.32 1 2 C2.65 1.34 4.3 0.68 6 0 C6 0.66 6 1.32 6 2 C4.68 2.33 3.36 2.66 2 3 C2.25561323 5.3431213 2.59270772 7.67843403 3 10 C3.66 10.33 4.32 10.66 5 11 C4.01 11.66 3.02 12.32 2 13 C2 12.34 2 11.68 2 11 C1.34 10.67 0.68 10.34 0 10 C0 6.7 0 3.4 0 0 Z " fill="#BDBBBB" transform="translate(129,356)"/>
<path d="M0 0 C2 2 2 2 2.23046875 4.05859375 C2.20919922 5.23615234 2.20919922 5.23615234 2.1875 6.4375 C2.17783203 7.61119141 2.17783203 7.61119141 2.16796875 8.80859375 C2 11 2 11 1 14 C-2.3 14 -5.6 14 -9 14 C-9 13.67 -9 13.34 -9 13 C-7.865625 12.87625 -6.73125 12.7525 -5.5625 12.625 C-4.386875 12.41875 -3.21125 12.2125 -2 12 C-0.78306124 9.56612247 -0.68040104 7.58161154 -0.4375 4.875 C-0.35371094 3.96492188 -0.26992187 3.05484375 -0.18359375 2.1171875 C-0.12300781 1.41851562 -0.06242188 0.71984375 0 0 Z " fill="#928D8D" transform="translate(206,407)"/>
<path d="M0 0 C0 1.65 0 3.3 0 5 C1.98 5 3.96 5 6 5 C6 5.33 6 5.66 6 6 C2.7 6 -0.6 6 -4 6 C-4.33 4.35 -4.66 2.7 -5 1 C-1.125 0 -1.125 0 0 0 Z " fill="#ADABAC" transform="translate(111,196)"/>
<path d="M0 0 C0.66 0.33 1.32 0.66 2 1 C2.625 3.0625 2.625 3.0625 3 5 C1.02 5.99 1.02 5.99 -1 7 C-1.99 6.34 -2.98 5.68 -4 5 C-2.25 1.125 -2.25 1.125 0 0 Z " fill="#EDEDEE" transform="translate(17,390)"/>
<path d="M0 0 C2.475 0.99 2.475 0.99 5 2 C4.67 3.32 4.34 4.64 4 6 C-0.29 5.34 -4.58 4.68 -9 4 C-9 3.67 -9 3.34 -9 3 C-4.545 2.505 -4.545 2.505 0 2 C0 1.34 0 0.68 0 0 Z " fill="#ACACAC" transform="translate(223,362)"/>
<path d="M0 0 C-0.66 1.65 -1.32 3.3 -2 5 C-3.875 4.6875 -3.875 4.6875 -6 4 C-6.66 3.01 -7.32 2.02 -8 1 C-2.25 -1.125 -2.25 -1.125 0 0 Z " fill="#EEEDEE" transform="translate(312,356)"/>
<path d="M0 0 C4.29 0 8.58 0 13 0 C13 0.99 13 1.98 13 3 C11.20759337 2.88610125 9.41605165 2.75852313 7.625 2.625 C6.12839844 2.52058594 6.12839844 2.52058594 4.6015625 2.4140625 C2 2 2 2 0 0 Z " fill="#AAA7A9" transform="translate(351,217)"/>
<path d="M0 0 C1.32 0.66 2.64 1.32 4 2 C3.34 3.32 2.68 4.64 2 6 C1.34 5.34 0.68 4.68 0 4 C-0.99 4.495 -0.99 4.495 -2 5 C-4.125 4.5625 -4.125 4.5625 -6 4 C-4.02 2.68 -2.04 1.36 0 0 Z " fill="#B9B7B8" transform="translate(255,73)"/>
<path d="M0 0 C1.32 0 2.64 0 4 0 C4.12375 0.639375 4.2475 1.27875 4.375 1.9375 C4.684375 2.9584375 4.684375 2.9584375 5 4 C5.66 4.33 6.32 4.66 7 5 C6.67 5.99 6.34 6.98 6 8 C1.125 3.375 1.125 3.375 0 0 Z " fill="#CCCBCA" transform="translate(248,390)"/>
<path d="M0 0 C0.66 0 1.32 0 2 0 C2.33 0.99 2.66 1.98 3 3 C1.64002141 5.71995718 -0.34062482 6.67031241 -3 8 C-2.25 2.25 -2.25 2.25 0 0 Z " fill="#F1EFF0" transform="translate(236,148)"/>
<path d="M0 0 C0.66 0 1.32 0 2 0 C2 0.66 2 1.32 2 2 C1.34 2 0.68 2 0 2 C-0.4021875 3.2065625 -0.4021875 3.2065625 -0.8125 4.4375 C-1.204375 5.283125 -1.59625 6.12875 -2 7 C-2.99 7.33 -3.98 7.66 -5 8 C-5.33 7.34 -5.66 6.68 -6 6 C-4 4 -2 2 0 0 Z " fill="#B0AFB0" transform="translate(196,115)"/>
<path d="M0 0 C0.66 0 1.32 0 2 0 C3.625 2 3.625 2 5 4 C3.33333333 5.66666667 1.66666667 7.33333333 0 9 C-0.84454356 5.62182575 -1.10844919 3.32534757 0 0 Z " fill="#C1C0C1" transform="translate(207,364)"/>
<path d="M0 0 C0.66 0 1.32 0 2 0 C2.28571429 8.57142857 2.28571429 8.57142857 0 12 C0 9.36 0 6.72 0 4 C-0.66 3.67 -1.32 3.34 -2 3 C-1.34 2.01 -0.68 1.02 0 0 Z " fill="#ABAAAA" transform="translate(158,219)"/>
<path d="M0 0 C0.33 0 0.66 0 1 0 C1 1.98 1 3.96 1 6 C0.67 6 0.34 6 0 6 C0 4.02 0 2.04 0 0 Z M-4 6 C-2.0625 6.375 -2.0625 6.375 0 7 C0.33 7.66 0.66 8.32 1 9 C-1.64 9 -4.28 9 -7 9 C-6.01 8.67 -5.02 8.34 -4 8 C-4 7.34 -4 6.68 -4 6 Z " fill="#F2F0F1" transform="translate(205,411)"/>
<path d="M0 0 C1.875 0.5625 1.875 0.5625 4 2 C5.25 5.625 5.25 5.625 6 9 C5.01 8.67 4.02 8.34 3 8 C3 6.35 3 4.7 3 3 C1.68 3 0.36 3 -1 3 C-0.67 2.01 -0.34 1.02 0 0 Z " fill="#B3B3B3" transform="translate(58,351)"/>
<path d="M0 0 C1 2 1 2 0.3125 4.5 C-1.15567038 7.29651501 -2.09303901 7.93411431 -5 9 C-3.90931332 5.22454612 -3.0916909 2.52956528 0 0 Z " fill="#B2B1B0" transform="translate(245,120)"/>
<path d="M0 0 C1.32 0.66 2.64 1.32 4 2 C3.34 3.32 2.68 4.64 2 6 C1.01 5.67 0.02 5.34 -1 5 C-0.67 3.35 -0.34 1.7 0 0 Z " fill="#C5C5C5" transform="translate(310,113)"/>
<path d="M0 0 C1.32 1.32 2.64 2.64 4 4 C3.01 4.495 3.01 4.495 2 5 C1.34 4.67 0.68 4.34 0 4 C-0.33 4.99 -0.66 5.98 -1 7 C-1.66 6.67 -2.32 6.34 -3 6 C-3 5.34 -3 4.68 -3 4 C-2.34 4 -1.68 4 -1 4 C-0.67 2.68 -0.34 1.36 0 0 Z " fill="#C1C1C1" transform="translate(260,384)"/>
<path d="M0 0 C0.66 0.33 1.32 0.66 2 1 C1.34 2.98 0.68 4.96 0 7 C-1.32 6.34 -2.64 5.68 -4 5 C-2.68 3.35 -1.36 1.7 0 0 Z " fill="#F0EFF0" transform="translate(77,375)"/>
<path d="M0 0 C-1.98 0.99 -1.98 0.99 -4 2 C-4 2.99 -4 3.98 -4 5 C-4.66 5 -5.32 5 -6 5 C-6.33 3.35 -6.66 1.7 -7 0 C-3.98968256 -0.93423645 -3.13349732 -1.04449911 0 0 Z " fill="#EFEEEF" transform="translate(52,349)"/>
<path d="M0 0 C0.66 0.33 1.32 0.66 2 1 C0.02 3.31 -1.96 5.62 -4 8 C-4.66 7.67 -5.32 7.34 -6 7 C-4.02 4.69 -2.04 2.38 0 0 Z " fill="#818181" transform="translate(241,227)"/>
<path d="M0 0 C1.32 0.66 2.64 1.32 4 2 C3.67 3.32 3.34 4.64 3 6 C3 5.01 3 4.02 3 3 C1.02 3.99 1.02 3.99 -1 5 C-1 1 -1 1 0 0 Z " fill="#B8B8B8" transform="translate(204,394)"/>
<path d="M0 0 C1.125 1.5625 1.125 1.5625 2 4 C1.125 7.75 1.125 7.75 0 11 C-0.66 10.67 -1.32 10.34 -2 10 C-1.34 7.69 -0.68 5.38 0 3 C-0.66 2.67 -1.32 2.34 -2 2 C-1.34 1.34 -0.68 0.68 0 0 Z " fill="#F1EFF0" transform="translate(307,362)"/>
<path d="M0 0 C0.99 0 1.98 0 3 0 C3 0.66 3 1.32 3 2 C5.31 2 7.62 2 10 2 C10 2.33 10 2.66 10 3 C7.36 3.66 4.72 4.32 2 5 C1.34 3.35 0.68 1.7 0 0 Z " fill="#B2B1B1" transform="translate(307,361)"/>
<path d="M0 0 C0 3.10551666 -0.5393715 4.35261084 -2 7 C-2.66 7 -3.32 7 -4 7 C-4 7.66 -4 8.32 -4 9 C-4.66 8.67 -5.32 8.34 -6 8 C-4.02 5.36 -2.04 2.72 0 0 Z " fill="#9B9B9B" transform="translate(10,344)"/>
<path d="M0 0 C2.97 1.98 2.97 1.98 6 4 C5.67 4.99 5.34 5.98 5 7 C3.0625 6.3125 3.0625 6.3125 1 5 C0.25 2.375 0.25 2.375 0 0 Z " fill="#9C9A9B" transform="translate(315,116)"/>
<path d="M0 0 C3.3 0.33 6.6 0.66 10 1 C10 1.33 10 1.66 10 2 C9.06027344 2.09087891 9.06027344 2.09087891 8.1015625 2.18359375 C7.28429687 2.26738281 6.46703125 2.35117187 5.625 2.4375 C4.81289062 2.51871094 4.00078125 2.59992188 3.1640625 2.68359375 C0.95727195 2.89090114 0.95727195 2.89090114 -1 4 C-0.67 2.68 -0.34 1.36 0 0 Z " fill="#999898" transform="translate(83,364)"/>
<path d="M0 0 C-1 2 -1 2 -2.9375 2.6875 C-5 3 -5 3 -7 2 C-7 1.34 -7 0.68 -7 0 C-3.86650268 -1.04449911 -3.01031744 -0.93423645 0 0 Z " fill="#B1AFAE" transform="translate(28,337)"/>
<path d="M0 0 C1.8871875 0.0309375 1.8871875 0.0309375 3.8125 0.0625 C1.48035852 1.26878008 -0.68392139 2.2279738 -3.1875 3.0625 C-5.375 2.125 -5.375 2.125 -7.1875 1.0625 C-4.43671116 0.14557039 -2.82801087 -0.04636083 0 0 Z " fill="#908F8E" transform="translate(255.1875,222.9375)"/>
</svg>
