<?xml version="1.0" encoding="UTF-8"?>
<svg version="1.1" xmlns="http://www.w3.org/2000/svg" width="1024" height="1024">
<path d="M0 0 C337.92 0 675.84 0 1024 0 C1024 337.92 1024 675.84 1024 1024 C686.08 1024 348.16 1024 0 1024 C0 686.08 0 348.16 0 0 Z " fill="#EFEFEF" transform="translate(0,0)"/>
<path d="M0 0 C3.02085205 1.13085817 5.46378377 3.02496374 8.03662109 4.92651367 C8.94202637 5.5842981 8.94202637 5.5842981 9.86572266 6.25537109 C11.9074255 7.74246442 13.94136241 9.23972019 15.97412109 10.73901367 C16.70679199 11.27816406 17.43946289 11.81731445 18.19433594 12.37280273 C21.35000743 14.69534468 24.50444402 17.01952503 27.65527344 19.34863281 C33.12966737 23.39300104 38.63507577 27.3912861 44.16162109 31.36401367 C50.47549134 35.90510132 56.72012973 40.52738049 62.92700195 45.21337891 C67.97900858 49.01757435 73.09069149 52.73313202 78.22412109 56.42651367 C79.72676324 57.51239862 81.22936832 58.59833485 82.73193359 59.68432617 C85.40256462 61.61291448 88.08461574 63.52321028 90.77880859 65.41870117 C91.88590465 66.21251863 92.99269887 67.0067573 94.09912109 67.80151367 C95.05044922 68.47311523 96.00177734 69.1447168 96.98193359 69.83666992 C97.63935547 70.46444336 98.29677734 71.0922168 98.97412109 71.73901367 C98.97412109 76.44340715 97.44515607 78.42351956 94.72412109 81.98901367 C94.32837891 82.54331055 93.93263672 83.09760742 93.52490234 83.66870117 C92.33349609 85.25463867 92.33349609 85.25463867 89.97412109 87.73901367 C85.97412109 87.73901367 85.97412109 87.73901367 81.97412109 84.73901367 C81.97412109 99.25901367 81.97412109 113.77901367 81.97412109 128.73901367 C86.77160889 128.56619873 86.77160889 128.56619873 91.66601562 128.38989258 C102.27339875 128.02417244 112.88107288 127.78190515 123.49310493 127.59914589 C129.92394407 127.48464809 136.34829036 127.32964039 142.77539062 127.0793457 C148.98762595 126.83895351 155.19365402 126.70851922 161.41018295 126.65171432 C163.77203064 126.61128625 166.13356441 126.53231123 168.49274063 126.41295242 C183.50412163 125.6842031 183.50412163 125.6842031 189.97412109 128.73901367 C195.82611147 134.08654026 199.33056755 141.07518898 202.70479584 148.1462183 C204.36454543 151.53651644 206.32476141 154.58607285 208.41943359 157.72338867 C209.03560547 158.68929932 209.65177734 159.65520996 210.28662109 160.65039062 C210.88474609 161.58713623 211.48287109 162.52388184 212.09912109 163.48901367 C212.75654297 164.52050537 213.41396484 165.55199707 214.09130859 166.61474609 C217.2222162 171.51020228 220.38313062 176.37699859 223.65380859 181.18041992 C224.49854736 182.4232373 224.49854736 182.4232373 225.36035156 183.69116211 C226.40550372 185.21983549 227.45873327 186.74303033 228.52148438 188.25952148 C229.20960205 189.26450684 229.20960205 189.26450684 229.91162109 190.28979492 C230.31251953 190.86383057 230.71341797 191.43786621 231.12646484 192.02929688 C231.97412109 193.73901367 231.97412109 193.73901367 231.97412109 197.73901367 C226.03412109 197.73901367 220.09412109 197.73901367 213.97412109 197.73901367 C213.97412109 244.92901367 213.97412109 292.11901367 213.97412109 340.73901367 C220.24412109 340.73901367 226.51412109 340.73901367 232.97412109 340.73901367 C232.97412109 347.00901367 232.97412109 353.27901367 232.97412109 359.73901367 C78.53412109 359.73901367 -75.90587891 359.73901367 -235.02587891 359.73901367 C-235.02587891 353.46901367 -235.02587891 347.19901367 -235.02587891 340.73901367 C-228.75587891 340.73901367 -222.48587891 340.73901367 -216.02587891 340.73901367 C-216.02587891 293.54901367 -216.02587891 246.35901367 -216.02587891 197.73901367 C-221.96587891 197.73901367 -227.90587891 197.73901367 -234.02587891 197.73901367 C-234.02587891 192.96274358 -232.35385859 190.58437526 -229.83837891 186.73901367 C-229.39204102 186.04114746 -228.94570313 185.34328125 -228.48583984 184.62426758 C-227.00932559 182.32246383 -225.51893977 180.03011438 -224.02587891 177.73901367 C-223.00363681 176.16356205 -221.98150269 174.58804037 -220.95947266 173.01245117 C-219.35705879 170.54496695 -217.75283637 168.07872407 -216.14428711 165.61523438 C-211.28837378 158.17367712 -206.52012899 150.67789371 -201.78271484 143.16040039 C-201.23389648 142.29302246 -200.68507813 141.42564453 -200.11962891 140.53198242 C-199.64203125 139.77425537 -199.16443359 139.01652832 -198.67236328 138.23583984 C-198.12902344 137.41188721 -197.58568359 136.58793457 -197.02587891 135.73901367 C-196.73241986 135.16245655 -196.43896082 134.58589943 -196.13660908 133.99187088 C-194.45718145 131.05796326 -193.19744193 129.0832694 -189.86167717 128.10307789 C-187.09709812 127.87537462 -184.4092361 127.8733024 -181.63598633 127.94433594 C-180.59162415 127.94331375 -179.54726196 127.94229156 -178.47125244 127.9412384 C-175.02357729 127.94611048 -171.57855935 128.0005384 -168.13134766 128.05541992 C-165.7395421 128.06847735 -163.34771781 128.07844083 -160.95588684 128.08543396 C-154.66387137 128.11214741 -148.372989 128.18090106 -142.0814209 128.25836182 C-135.66006804 128.32999839 -129.23853189 128.36194653 -122.81689453 128.3972168 C-110.21931165 128.47226692 -97.62286682 128.59538901 -85.02587891 128.73901367 C-85.02587891 114.21901367 -85.02587891 99.69901367 -85.02587891 84.73901367 C-86.67587891 85.72901367 -88.32587891 86.71901367 -90.02587891 87.73901367 C-91.86837096 85.64228164 -93.69981868 83.53747519 -95.52587891 81.42651367 C-96.05052734 80.83161133 -96.57517578 80.23670898 -97.11572266 79.6237793 C-101.02587891 75.07885742 -101.02587891 75.07885742 -101.02587891 71.73901367 C-99.65917969 70.41137695 -99.65917969 70.41137695 -97.72119141 69.05932617 C-97.0019751 68.54958252 -96.28275879 68.03983887 -95.54174805 67.51464844 C-94.75276123 66.96993896 -93.96377441 66.42522949 -93.15087891 65.86401367 C-91.48535574 64.68845708 -89.81999552 63.51266957 -88.15478516 62.33666992 C-87.29900879 61.73741699 -86.44323242 61.13816406 -85.56152344 60.52075195 C-81.71194839 57.81574534 -77.89975396 55.05995722 -74.08837891 52.30151367 C-72.98067139 51.50221436 -72.98067139 51.50221436 -71.85058594 50.68676758 C-65.57955038 46.15670708 -59.35322928 41.56728003 -53.1315918 36.96972656 C-47.05844683 32.48676786 -40.94624624 28.06053288 -34.81958008 23.65112305 C-28.33816821 18.9798866 -21.90352453 14.2466152 -15.48095703 9.49487305 C-14.01656908 8.41216745 -12.54941161 7.33319457 -11.07910156 6.25854492 C-9.72449179 5.25603705 -8.38496136 4.23278285 -7.0625 3.18823242 C-2.51187707 -0.32359564 -2.51187707 -0.32359564 0 0 Z " fill="#111111" transform="translate(513.02587890625,232.260986328125)"/>
<path d="M0 0 C4.59239285 2.52209869 8.69683099 5.17030894 12.8125 8.4375 C18.11280229 12.59707136 23.52234808 16.57735388 29 20.5 C35.41011875 25.09802362 41.71738968 29.79541997 47.9453125 34.63671875 C52.16982939 37.90504704 56.45077265 41.09488173 60.734375 44.28515625 C63 46 63 46 64 47 C64.09665268 48.44392944 64.12371812 49.89257739 64.12304783 51.33973789 C64.12503888 52.28224575 64.12702993 53.2247536 64.12908131 54.1958223 C64.12616847 55.2434655 64.12325563 56.2911087 64.12025452 57.37049866 C64.12153615 59.025619 64.12153615 59.025619 64.12284368 60.71417612 C64.12450172 64.44236071 64.11897183 68.17050113 64.11352539 71.89868164 C64.11324356 74.55889488 64.11335705 77.21910534 64.1139679 79.87931824 C64.11449332 85.62242662 64.11134458 91.36552369 64.10573006 97.10862923 C64.09761757 105.41228815 64.0950001 113.71594157 64.09374207 122.01960402 C64.09155115 135.49036738 64.08488999 148.96112469 64.07543945 162.43188477 C64.06626636 175.52075164 64.05918502 188.60961689 64.05493164 201.69848633 C64.05466892 202.50471241 64.05440619 203.31093849 64.05413551 204.14159567 C64.05283051 208.18602426 64.05156679 212.23045287 64.05032361 216.27488148 C64.03994976 249.84992555 64.02205597 283.42496161 64 317 C54.1 317 44.2 317 34 317 C34.00112793 314.6394043 34.00225586 312.27880859 34.00341797 309.84667969 C34.00278768 302.00748109 33.96916292 294.16866672 33.9197216 286.32963181 C33.89076996 281.58127612 33.87259614 276.83341026 33.87988281 272.08496094 C33.88651752 267.49394847 33.86375792 262.90390039 33.82144547 258.31308746 C33.81038743 256.57023811 33.80954745 254.82729008 33.81957626 253.08443451 C33.8783879 241.35047738 32.98562345 231.84581575 24.88302612 222.57879639 C17.91223926 215.57929962 9.22030299 211.79656399 -0.625 211.4375 C-10.52187126 211.85233891 -19.36925723 215.89398666 -26.125 223.1875 C-32.07570345 230.43455092 -34.13034681 238.33039104 -34.20532227 247.52246094 C-34.22017166 248.6498745 -34.22017166 248.6498745 -34.23532104 249.80006409 C-34.26684466 252.27813596 -34.29165723 254.75622698 -34.31640625 257.234375 C-34.33698367 258.95502209 -34.35798036 260.6756642 -34.37937927 262.39630127 C-34.43451851 266.92047092 -34.48396367 271.44468557 -34.53222656 275.96893311 C-34.58250113 280.5874023 -34.63815609 285.2058063 -34.69335938 289.82421875 C-34.8008413 298.88275883 -34.901811 307.94135442 -35 317 C-44.57 317 -54.14 317 -64 317 C-64.29402515 282.77399563 -64.52669956 248.54843421 -64.66384928 214.32144032 C-64.68010802 210.27858179 -64.69693426 206.23572582 -64.71411133 202.19287109 C-64.71752136 201.38802821 -64.7209314 200.58318533 -64.72444477 199.75395326 C-64.78097744 186.73026113 -64.88345605 173.7073167 -65.00298635 160.6840678 C-65.12465588 147.31601949 -65.19678453 133.94836211 -65.22315043 120.57978284 C-65.24096901 112.33339905 -65.29718925 104.08912861 -65.40291407 95.84339564 C-65.47175766 90.18508699 -65.49237492 84.52786696 -65.47551791 78.86917014 C-65.46720669 75.6056059 -65.48687486 72.3464918 -65.54967117 69.08341599 C-65.92696026 48.46520769 -65.92696026 48.46520769 -61.16499901 43.30120468 C-58.06922015 40.63240504 -54.66055383 38.80984816 -51 37 C-49.47632255 35.93362099 -47.96843344 34.84324119 -46.49609375 33.70703125 C-45.14440681 32.74053838 -43.79153464 31.77570104 -42.4375 30.8125 C-35.78477737 26.04770245 -29.21770295 21.18120943 -22.6875 16.25 C-15.25018381 10.63741819 -7.72904094 5.20440896 0 0 Z " fill="#EFEFEF" transform="translate(512,256)"/>
<path d="M0 0 C37.29 0 74.58 0 113 0 C113 47.19 113 94.38 113 143 C75.71 143 38.42 143 0 143 C0 95.81 0 48.62 0 0 Z " fill="#EFEFF0" transform="translate(595,430)"/>
<path d="M0 0 C36.96 0 73.92 0 112 0 C112 47.19 112 94.38 112 143 C75.04 143 38.08 143 0 143 C0 95.81 0 48.62 0 0 Z " fill="#EFEFEF" transform="translate(316,430)"/>
<path d="M0 0 C6.27 0 12.54 0 19 0 C19.33 12.54 19.66 25.08 20 38 C22.31 36.02 24.62 34.04 27 32 C33.72835357 28.29887069 43.62526634 29.04499278 50.98828125 30.65234375 C60.1220386 33.96208786 65.87725236 40.08512337 70.7734375 48.27734375 C75.06156452 57.79589323 75.65521051 69.40132595 73.125 79.48828125 C68.97727952 90.22596551 63.17419868 95.95853128 52.8671875 100.87109375 C45.7543133 103.67166683 37.9024415 104.49562911 30.6875 101.73046875 C22.86742874 97.86742874 22.86742874 97.86742874 20 95 C19.67 96.98 19.34 98.96 19 101 C12.73 101 6.46 101 0 101 C0 67.67 0 34.34 0 0 Z " fill="#121212" transform="translate(819,642)"/>
<path d="M0 0 C8.07216052 5.67826764 14.23061496 13.06691766 16 23 C16.7705512 37.25519718 15.94410348 48.86337347 6 60 C3.17674743 62.40762113 0.27442967 64.2654682 -3 66 C-3.61359375 66.33902344 -4.2271875 66.67804688 -4.859375 67.02734375 C-11.7540105 70.22421534 -20.49857731 70.25756078 -27.7265625 68.23828125 C-32.21235059 66.34044783 -35.08719101 64.13024719 -39 61 C-39.33 73.21 -39.66 85.42 -40 98 C-45.94 98 -51.88 98 -58 98 C-58 65 -58 32 -58 -2 C-52.06 -2.33 -46.12 -2.66 -40 -3 C-39.67 -0.36 -39.34 2.28 -39 5 C-38.57589844 4.60167969 -38.15179688 4.20335937 -37.71484375 3.79296875 C-26.94572253 -5.93474295 -12.89909772 -7.18553341 0 0 Z " fill="#111111" transform="translate(476,676)"/>
<path d="M0 0 C4.10054107 2.43694437 7.4276199 5.70496365 10.78125 9.05859375 C11.1215625 8.5996875 11.461875 8.14078125 11.8125 7.66796875 C15.49536523 3.00561809 18.92244135 -0.42479631 24.78125 -1.94140625 C34.81835885 -2.90883843 43.24806391 -2.56633096 51.46875 3.62109375 C56.83114974 8.51719786 60.52121306 16.07800051 60.90150452 23.36187744 C60.89928391 24.20570984 60.89706329 25.04954224 60.89477539 25.91894531 C60.89466209 27.35998627 60.89466209 27.35998627 60.89454651 28.83013916 C60.88938522 29.85943542 60.88422394 30.88873169 60.87890625 31.94921875 C60.8774913 33.00896912 60.87607635 34.06871948 60.87461853 35.1605835 C60.86902382 38.54328237 60.85647225 41.9259149 60.84375 45.30859375 C60.83873432 47.60286363 60.83417153 49.89713454 60.83007812 52.19140625 C60.81905611 57.81382762 60.80179507 63.43619944 60.78125 69.05859375 C54.51125 69.05859375 48.24125 69.05859375 41.78125 69.05859375 C41.72517578 64.39863281 41.72517578 64.39863281 41.66796875 59.64453125 C41.62171906 56.62606889 41.57049786 53.60772884 41.51879883 50.58935547 C41.48560451 48.49633251 41.45755555 46.40322122 41.43481445 44.31005859 C41.40116769 41.29616763 41.34884607 38.28308212 41.29296875 35.26953125 C41.28657883 34.33805267 41.2801889 33.4065741 41.27360535 32.4468689 C41.15693499 27.2572788 40.70293598 23.5309438 37.78125 19.05859375 C34.53718838 16.25690417 32.54631 15.15422625 28.28125 14.62109375 C23.67162916 15.19729635 20.30553547 16.38002311 17.13639832 19.86993408 C15.56097167 22.41435872 15.38881079 23.856071 15.34887695 26.82714844 C15.32908279 27.76782166 15.30928864 28.70849487 15.28889465 29.67767334 C15.28250473 30.68509583 15.27611481 31.69251831 15.26953125 32.73046875 C15.24260445 34.28680023 15.24260445 34.28680023 15.21513367 35.87457275 C15.16098623 39.18587185 15.12712015 42.49702642 15.09375 45.80859375 C15.06058091 48.05470763 15.02609164 50.30080243 14.99023438 52.546875 C14.9052569 58.05067706 14.83846644 63.55443591 14.78125 69.05859375 C8.51125 69.05859375 2.24125 69.05859375 -4.21875 69.05859375 C-4.2280957 67.72683105 -4.23744141 66.39506836 -4.24707031 65.02294922 C-4.28702472 60.06899912 -4.35279934 55.11566645 -4.42626953 50.16210938 C-4.45444744 48.02058866 -4.47567775 45.87896457 -4.48974609 43.73730469 C-4.51121925 40.65375968 -4.55789317 37.57145357 -4.609375 34.48828125 C-4.61060364 33.53492889 -4.61183228 32.58157654 -4.61309814 31.59933472 C-4.74043763 25.78418678 -5.41171708 22.52252993 -9.21875 18.05859375 C-12.68067259 15.17365826 -15.70376827 14.52373625 -20.22265625 14.703125 C-23.57333518 15.29982125 -25.67498604 16.87822464 -28.21875 19.05859375 C-30.04715131 22.01234142 -30.48075181 24.28670375 -30.53759766 27.73535156 C-30.55746735 28.65600403 -30.57733704 29.57665649 -30.59780884 30.52520752 C-30.61513565 32.00353058 -30.61513565 32.00353058 -30.6328125 33.51171875 C-30.65217865 34.52707703 -30.6715448 35.5424353 -30.6914978 36.58856201 C-30.75123099 39.8284874 -30.79765428 43.06844843 -30.84375 46.30859375 C-30.88193551 48.50652583 -30.92098758 50.70444303 -30.9609375 52.90234375 C-31.05692755 58.28763949 -31.14098205 63.67300529 -31.21875 69.05859375 C-37.48875 69.05859375 -43.75875 69.05859375 -50.21875 69.05859375 C-50.21875 45.95859375 -50.21875 22.85859375 -50.21875 -0.94140625 C-44.27875 -0.94140625 -38.33875 -0.94140625 -32.21875 -0.94140625 C-31.88875 2.02859375 -31.55875 4.99859375 -31.21875 8.05859375 C-29.919375 6.41890625 -29.919375 6.41890625 -28.59375 4.74609375 C-21.37524876 -3.4893326 -9.93375278 -4.39863206 0 0 Z " fill="#111111" transform="translate(346.21875,673.94140625)"/>
<path d="M0 0 C6.27 0 12.54 0 19 0 C19 13.2 19 26.4 19 40 C33.52 40 48.04 40 63 40 C63 26.8 63 13.6 63 0 C69.27 0 75.54 0 82 0 C82 32.34 82 64.68 82 98 C75.73 98 69.46 98 63 98 C63 84.8 63 71.6 63 58 C48.48 58 33.96 58 19 58 C19 71.2 19 84.4 19 98 C12.73 98 6.46 98 0 98 C0 65.66 0 33.32 0 0 Z " fill="#101010" transform="translate(646,645)"/>
<path d="M0 0 C8.56586615 6.46900671 13.96357393 14.65436745 17.59008789 24.69702148 C17.59008789 25.35702148 17.59008789 26.01702148 17.59008789 26.69702148 C-1.3631169 28.17418972 -1.3631169 28.17418972 -5.89428711 24.90405273 C-7.29090319 22.56197465 -8.32572805 20.19553588 -9.40991211 17.69702148 C-11.02638532 15.80412817 -11.02638532 15.80412817 -12.90991211 14.25952148 C-13.69881836 13.58083008 -13.69881836 13.58083008 -14.50366211 12.88842773 C-21.51101486 8.50883226 -30.43343083 8.72358593 -38.40991211 9.69702148 C-45.82522869 11.75949634 -51.2616637 16.28209092 -55.40991211 22.69702148 C-60.30036494 31.73782895 -60.90982755 41.88841657 -58.71459961 51.85327148 C-55.90389976 60.4507063 -51.79552594 65.61916719 -43.97241211 70.13452148 C-36.17874461 73.75024036 -27.96861039 74.1935941 -19.66772461 71.95874023 C-11.64070208 68.67495829 -7.77178131 64.33029258 -3.40991211 56.69702148 C3.85008789 56.69702148 11.11008789 56.69702148 18.59008789 56.69702148 C14.78290817 69.07035557 7.49882698 79.79264975 -4.07788086 86.16577148 C-16.55198642 92.0845195 -31.77929176 94.50655282 -45.35131836 90.78686523 C-59.38742599 85.63311143 -69.5583472 76.94199195 -76.40991211 63.69702148 C-81.9576805 51.69484552 -81.66568033 37.34219268 -78.40991211 24.69702148 C-72.85879169 10.21995176 -64.3988364 0.38495342 -50.40991211 -6.30297852 C-49.65581055 -6.66391602 -48.90170898 -7.02485352 -48.12475586 -7.39672852 C-32.19219428 -13.46627578 -13.45432666 -9.54804032 0 0 Z " fill="#121212" transform="translate(193.409912109375,653.302978515625)"/>
<path d="M0 0 C7.45892618 4.61352734 11.07153702 10.15206225 13.48828125 18.5390625 C13.97511756 22.45411658 13.95864196 26.29414754 13.87890625 30.234375 C13.87324646 31.30783173 13.86758667 32.38128845 13.86175537 33.48727417 C13.83955536 36.88001125 13.78938922 40.2716504 13.73828125 43.6640625 C13.71819512 45.9791513 13.69994807 48.29425683 13.68359375 50.609375 C13.63974419 56.25302033 13.57083069 61.89585596 13.48828125 67.5390625 C7.54828125 67.5390625 1.60828125 67.5390625 -4.51171875 67.5390625 C-4.84171875 65.8890625 -5.17171875 64.2390625 -5.51171875 62.5390625 C-6.17171875 63.1371875 -6.83171875 63.7353125 -7.51171875 64.3515625 C-14.79009615 69.65871269 -21.71698803 70.36393156 -30.51171875 69.5390625 C-37.61214548 68.30178249 -42.75927446 64.91624125 -47.51171875 59.5390625 C-50.59057195 54.34349772 -51.42869009 49.45862195 -50.51171875 43.5390625 C-47.73385884 35.2204175 -42.14252171 30.42383492 -34.51171875 26.5390625 C-31.19637157 25.45715245 -28.12707555 25.42367803 -24.65234375 25.44140625 C-23.53730469 25.44462891 -22.42226562 25.44785156 -21.2734375 25.45117188 C-20.11457031 25.45955078 -18.95570313 25.46792969 -17.76171875 25.4765625 C-16.58738281 25.48107422 -15.41304687 25.48558594 -14.203125 25.49023438 C-11.30593803 25.50201156 -8.40885421 25.51845924 -5.51171875 25.5390625 C-5.63804687 24.25902344 -5.764375 22.97898437 -5.89453125 21.66015625 C-5.96559082 20.94013428 -6.03665039 20.2201123 -6.10986328 19.47827148 C-6.37336594 17.3362309 -6.37336594 17.3362309 -8.38671875 15.6015625 C-13.60797937 12.99093219 -18.78349132 12.91934199 -24.51171875 13.5390625 C-28.1286315 15.63687189 -29.19463284 16.58780476 -30.51171875 20.5390625 C-36.78171875 20.5390625 -43.05171875 20.5390625 -49.51171875 20.5390625 C-47.41783702 11.11659471 -45.54638092 5.92815151 -37.51171875 0.6640625 C-26.54623026 -5.86954106 -11.27802236 -5.58441495 0 0 Z " fill="#121212" transform="translate(270.51171875,675.4609375)"/>
<path d="M0 0 C6.27 0 12.54 0 19 0 C19.01401855 2.0430835 19.01401855 2.0430835 19.02832031 4.12744141 C19.06826922 9.19320065 19.13404243 14.25835573 19.20751953 19.32373047 C19.2357006 21.51375553 19.25692934 23.70388177 19.27099609 25.89404297 C19.29246477 29.04707527 19.33913675 32.19889485 19.390625 35.3515625 C19.39185364 36.32678864 19.39308228 37.30201477 19.39434814 38.30679321 C19.51974902 44.16073414 20.12686949 47.52580433 24 52 C27.84843051 54.52896862 31.46086592 54.10380487 35.8515625 53.4765625 C40.63990927 52.41442013 43.41516375 50.05433225 46 46 C46.46549028 43.74785213 46.46549028 43.74785213 46.43237305 41.32324219 C46.45216721 40.40258972 46.47196136 39.48193726 46.49235535 38.53338623 C46.49874527 37.54783752 46.50513519 36.56228882 46.51171875 35.546875 C46.52966995 34.53151672 46.54762115 33.51615845 46.56611633 32.47003174 C46.62025707 29.23006328 46.65412762 25.99024247 46.6875 22.75 C46.72066969 20.55206277 46.75515902 18.35414504 46.79101562 16.15625 C46.87846799 10.77081162 46.93850575 5.38604775 47 0 C53.6 0 60.2 0 67 0 C67 23.1 67 46.2 67 70 C60.4 70 53.8 70 47 70 C46.505 66.535 46.505 66.535 46 63 C45.525625 63.7425 45.05125 64.485 44.5625 65.25 C40.54360487 69.56296063 36.13915583 71.59349061 30.28515625 72.3515625 C20.84294549 72.64290701 13.6610436 70.47891242 6.7265625 63.97265625 C2.2349529 58.84083985 -0.13028419 52.76509629 -0.11352539 45.9777832 C-0.11344986 44.95695145 -0.11337433 43.93611969 -0.11329651 42.88435364 C-0.10813522 41.78427475 -0.10297394 40.68419586 -0.09765625 39.55078125 C-0.0962413 38.4230278 -0.09482635 37.29527435 -0.09336853 36.13334656 C-0.0877647 32.52637088 -0.07521153 28.91945696 -0.0625 25.3125 C-0.05748549 22.86914152 -0.0529225 20.42578207 -0.04882812 17.98242188 C-0.03779403 11.98825741 -0.02052679 5.99413918 0 0 Z " fill="#151515" transform="translate(741,673)"/>
<path d="M0 0 C6.27 0 12.54 0 19 0 C19.01458252 1.3317627 19.02916504 2.66352539 19.04418945 4.03564453 C19.10228101 8.9895272 19.17951373 13.94296051 19.26245117 18.89648438 C19.29564938 21.0380116 19.32369714 23.17962524 19.34643555 25.32128906 C19.38007504 28.40467054 19.43239654 31.48726369 19.48828125 34.5703125 C19.49467117 35.52366486 19.5010611 36.47701721 19.50764465 37.45925903 C19.62256247 42.68712802 20.01486061 46.51229156 23 51 C27.34770215 53.96434238 30.79919588 54.62768326 36 54 C39.88167355 52.66791277 42.95519789 51.28223512 45.58032227 48.06054688 C47.63959446 43.62115973 47.47945042 39.50834532 47.51171875 34.66796875 C47.52966995 33.67622147 47.54762115 32.68447418 47.56611633 31.66267395 C47.62016968 28.50432549 47.65409952 25.34612775 47.6875 22.1875 C47.72067742 20.04229676 47.75516747 17.89711339 47.79101562 15.75195312 C47.87589354 10.5014109 47.94272882 5.25091299 48 0 C54.27 0 60.54 0 67 0 C67 23.1 67 46.2 67 70 C60.73 70 54.46 70 48 70 C47.505 66.04 47.505 66.04 47 62 C46.0409375 63.36125 46.0409375 63.36125 45.0625 64.75 C41.02118436 69.51378547 36.21136376 71.58094055 30.06640625 72.3828125 C20.71356473 72.74024593 13.42684379 70.08990629 6.50390625 63.77734375 C1.86093866 58.29020023 -0.13174294 51.11625904 -0.11352539 44.04785156 C-0.11344986 43.06713684 -0.11337433 42.08642212 -0.11329651 41.07598877 C-0.10813522 40.02481873 -0.10297394 38.97364868 -0.09765625 37.890625 C-0.0962413 36.80867859 -0.09482635 35.72673218 -0.09336853 34.61199951 C-0.08777318 31.1579715 -0.0752215 27.70400841 -0.0625 24.25 C-0.0574844 21.90755302 -0.0529216 19.56510502 -0.04882812 17.22265625 C-0.03780527 11.48174583 -0.02054379 5.74088392 0 0 Z " fill="#111111" transform="translate(500,673)"/>
<path d="M0 0 C5.98546441 3.68647893 11.00808163 9.20783863 13.24609375 15.921875 C13.37101645 18.00057443 13.44888582 20.08224013 13.5 22.1640625 C13.57637695 24.01064453 13.57637695 24.01064453 13.65429688 25.89453125 C13.75681591 28.48735448 13.83252465 31.08138224 13.88085938 33.67578125 C14.05500338 37.25977728 14.27928885 40.46384255 15.24609375 43.921875 C16.99072482 45.6196825 16.99072482 45.6196825 19.2109375 46.6171875 C20.54253906 47.37773437 21.87414062 48.13828125 23.24609375 48.921875 C24.23609375 54.366875 24.23609375 54.366875 25.24609375 59.921875 C1.81609375 59.921875 -21.61390625 59.921875 -45.75390625 59.921875 C-45.42390625 56.291875 -45.09390625 52.661875 -44.75390625 48.921875 C-40.75390625 46.171875 -40.75390625 46.171875 -38.56640625 45.3125 C-36.41681581 43.96740737 -36.41681581 43.96740737 -36.0234375 40.80078125 C-35.79086491 37.45375832 -35.61601287 34.12124842 -35.5144043 30.76855469 C-35.14455595 19.82896017 -33.26747831 11.06703235 -25.02734375 3.29296875 C-17.87614001 -2.47888296 -8.55436784 -3.348944 0 0 Z " fill="#111211" transform="translate(522.75390625,301.078125)"/>
<path d="M0 0 C4.52896958 3.65107149 7.06578184 6.90951373 8.71875 12.48828125 C8.71875 14.13828125 8.71875 15.78828125 8.71875 17.48828125 C2.77875 17.48828125 -3.16125 17.48828125 -9.28125 17.48828125 C-10.27125 15.50828125 -11.26125 13.52828125 -12.28125 11.48828125 C-15.62995986 8.85715207 -19.16113064 9.12686727 -23.28125 9.48828125 C-26.28280751 10.35474208 -26.28280751 10.35474208 -28.28125 12.48828125 C-28.69850678 16.11427547 -28.69850678 16.11427547 -28.28125 19.48828125 C-23.30845001 21.35308125 -18.58104661 22.66125798 -13.32910156 23.51782227 C-4.90459234 24.8968922 1.11798447 26.69800174 7.09375 32.98828125 C11.19120977 39.29206551 11.71536855 45.35116564 10.2890625 52.703125 C8.27741428 59.172685 4.23309744 62.57028146 -1.5859375 65.74609375 C-11.34318013 69.98708371 -23.32172914 70.1692261 -33.40625 66.86328125 C-40.61052482 63.73669157 -45.15619973 59.63482573 -48.65234375 52.61328125 C-49.28125 50.48828125 -49.28125 50.48828125 -49.28125 44.48828125 C-43.01125 44.48828125 -36.74125 44.48828125 -30.28125 44.48828125 C-29.29125 46.79828125 -28.30125 49.10828125 -27.28125 51.48828125 C-23.94076897 53.7152686 -22.74839419 53.75947335 -18.84375 53.73828125 C-17.89628906 53.7434375 -16.94882812 53.74859375 -15.97265625 53.75390625 C-13.20652592 53.48090645 -11.56832994 53.05312542 -9.28125 51.48828125 C-8.28125 48.57161458 -8.28125 48.57161458 -8.28125 45.48828125 C-10.60981788 41.99542944 -11.30490256 41.90845457 -15.21875 40.92578125 C-16.69988281 40.54873047 -16.69988281 40.54873047 -18.2109375 40.1640625 C-21.08275939 39.53196939 -23.93781694 39.05620837 -26.84375 38.61328125 C-33.77074667 37.41246951 -39.88968203 34.93818014 -44.84375 29.86328125 C-47.3312075 25.75356885 -47.47081415 22.40488642 -47.53125 17.67578125 C-47.55703125 16.47308594 -47.5828125 15.27039063 -47.609375 14.03125 C-47.12346159 8.78454211 -45.18969482 4.78389501 -41.21875 1.30078125 C-30.44286525 -7.23479482 -11.37998632 -7.54118956 0 0 Z " fill="#121212" transform="translate(625.28125,676.51171875)"/>
<path d="M0 0 C5.70201862 2.15552885 9.08995159 5.64551092 12 11 C14.00370283 17.01110849 14.2194415 24.55718026 12.09375 30.55859375 C9.20698524 35.45314041 5.44688962 38.62124415 0.125 40.75 C-7.07558484 41.59712763 -11.94008865 41.12991731 -18 37 C-22.55246573 32.44753427 -25.13056673 27.01776045 -25.375 20.5625 C-25.1370244 14.48894888 -23.5522168 9.83815148 -19.625 5.1875 C-13.22935966 -0.14220028 -8.22828427 -1.13125568 0 0 Z " fill="#EFEFEF" transform="translate(460,688)"/>
<path d="M0 0 C5.07544727 2.69152507 8.60766739 7.00135396 10.7421875 12.26953125 C11.48277822 19.26208545 11.80402906 26.46437707 8.0859375 32.65234375 C4.64135129 36.7978632 0.18996221 39.85471023 -5.23828125 40.5078125 C-12.172544 40.7410001 -16.9674092 39.33542942 -22.08984375 34.5625 C-26.87176495 28.70548644 -27.22007667 22.30102785 -26.77734375 15.03125 C-25.86719254 8.44120774 -23.32109215 5.3328109 -18.7578125 0.76953125 C-12.87912327 -1.74990699 -6.13040802 -1.9833673 0 0 Z " fill="#EEEEEE" transform="translate(863.2578125,688.73046875)"/>
<path d="M0 0 C36.96 0 73.92 0 112 0 C112 47.19 112 94.38 112 143 C75.04 143 38.08 143 0 143 C0 95.81 0 48.62 0 0 Z M2 1 C2 47.2 2 93.4 2 141 C37.97 141 73.94 141 111 141 C111 94.8 111 48.6 111 1 C75.03 1 39.06 1 2 1 Z " fill="#F6F6F7" transform="translate(316,430)"/>
<path d="M0 0 C6.6 0 13.2 0 20 0 C20 10.89 20 21.78 20 33 C13.4 33 6.8 33 0 33 C0 22.11 0 11.22 0 0 Z " fill="#141414" transform="translate(663,457)"/>
<path d="M0 0 C6.6 0 13.2 0 20 0 C20 10.89 20 21.78 20 33 C13.4 33 6.8 33 0 33 C0 22.11 0 11.22 0 0 Z " fill="#121212" transform="translate(620,457)"/>
<path d="M0 0 C6.6 0 13.2 0 20 0 C20 10.89 20 21.78 20 33 C13.4 33 6.8 33 0 33 C0 22.11 0 11.22 0 0 Z " fill="#141414" transform="translate(341,457)"/>
<path d="M0 0 C6.6 0 13.2 0 20 0 C20 10.56 20 21.12 20 32 C13.4 32 6.8 32 0 32 C0 21.44 0 10.88 0 0 Z " fill="#111111" transform="translate(663,514)"/>
<path d="M0 0 C6.6 0 13.2 0 20 0 C20 10.56 20 21.12 20 32 C13.4 32 6.8 32 0 32 C0 21.44 0 10.88 0 0 Z " fill="#131313" transform="translate(620,514)"/>
<path d="M0 0 C6.6 0 13.2 0 20 0 C20 10.56 20 21.12 20 32 C13.4 32 6.8 32 0 32 C0 21.44 0 10.88 0 0 Z " fill="#101110" transform="translate(341,514)"/>
<path d="M0 0 C6.27 0 12.54 0 19 0 C19 10.89 19 21.78 19 33 C12.73 33 6.46 33 0 33 C0 22.11 0 11.22 0 0 Z " fill="#121212" transform="translate(384,457)"/>
<path d="M0 0 C6.27 0 12.54 0 19 0 C19 10.56 19 21.12 19 32 C12.73 32 6.46 32 0 32 C0 21.44 0 10.88 0 0 Z " fill="#141413" transform="translate(384,514)"/>
<path d="M0 0 C0.33 0 0.66 0 1 0 C1 46.53 1 93.06 1 141 C37.3 140.67 73.6 140.34 111 140 C111.33 94.46 111.66 48.92 112 2 C112.33 2 112.66 2 113 2 C113 48.53 113 95.06 113 143 C75.71 143 38.42 143 0 143 C0 95.81 0 48.62 0 0 Z " fill="#E0E1E1" transform="translate(595,430)"/>
<path d="M0 0 C0.66 0.33 1.32 0.66 2 1 C2 90.1 2 179.2 2 271 C-7.9 271 -17.8 271 -28 271 C-28 244.27 -28 217.54 -28 190 C-25.60054848 193.59917728 -25.73028241 196.16429525 -25.77294922 200.31713867 C-25.77265717 201.05884811 -25.77236511 201.80055756 -25.77206421 202.56474304 C-25.77345736 205.01593735 -25.78901773 207.46682755 -25.8046875 209.91796875 C-25.80841768 211.61761814 -25.81126463 213.31726969 -25.81326294 215.016922 C-25.82089898 219.49024391 -25.84054721 223.96343594 -25.8626709 228.43670654 C-25.88312996 233.00140628 -25.89226478 237.566127 -25.90234375 242.13085938 C-25.92379315 251.08730583 -25.95897505 260.04362179 -26 269 C-17.09 269 -8.18 269 1 269 C0.67 180.23 0.34 91.46 0 0 Z " fill="#FAFAFA" transform="translate(574,302)"/>
<path d="M0 0 C1.33708008 -0.00193359 1.33708008 -0.00193359 2.70117188 -0.00390625 C3.63380859 -0.00003906 4.56644531 0.00382813 5.52734375 0.0078125 C6.46384766 0.00394531 7.40035156 0.00007812 8.36523438 -0.00390625 C9.70038086 -0.00197266 9.70038086 -0.00197266 11.0625 0 C11.88242432 0.00112793 12.70234863 0.00225586 13.54711914 0.00341797 C15.46484375 0.1328125 15.46484375 0.1328125 16.46484375 1.1328125 C16.55348887 4.01692425 16.58012901 6.87764059 16.5625 9.76171875 C16.56149292 10.52738159 16.56048584 11.29304443 16.55944824 12.08190918 C16.55420038 14.95305877 16.54023922 17.82418708 16.52734375 20.6953125 C16.50671875 27.1096875 16.48609375 33.5240625 16.46484375 40.1328125 C29.66484375 39.8028125 42.86484375 39.4728125 56.46484375 39.1328125 C56.79484375 26.9228125 57.12484375 14.7128125 57.46484375 2.1328125 C57.79484375 2.1328125 58.12484375 2.1328125 58.46484375 2.1328125 C58.46484375 15.3328125 58.46484375 28.5328125 58.46484375 42.1328125 C43.94484375 42.1328125 29.42484375 42.1328125 14.46484375 42.1328125 C14.46484375 28.9328125 14.46484375 15.7328125 14.46484375 2.1328125 C8.19484375 2.1328125 1.92484375 2.1328125 -4.53515625 2.1328125 C-4.53515625 34.8028125 -4.53515625 67.4728125 -4.53515625 101.1328125 C2.06484375 101.1328125 8.66484375 101.1328125 15.46484375 101.1328125 C15.46484375 101.4628125 15.46484375 101.7928125 15.46484375 102.1328125 C11.98569434 102.16169064 8.50657544 102.17956937 5.02734375 102.1953125 C3.53750977 102.20788086 3.53750977 102.20788086 2.01757812 102.22070312 C1.07333984 102.22392578 0.12910156 102.22714844 -0.84375 102.23046875 C-1.71829834 102.23570557 -2.59284668 102.24094238 -3.49389648 102.24633789 C-5.53515625 102.1328125 -5.53515625 102.1328125 -6.53515625 101.1328125 C-6.63049278 98.02774 -6.66066751 94.94494792 -6.64868164 91.83959961 C-6.64882767 90.86409653 -6.64897369 89.88859344 -6.64912415 88.88352966 C-6.64842458 85.64238297 -6.64063016 82.40129296 -6.6328125 79.16015625 C-6.63094847 76.91956107 -6.6295245 74.67896548 -6.62852478 72.43836975 C-6.62469838 66.5282174 -6.61486705 60.61808945 -6.6038208 54.70794678 C-6.59360931 48.68225433 -6.58902772 42.65655797 -6.58398438 36.63085938 C-6.57324489 24.79816634 -6.55616701 12.96549144 -6.53515625 1.1328125 C-4.15076916 -0.05938104 -2.65859623 0.00365228 0 0 Z " fill="#ECECEC" transform="translate(650.53515625,642.8671875)"/>
<path d="M0 0 C0.89589844 0.00322266 1.79179687 0.00644531 2.71484375 0.00976562 C4.12056641 0.02233398 4.12056641 0.02233398 5.5546875 0.03515625 C6.49957031 0.03966797 7.44445312 0.04417969 8.41796875 0.04882812 C10.75527137 0.06063268 13.09244811 0.07709866 15.4296875 0.09765625 C14.45071968 6.87619647 13.55029329 11.33430202 8.4296875 16.09765625 C4.38636829 18.501792 0.02717241 18.72120177 -4.5703125 18.09765625 C-7.48958854 16.70148075 -9.29234246 15.37562629 -11.5703125 13.09765625 C-12.14763209 7.98425419 -12.14763209 7.98425419 -11.5703125 5.09765625 C-7.9043716 1.33524323 -5.14546085 -0.03256621 0 0 Z " fill="#F0F0F0" transform="translate(250.5703125,712.90234375)"/>
<path d="M0 0 C6.27 0 12.54 0 19 0 C19 10.89 19 21.78 19 33 C12.73 33 6.46 33 0 33 C0 22.11 0 11.22 0 0 Z M3 3 C3 11.91 3 20.82 3 30 C7.62 30 12.24 30 17 30 C17 21.09 17 12.18 17 3 C12.38 3 7.76 3 3 3 Z " fill="#111111" transform="translate(384,457)"/>
<path d="M0 0 C6.6 0 13.2 0 20 0 C20 10.89 20 21.78 20 33 C13.4 33 6.8 33 0 33 C0 22.11 0 11.22 0 0 Z M2 3 C2 12.24 2 21.48 2 31 C6.95 30.67 11.9 30.34 17 30 C17 21.09 17 12.18 17 3 C12.05 3 7.1 3 2 3 Z " fill="#1D1D1D" transform="translate(620,457)"/>
<path d="M0 0 C6.93 0 13.86 0 21 0 C22 1 22 1 22.0625 3.5625 C22.041875 4.366875 22.02125 5.17125 22 6 C20 3 20 3 20 1 C19.01 1.495 19.01 1.495 18 2 C12.72 2 7.44 2 2 2 C2 35.33 2 68.66 2 103 C1.34 103 0.68 103 0 103 C0 69.01 0 35.02 0 0 Z " fill="#CBCCCC" transform="translate(416,672)"/>
<path d="M0 0 C0.87454834 0.00523682 1.74909668 0.01047363 2.65014648 0.01586914 C3.59438477 0.0190918 4.53862305 0.02231445 5.51147461 0.02563477 C6.50469727 0.03401367 7.49791992 0.04239258 8.52124023 0.05102539 C9.51833008 0.05553711 10.51541992 0.06004883 11.54272461 0.06469727 C14.01478872 0.07652532 16.48673541 0.0930069 18.95874023 0.11352539 C18.95874023 0.44352539 18.95874023 0.77352539 18.95874023 1.11352539 C12.68874023 1.11352539 6.41874023 1.11352539 -0.04125977 1.11352539 C-0.04125977 18.27352539 -0.04125977 35.43352539 -0.04125977 53.11352539 C-0.70125977 51.79352539 -1.36125977 50.47352539 -2.04125977 49.11352539 C-2.37125977 48.78352539 -2.70125977 48.45352539 -3.04125977 48.11352539 C-3.13948721 46.64547247 -3.16924347 45.17275079 -3.1706543 43.70141602 C-3.17538254 42.29490784 -3.17538254 42.29490784 -3.1802063 40.85998535 C-3.17818207 39.84021606 -3.17615784 38.82044678 -3.17407227 37.76977539 C-3.17502899 36.7303479 -3.17598572 35.69092041 -3.17697144 34.61999512 C-3.17765339 32.41747985 -3.17579803 30.2149626 -3.17163086 28.01245117 C-3.16628284 24.6281282 -3.17157535 21.24393795 -3.17797852 17.85961914 C-3.17731774 15.72550426 -3.17603658 13.59138947 -3.17407227 11.45727539 C-3.1760965 10.4375061 -3.17812073 9.41773682 -3.1802063 8.36706543 C-3.17705414 7.42939331 -3.17390198 6.49172119 -3.1706543 5.52563477 C-3.1698587 4.69592163 -3.16906311 3.8662085 -3.16824341 3.01135254 C-2.98945858 0.33933353 -2.67215216 0.1486127 0 0 Z " fill="#E5E5E5" transform="translate(741.041259765625,671.886474609375)"/>
<path d="M0 0 C0.33 0 0.66 0 1 0 C1 12.54 1 25.08 1 38 C14.53 37.67 28.06 37.34 42 37 C42.33 24.79 42.66 12.58 43 0 C43.33 0 43.66 0 44 0 C44 13.2 44 26.4 44 40 C29.48 40 14.96 40 0 40 C0 26.8 0 13.6 0 0 Z " fill="#C6C6C6" transform="translate(665,645)"/>
<path d="M0 0 C6.6 0 13.2 0 20 0 C20 10.56 20 21.12 20 32 C19.01 31.67 18.02 31.34 17 31 C17 21.76 17 12.52 17 3 C10.07 2.505 10.07 2.505 3 2 C3 11.57 3 21.14 3 31 C2.01 31 1.02 31 0 31 C0 20.77 0 10.54 0 0 Z " fill="#191919" transform="translate(663,514)"/>
<path d="M0 0 C4.01707893 4.01707893 3.12047208 10.29152097 3.13894653 15.66755676 C3.1369223 16.63964584 3.13489807 17.61173492 3.1328125 18.61328125 C3.13424759 20.12851631 3.13424759 20.12851631 3.13571167 21.67436218 C3.13639 23.79991722 3.13456001 25.92547437 3.13037109 28.05102539 C3.12499001 31.31856874 3.13034211 34.58597637 3.13671875 37.85351562 C3.13605845 39.91927114 3.1347783 41.98502657 3.1328125 44.05078125 C3.13483673 45.03299149 3.13686096 46.01520172 3.13894653 47.0271759 C3.13579437 47.92868881 3.13264221 48.83020172 3.12939453 49.7590332 C3.12859894 50.55590042 3.12780334 51.35276764 3.12698364 52.17378235 C3 54 3 54 2 55 C0.58429877 55.08651611 -0.835595 55.10704904 -2.25390625 55.09765625 C-3.10791016 55.09443359 -3.96191406 55.09121094 -4.84179688 55.08789062 C-5.73962891 55.07951172 -6.63746094 55.07113281 -7.5625 55.0625 C-8.46419922 55.05798828 -9.36589844 55.05347656 -10.29492188 55.04882812 C-12.53001314 55.03700225 -14.76497437 55.0205222 -17 55 C-17.99 51.535 -17.99 51.535 -19 48 C-18.01 47.505 -18.01 47.505 -17 47 C-17 48.98 -17 50.96 -17 53 C-11.06 53 -5.12 53 1 53 C0.505 26.765 0.505 26.765 0 0 Z " fill="#F9FAFA" transform="translate(283,690)"/>
<path d="M0 0 C0.33 0 0.66 0 1 0 C1.02312524 9.23997552 1.04091601 18.47994114 1.05181217 27.71993923 C1.05704061 32.00999915 1.06413753 36.30003933 1.07543945 40.59008789 C1.08626975 44.726794 1.09227714 48.86348108 1.09487724 53.00020027 C1.09673124 54.58192304 1.10035136 56.16364471 1.10573006 57.74535942 C1.1129424 59.95322838 1.11399086 62.16101773 1.11352539 64.36889648 C1.115746 65.62798325 1.11796661 66.88707001 1.12025452 68.18431091 C1 71 1 71 0 72 C-3.28180789 72.33281492 -6.57847906 72.32484546 -9.875 72.375 C-11.26138672 72.43107422 -11.26138672 72.43107422 -12.67578125 72.48828125 C-15.2154673 72.52145567 -17.51006622 72.50675982 -20 72 C-22.1328125 69.4765625 -22.1328125 69.4765625 -23 67 C-23.99 67.495 -23.99 67.495 -25 68 C-23.61410019 64.90837736 -22.50816459 63.50816459 -20 61 C-20 63.97 -20 66.94 -20 70 C-13.4 70 -6.8 70 0 70 C0 46.9 0 23.8 0 0 Z " fill="#FBFBFB" transform="translate(568,673)"/>
<path d="M0 0 C6.27 0 12.54 0 19 0 C19 10.56 19 21.12 19 32 C12.4 32 5.8 32 -1 32 C-1 31.67 -1 31.34 -1 31 C4.28 30.67 9.56 30.34 15 30 C15.33 20.76 15.66 11.52 16 2 C10.72 1.67 5.44 1.34 0 1 C0 0.67 0 0.34 0 0 Z " fill="#181818" transform="translate(342,514)"/>
<path d="M0 0 C0.66 0 1.32 0 2 0 C2 9.57 2 19.14 2 29 C7.28 29 12.56 29 18 29 C18 19.76 18 10.52 18 1 C18.33 1 18.66 1 19 1 C19 10.9 19 20.8 19 31 C12.73 31 6.46 31 0 31 C0 20.77 0 10.54 0 0 Z " fill="#040404" transform="translate(341,459)"/>
<path d="M0 0 C0.33 0 0.66 0 1 0 C1 22.44 1 44.88 1 68 C-5.27 68 -11.54 68 -18 68 C-18 65.03 -18 62.06 -18 59 C-16 62 -16 62 -16 66 C-10.72 66 -5.44 66 0 66 C0 44.22 0 22.44 0 0 Z " fill="#000000" transform="translate(566,675)"/>
<path d="M0 0 C6.6 0 13.2 0 20 0 C20 10.23 20 20.46 20 31 C19.67 31 19.34 31 19 31 C18.67 21.43 18.34 11.86 18 2 C10.08 2.495 10.08 2.495 2 3 C1.67 12.9 1.34 22.8 1 33 C0.67 33 0.34 33 0 33 C0 22.11 0 11.22 0 0 Z " fill="#313132" transform="translate(663,457)"/>
<path d="M0 0 C0.33 0 0.66 0 1 0 C1 9.24 1 18.48 1 28 C6.28 28 11.56 28 17 28 C17 19.09 17 10.18 17 1 C17.33 1 17.66 1 18 1 C18.495 15.355 18.495 15.355 19 30 C12.73 30 6.46 30 0 30 C0 20.1 0 10.2 0 0 Z " fill="#040403" transform="translate(664,460)"/>
<path d="M0 0 C6.27 0 12.54 0 19 0 C18.67 0.99 18.34 1.98 18 3 C12.72 2.67 7.44 2.34 2 2 C2.01160156 3.48371094 2.02320313 4.96742188 2.03515625 6.49609375 C2.04454235 8.47656123 2.05364167 10.45703009 2.0625 12.4375 C2.07087891 13.41138672 2.07925781 14.38527344 2.08789062 15.38867188 C2.10782078 21.34778969 1.77609518 27.09067683 1 33 C0.67 33 0.34 33 0 33 C0 22.11 0 11.22 0 0 Z " fill="#303131" transform="translate(384,457)"/>
<path d="M0 0 C0.33 0 0.66 0 1 0 C1 14.52 1 29.04 1 44 C7.27 44 13.54 44 20 44 C20 44.33 20 44.66 20 45 C16.68794116 45.19592461 13.37534146 45.38032746 10.0625 45.5625 C8.64420898 45.64661133 8.64420898 45.64661133 7.19726562 45.73242188 C5.84858398 45.80493164 5.84858398 45.80493164 4.47265625 45.87890625 C3.64000244 45.9260376 2.80734863 45.97316895 1.94946289 46.02172852 C0 46 0 46 -1 45 C-1.06360407 43.58661695 -1.05718624 42.16998431 -1.02172852 40.75561523 C-0.99158409 39.40432777 -0.99158409 39.40432777 -0.96083069 38.02574158 C-0.92027809 36.5570034 -0.92027809 36.5570034 -0.87890625 35.05859375 C-0.84348976 33.56248314 -0.84348976 33.56248314 -0.80735779 32.03614807 C-0.73051123 28.83646138 -0.64657771 25.63700408 -0.5625 22.4375 C-0.50930031 20.27409993 -0.4565598 18.11068852 -0.40429688 15.94726562 C-0.27486789 10.63136711 -0.13961307 5.31564026 0 0 Z " fill="#E5E5E5" transform="translate(387,699)"/>
<path d="M0 0 C5.94 0 11.88 0 18 0 C18 3.63 18 7.26 18 11 C16 7 16 7 16 3 C11.05 3 6.1 3 1 3 C1 6.63 1 10.26 1 14 C0.67 14 0.34 14 0 14 C0 9.38 0 4.76 0 0 Z " fill="#1E1E1E" transform="translate(296,673)"/>
<path d="M0 0 C6.6 0 13.2 0 20 0 C20 10.89 20 21.78 20 33 C19.67 33 19.34 33 19 33 C18.67 23.1 18.34 13.2 18 3 C12.06 2.67 6.12 2.34 0 2 C0 1.34 0 0.68 0 0 Z " fill="#3E3E3E" transform="translate(341,457)"/>
<path d="M0 0 C0 4.15976303 -1.47840895 7.13262276 -3 11 C2.28 11 7.56 11 13 11 C13.33 10.01 13.66 9.02 14 8 C14.33 8.66 14.66 9.32 15 10 C14.67 10.99 14.34 11.98 14 13 C7.73 13 1.46 13 -5 13 C-2.75 2.875 -2.75 2.875 0 0 Z " fill="#060606" transform="translate(226,683)"/>
<path d="M0 0 C6.02299046 9.03448568 2.39206543 21.87023813 1 32 C0.67 32 0.34 32 0 32 C0.00523682 31.23856689 0.01047363 30.47713379 0.01586914 29.69262695 C0.03669525 26.23259308 0.04967813 22.77257241 0.0625 19.3125 C0.07087891 18.11431641 0.07925781 16.91613281 0.08789062 15.68164062 C0.09111328 14.52470703 0.09433594 13.36777344 0.09765625 12.17578125 C0.10289307 11.11270752 0.10812988 10.04963379 0.11352539 8.9543457 C0.07884734 6.00338196 0.07884734 6.00338196 -0.56860352 3.17651367 C-0.71096436 2.45826416 -0.8533252 1.74001465 -1 1 C-0.67 0.67 -0.34 0.34 0 0 Z " fill="#1A1A1A" transform="translate(404,688)"/>
<path d="M0 0 C0.33 0 0.66 0 1 0 C1.33 10.23 1.66 20.46 2 31 C2.66 31.33 3.32 31.66 4 32 C3.01 32 2.02 32 1 32 C-2.02350994 27.04144369 -1.89919045 24.61994029 -1 19 C-0.74338049 15.69081395 -0.59129347 12.37788379 -0.4375 9.0625 C-0.39431641 8.18787109 -0.35113281 7.31324219 -0.30664062 6.41210938 C-0.20153099 4.27488005 -0.10036015 2.13745762 0 0 Z " fill="#E8E8E8" transform="translate(521,692)"/>
<path d="M0 0 C2 3 2 3 2 7 C7.28 7 12.56 7 18 7 C18 7.66 18 8.32 18 9 C12.06 9 6.12 9 0 9 C0 6.03 0 3.06 0 0 Z " fill="#060605" transform="translate(548,734)"/>
<path d="M0 0 C0.33 1.32 0.66 2.64 1 4 C-6.81770687 11.25514235 -11.30515408 13.37380044 -22 13 C-22 12.67 -22 12.34 -22 12 C-21.21496094 11.91363281 -20.42992187 11.82726562 -19.62109375 11.73828125 C-12.67080187 10.80873301 -8.21294427 9.76928944 -3 5 C-1.08125395 2.36573116 -1.08125395 2.36573116 0 0 Z " fill="#090909" transform="translate(873,717)"/>
<path d="M0 0 C0.66 0 1.32 0 2 0 C2 3.3 2 6.6 2 10 C2.66 10 3.32 10 4 10 C4.66 12.97 5.32 15.94 6 19 C2.26165365 15.26165365 0.2139728 11.80393529 -0.1875 6.54296875 C-0.1875 4.3535162 -0.13377931 2.1850621 0 0 Z " fill="#D9D9D9" transform="translate(435,704)"/>
<path d="M0 0 C0.33 1.32 0.66 2.64 1 4 C-3.62 4 -8.24 4 -13 4 C-12.67 3.01 -12.34 2.02 -12 1 C-6.06 0.505 -6.06 0.505 0 0 Z " fill="#1F1F1F" transform="translate(464,741)"/>
<path d="M0 0 C0.33 0.66 0.66 1.32 1 2 C-3.53701494 3.45184478 -7.18061476 4.23509196 -12 4 C-12.33 3.01 -12.66 2.02 -13 1 C-8.61414671 0.29826347 -4.44209357 -0.10834375 0 0 Z " fill="#181818" transform="translate(621,741)"/>
<path d="M0 0 C-1.98 0.66 -3.96 1.32 -6 2 C-6 2.33 -6 2.66 -6 3 C-9.63 3 -13.26 3 -17 3 C-17 2.01 -17 1.02 -17 0 C-14.9174133 -0.19561869 -12.83388144 -0.38119313 -10.75 -0.5625 C-9.58984375 -0.66691406 -8.4296875 -0.77132812 -7.234375 -0.87890625 C-4.48128523 -0.98198087 -2.580018 -0.86213473 0 0 Z " fill="#222223" transform="translate(870,742)"/>
<path d="M0 0 C0.66 0.33 1.32 0.66 2 1 C2 4.3 2 7.6 2 11 C1.01 11.495 1.01 11.495 0 12 C-1.1898306 9.6203388 -1.13349966 8.08514265 -1.125 5.4375 C-1.12886719 4.22900391 -1.12886719 4.22900391 -1.1328125 2.99609375 C-1 1 -1 1 0 0 Z " fill="#232222" transform="translate(221,718)"/>
<path d="M0 0 C1.32 0.33 2.64 0.66 4 1 C4.33 3.97 4.66 6.94 5 10 C4.01 10 3.02 10 2 10 C0.39644899 6.49223216 -0.22036864 3.85645121 0 0 Z " fill="#1B1B1B" transform="translate(576,722)"/>
<path d="M0 0 C4.46839215 -0.21278058 7.82262526 0.40861915 12 2 C12 2.66 12 3.32 12 4 C7.71 3.67 3.42 3.34 -1 3 C-0.67 2.01 -0.34 1.02 0 0 Z " fill="#E7E8E8" transform="translate(331,669)"/>
<path d="M0 0 C4.29 0 8.58 0 13 0 C12.67 0.99 12.34 1.98 12 3 C8.04 2.67 4.08 2.34 0 2 C0 1.34 0 0.68 0 0 Z " fill="#FAFBFA" transform="translate(253,713)"/>
<path d="M0 0 C0.33 0 0.66 0 1 0 C1.04125 0.9075 1.0825 1.815 1.125 2.75 C2.28530994 7.05972264 4.37857916 7.61140328 8 10 C8.375 12.75 8.375 12.75 8 15 C7.814375 14.4225 7.62875 13.845 7.4375 13.25 C5.29448878 9.89572157 2.51177437 8.82092004 -1 7 C-0.67 4.69 -0.34 2.38 0 0 Z " fill="#DCDDDD" transform="translate(539,339)"/>
<path d="M0 0 C2.31 0 4.62 0 7 0 C7 0.66 7 1.32 7 2 C8.98 2 10.96 2 13 2 C13 2.33 13 2.66 13 3 C8.71 3 4.42 3 0 3 C0 2.01 0 1.02 0 0 Z " fill="#E8E9E9" transform="translate(246,713)"/>
<path d="M0 0 C-1.305239 2.61047801 -2.35826574 2.68066423 -5.0625 3.625 C-5.79597656 3.88539063 -6.52945313 4.14578125 -7.28515625 4.4140625 C-7.85105469 4.60742188 -8.41695312 4.80078125 -9 5 C-8.6484375 3.08203125 -8.6484375 3.08203125 -8 1 C-4.70594381 -0.82039948 -3.63772813 -1.21257604 0 0 Z " fill="#171818" transform="translate(156,661)"/>
<path d="M0 0 C0.33 0 0.66 0 1 0 C1 3.63 1 7.26 1 11 C0.01 10.67 -0.98 10.34 -2 10 C-2.1953125 3.9453125 -2.1953125 3.9453125 -2 2 C-1.34 1.34 -0.68 0.68 0 0 Z " fill="#DCDCDC" transform="translate(538,322)"/>
<path d="M0 0 C0.99 0.33 1.98 0.66 3 1 C3 2.65 3 4.3 3 6 C2.34 6 1.68 6 1 6 C0.67 6.99 0.34 7.98 0 9 C-0.99 8.67 -1.98 8.34 -3 8 C-2.34 7.67 -1.68 7.34 -1 7 C-0.59270772 4.67843403 -0.25561323 2.3431213 0 0 Z " fill="#1A1B1A" transform="translate(487,338)"/>
<path d="M0 0 C0 0.99 0 1.98 0 3 C-6.93 2.505 -6.93 2.505 -14 2 C-14 1.67 -14 1.34 -14 1 C-12.04175306 0.83232136 -10.08339945 0.66588795 -8.125 0.5 C-6.48917969 0.36078125 -6.48917969 0.36078125 -4.8203125 0.21875 C-3.21670436 0.09437042 -1.60842449 0 0 0 Z " fill="#212121" transform="translate(595,721)"/>
<path d="M0 0 C-0.33 0.99 -0.66 1.98 -1 3 C-3.97 2.67 -6.94 2.34 -10 2 C-6.3558226 -0.4294516 -4.28758728 -0.16179575 0 0 Z " fill="#D9DADA" transform="translate(609,685)"/>
<path d="M0 0 C0.66 0.33 1.32 0.66 2 1 C1 4 0 7 -1 10 C-1.66 10 -2.32 10 -3 10 C-2.49287967 6.28111761 -1.88391785 3.26545761 0 0 Z " fill="#E1E1E2" transform="translate(137,676)"/>
<path d="M0 0 C2.625 0.375 2.625 0.375 5 1 C5.33 1.99 5.66 2.98 6 4 C4.68 4.33 3.36 4.66 2 5 C2 4.34 2 3.68 2 3 C0.68 2.67 -0.64 2.34 -2 2 C-1.34 1.34 -0.68 0.68 0 0 Z " fill="#1A1A1A" transform="translate(516,467)"/>
<path d="M0 0 C2 2 2 2 2.125 5.125 C2.08375 6.07375 2.0425 7.0225 2 8 C1.34 7.34 0.68 6.68 0 6 C-2.06874034 5.3574765 -2.06874034 5.3574765 -4 5 C-3.01 5 -2.02 5 -1 5 C-0.67 3.35 -0.34 1.7 0 0 Z " fill="#191919" transform="translate(836,735)"/>
<path d="M0 0 C0.99 0.33 1.98 0.66 3 1 C3 1.66 3 2.32 3 3 C4.65 3 6.3 3 8 3 C6.3125 4.125 6.3125 4.125 4 5 C1.25 4.125 1.25 4.125 -1 3 C-0.67 2.01 -0.34 1.02 0 0 Z " fill="#1B1B1C" transform="translate(608,713)"/>
<path d="M0 0 C0.99 0.495 0.99 0.495 2 1 C2 1.66 2 2.32 2 3 C2.66 3 3.32 3 4 3 C4 5.31 4 7.62 4 10 C0 4 0 4 0 0 Z " fill="#E8E8E8" transform="translate(888,686)"/>
<path d="M0 0 C0.8353125 0.556875 0.8353125 0.556875 1.6875 1.125 C-0.6225 1.785 -2.9325 2.445 -5.3125 3.125 C-5.9725 2.465 -6.6325 1.805 -7.3125 1.125 C-2.88173077 -1.09038462 -2.88173077 -1.09038462 0 0 Z " fill="#191919" transform="translate(503.3125,468.875)"/>
<path d="M0 0 C4.75 0.75 4.75 0.75 7 3 C3.86650268 4.04449911 3.01031744 3.93423645 0 3 C0 2.01 0 1.02 0 0 Z " fill="#232223" transform="translate(517,300)"/>
</svg>
