<?xml version="1.0" encoding="UTF-8"?>
<svg version="1.1" xmlns="http://www.w3.org/2000/svg" width="500" height="500">
<path d="M0 0 C1.43838552 0.79005662 2.87567415 1.58211045 4.3125 2.375 C5.11300781 2.81585938 5.91351563 3.25671875 6.73828125 3.7109375 C8.53527943 4.73513335 10.27900708 5.85267138 12 7 C12 7.66 12 8.32 12 9 C12.71542969 9.2578125 13.43085938 9.515625 14.16796875 9.78125 C17.17160111 11.07384765 19.63505372 12.6277709 22.3125 14.5 C23.19550781 15.1084375 24.07851563 15.716875 24.98828125 16.34375 C25.65214844 16.8903125 26.31601562 17.436875 27 18 C27 18.66 27 19.32 27 20 C27.71542969 20.2578125 28.43085938 20.515625 29.16796875 20.78125 C32.17160111 22.07384765 34.63505372 23.6277709 37.3125 25.5 C38.19550781 26.1084375 39.07851563 26.716875 39.98828125 27.34375 C40.65214844 27.8903125 41.31601562 28.436875 42 29 C42 29.66 42 30.32 42 31 C42.66 31 43.32 31 44 31 C44 31.66 44 32.32 44 33 C44.65355469 33.21914062 45.30710937 33.43828125 45.98046875 33.6640625 C50.07012813 35.47345902 53.62070099 37.86761193 57.3125 40.375 C58.42334961 41.09816406 58.42334961 41.09816406 59.55664062 41.8359375 C60.60561523 42.5475 60.60561523 42.5475 61.67578125 43.2734375 C62.6335144 43.91418213 62.6335144 43.91418213 63.6105957 44.56787109 C65 46 65 46 65 50 C64 52.25 64 52.25 63 54 C62.34 54 61.68 54 61 54 C60.34 55.65 59.68 57.3 59 59 C58.01 59 57.02 59 56 59 C54.76939579 61.46120841 54.7942277 63.25776866 54.68359375 66.0078125 C54.64169922 66.99394531 54.59980469 67.98007813 54.55664062 68.99609375 C54.51732422 70.02863281 54.47800781 71.06117188 54.4375 72.125 C54.37272461 73.68541016 54.37272461 73.68541016 54.30664062 75.27734375 C54.2003712 77.85142528 54.09833417 80.42560508 54 83 C55.26667763 82.95336716 55.26667763 82.95336716 56.5589447 82.90579224 C64.54629251 82.62440416 72.53196107 82.41171816 80.523139 82.27462959 C84.63127648 82.20177029 88.73529743 82.1031337 92.84106445 81.94384766 C96.80962948 81.7908614 100.77425921 81.70786498 104.74554634 81.6717186 C106.25429871 81.64599341 107.76285228 81.59574027 109.26991081 81.51977921 C120.74207729 80.96494105 120.74207729 80.96494105 124.49147415 84.34426117 C127.23214939 87.68392282 129.20663224 91.35381152 131.09037971 95.22491074 C132.49759102 97.97102988 134.24785243 100.4652019 136 103 C139 107.60714286 139 107.60714286 139 111 C139.66 111 140.32 111 141 111 C142.40234375 113.046875 142.40234375 113.046875 143.9375 115.75 C146.12071548 119.5695771 146.12071548 119.5695771 148.75390625 123.078125 C149.16511719 123.71234375 149.57632812 124.3465625 150 125 C149.67 126.32 149.34 127.64 149 129 C145.04 129 141.08 129 137 129 C137 158.37 137 187.74 137 218 C141.29 218 145.58 218 150 218 C150 222.62 150 227.24 150 232 C111.94322331 232.06837754 73.88645752 232.12149785 35.82963184 232.15319599 C31.34084821 232.15694829 26.8520647 232.16083124 22.36328125 232.16479492 C21.02277746 232.16597532 21.02277746 232.16597532 19.65519278 232.16717956 C5.16827249 232.18024805 -9.31861224 232.2039098 -23.8055114 232.23145839 C-38.66066185 232.25947251 -53.51579363 232.27616778 -68.37096941 232.28226548 C-77.54392472 232.28639024 -86.71677951 232.29943687 -95.88970388 232.3237494 C-102.17240213 232.33955736 -108.45504811 232.34441163 -114.73776482 232.34050413 C-118.36735921 232.33857484 -121.99677747 232.34161658 -125.62634087 232.35761642 C-129.55372515 232.37480355 -133.48087673 232.36899707 -137.40829468 232.36076355 C-139.14464646 232.37387134 -139.14464646 232.37387134 -140.91607606 232.38724393 C-141.96159344 232.38127078 -143.00711081 232.37529764 -144.08431053 232.36914349 C-144.99184212 232.37028265 -145.89937371 232.37142181 -146.83440626 232.37259549 C-147.54905219 232.24963898 -148.26369813 232.12668247 -149 232 C-149.66 231.01 -150.32 230.02 -151 229 C-150.34 229 -149.68 229 -149 229 C-149.23396484 227.93458984 -149.23396484 227.93458984 -149.47265625 226.84765625 C-149.76462891 225.46900391 -149.76462891 225.46900391 -150.0625 224.0625 C-150.25972656 223.14597656 -150.45695312 222.22945312 -150.66015625 221.28515625 C-150.77230469 220.53105469 -150.88445312 219.77695312 -151 219 C-150.67 218.67 -150.34 218.34 -150 218 C-146.04 218 -142.08 218 -138 218 C-138.33 188.96 -138.66 159.92 -139 130 C-142.3 129.67 -145.6 129.34 -149 129 C-149 123.76624511 -147.91485193 121.5157595 -145.25 117.3125 C-144.85458008 116.67111084 -144.45916016 116.02972168 -144.05175781 115.36889648 C-139.40037189 107.8975408 -134.47371213 100.59997431 -129.52636719 93.32250977 C-127.96313087 91.13586056 -127.96313087 91.13586056 -127.2603302 88.98495483 C-126.11696688 86.37044843 -125.18168644 84.86380552 -123 83 C-117.82206894 81.83835853 -112.68629099 82.06916586 -107.41796875 82.21875 C-105.87814781 82.23368008 -104.33828874 82.2450635 -102.79841614 82.25305176 C-98.75483374 82.28352784 -94.71356829 82.36204431 -90.67089844 82.45068359 C-86.54198554 82.53267734 -82.41269633 82.56909164 -78.28320312 82.609375 C-70.18762274 82.69505072 -62.09436693 82.83570511 -54 83 C-54.495 70.625 -54.495 70.625 -55 58 C-56.98 57.505 -56.98 57.505 -59 57 C-60.25 54.4375 -60.25 54.4375 -61 52 C-61.66 52 -62.32 52 -63 52 C-63.495 49.03 -63.495 49.03 -64 46 C-63.34 46 -62.68 46 -62 46 C-62 45.34 -62 44.68 -62 44 C-59.8828125 42.2734375 -59.8828125 42.2734375 -57.125 40.375 C-56.22007812 39.74335937 -55.31515625 39.11171875 -54.3828125 38.4609375 C-52 37 -52 37 -50 37 C-49.505 36.01 -49.505 36.01 -49 35 C-43.47058824 31 -43.47058824 31 -41 31 C-41 30.34 -41 29.68 -41 29 C-38.8828125 27.2734375 -38.8828125 27.2734375 -36.125 25.375 C-34.76761719 24.42753906 -34.76761719 24.42753906 -33.3828125 23.4609375 C-31 22 -31 22 -29 22 C-29 21.34 -29 20.68 -29 20 C-28.01 20 -27.02 20 -26 20 C-26 19.34 -26 18.68 -26 18 C-23.525 17.01 -23.525 17.01 -21 16 C-21 15.34 -21 14.68 -21 14 C-18.76953125 12.08984375 -18.76953125 12.08984375 -15.8125 9.9375 C-14.84957031 9.22464844 -13.88664063 8.51179688 -12.89453125 7.77734375 C-10.12280932 6.07540923 -8.19594634 5.37977425 -5 5 C-5 4.34 -5 3.68 -5 3 C-2.5 1.375 -2.5 1.375 0 0 Z M-3.80859375 20.5546875 C-4.55560547 21.08707031 -5.30261719 21.61945313 -6.07226562 22.16796875 C-6.85279297 22.73128906 -7.63332031 23.29460937 -8.4375 23.875 C-9.97770302 24.97678839 -11.51806148 26.07835952 -13.05859375 27.1796875 C-14.08424438 27.91807861 -14.08424438 27.91807861 -15.13061523 28.67138672 C-16.73320773 29.81038481 -18.36409107 30.90939405 -20 32 C-20 32.66 -20 33.32 -20 34 C-20.99 34.3403125 -20.99 34.3403125 -22 34.6875 C-25.88658628 36.3878815 -29.63679817 38.39623084 -33 41 C-33 41.66 -33 42.32 -33 43 C-33.78375 43.28875 -34.5675 43.5775 -35.375 43.875 C-38.09671632 44.84912254 -38.09671632 44.84912254 -40 47 C-40.30027819 50.06252126 -40.30027819 50.06252126 -40.24050903 53.73233032 C-40.24307231 54.78232478 -40.24307231 54.78232478 -40.24568737 55.85353124 C-40.24899444 58.21056217 -40.23795878 60.56731149 -40.22705078 62.92431641 C-40.22648693 64.60931898 -40.22680272 66.29432205 -40.22793579 67.97932434 C-40.22851132 72.56381318 -40.2167247 77.14819807 -40.20278788 81.73266268 C-40.19031381 86.51996113 -40.18911265 91.30726178 -40.18673706 96.09457397 C-40.18051249 105.16455966 -40.1640885 114.23449733 -40.14403808 123.30446184 C-40.12170942 133.62836794 -40.11069329 143.9522763 -40.10064721 154.27620053 C-40.0797231 175.51749386 -40.04452819 196.75874391 -40 218 C-37.37472811 218.05382106 -34.75055287 218.09358313 -32.125 218.125 C-31.00544922 218.15013672 -31.00544922 218.15013672 -29.86328125 218.17578125 C-27.90805539 218.1933959 -25.95257979 218.10320189 -24 218 C-21.50675447 215.50675447 -21.74580872 214.73460372 -21.72875977 211.29418945 C-21.71857315 210.31589676 -21.70838654 209.33760406 -21.69789124 208.32966614 C-21.69575119 207.26825912 -21.69361115 206.20685211 -21.69140625 205.11328125 C-21.66623551 202.87304439 -21.64083765 200.63281008 -21.61523438 198.39257812 C-21.58653927 194.85523193 -21.5625289 191.31793017 -21.54370117 187.78051758 C-21.52198957 184.37036413 -21.48253137 180.96074786 -21.44140625 177.55078125 C-21.44129044 176.49949539 -21.44117462 175.44820953 -21.4410553 174.36506653 C-21.35137115 167.68148185 -20.83049753 162.37877793 -16.38671875 157.07421875 C-10.41019697 152.19682741 -5.26696208 150.48623641 2.48046875 150.6953125 C9.82456075 151.58343525 14.0775452 155.67220718 18.65234375 161.1953125 C20.97033998 164.2994118 21.14177212 166.2611195 21.20532227 170.09228516 C21.2352401 171.68370834 21.2352401 171.68370834 21.26576233 173.30728149 C21.29083107 175.03076309 21.29083107 175.03076309 21.31640625 176.7890625 C21.33718735 177.96262299 21.35796844 179.13618347 21.37937927 180.3453064 C21.44491983 184.10514304 21.50378076 187.86505122 21.5625 191.625 C21.60568092 194.16927832 21.64929507 196.71354933 21.69335938 199.2578125 C21.80060586 205.50513447 21.90186061 211.7525286 22 218 C28.27 218 34.54 218 41 218 C41.27798347 195.8601296 41.49203193 173.72068058 41.62174606 151.57941532 C41.68358054 141.29835098 41.76785325 131.01839191 41.90527344 120.73803711 C42.02501635 111.77582775 42.10232952 102.81441886 42.12906194 93.85143179 C42.14468578 89.10663735 42.18129814 84.36413248 42.26876068 79.62007332 C42.35049941 75.15007258 42.37528756 70.68329308 42.35729218 66.21261597 C42.36058149 64.57624707 42.38429811 62.93976553 42.4304657 61.30404472 C42.77720636 52.0187915 42.77720636 52.0187915 38.44345856 44.1019268 C35.39154916 41.77300212 32.35441963 39.86007329 29 38 C27.0369583 36.75740726 25.07784326 35.50855975 23.125 34.25 C22.23167969 33.69699219 21.33835937 33.14398438 20.41796875 32.57421875 C18.27840702 31.18125691 16.36582793 29.72935974 14.4375 28.0625 C12.27770623 25.78468592 12.27770623 25.78468592 10 26 C10 25.34 10 24.68 10 24 C8.28502228 22.41173778 8.28502228 22.41173778 6.125 20.875 C5.40570313 20.33617187 4.68640625 19.79734375 3.9453125 19.2421875 C0.5331458 17.06333407 -0.7737576 18.37625324 -3.80859375 20.5546875 Z M-124 129 C-124 158.37 -124 187.74 -124 218 C-100.9 218 -77.8 218 -54 218 C-54 188.63 -54 159.26 -54 129 C-77.1 129 -100.2 129 -124 129 Z M54 130 C53.90483789 132.7388842 53.87445406 135.45247941 53.88647461 138.19165039 C53.88632858 139.05011063 53.88618256 139.90857086 53.8860321 140.79304504 C53.88673153 143.64460738 53.8945253 146.49610525 53.90234375 149.34765625 C53.90420782 151.31920842 53.90563178 153.29076105 53.90663147 155.26231384 C53.91045749 160.46226267 53.92028848 165.66218375 53.93133545 170.86212158 C53.94334194 177.09539466 53.94795141 183.32867699 53.95378876 189.56195831 C53.96350019 199.04132486 53.98265616 208.52063049 54 218 C77.43 218 100.86 218 125 218 C125 188.63 125 159.26 125 129 C113.470625 128.979375 101.94125 128.95875 90.0625 128.9375 C84.59441772 128.92384399 84.59441772 128.92384399 79.01586914 128.90991211 C75.75865984 128.90656844 75.75865984 128.90656844 72.50144958 128.90455627 C71.04649042 128.90301697 69.59153257 128.89949232 68.13658142 128.89442444 C65.93746715 128.88714498 63.73843108 128.88609265 61.53930664 128.88647461 C60.29798477 128.884254 59.0566629 128.88203339 57.77772522 128.87974548 C55.092183 128.68252989 55.092183 128.68252989 54 130 Z " fill="#181818" transform="translate(255,73)"/>
<path d="M0 0 C2.27925738 1.19426842 4.20762525 2.49038796 6.2109375 4.1015625 C6.80132812 4.39804687 7.39171875 4.69453125 8 5 C10.11943576 4.31798744 10.11943576 4.31798744 12 3 C17.50777024 -0.49273234 22.64706962 -1.05588871 29 0 C34.1886519 2.08176915 37.56890152 4.76590828 40.234375 9.69140625 C42.85057504 15.98272917 42.49085092 22.6073122 42.35668945 29.29589844 C42.31203858 31.52301508 42.29515539 33.74905056 42.28320312 35.9765625 C42.18042906 46.81957094 42.18042906 46.81957094 41 48 C39.00200428 48.09873816 37.00042842 48.12971799 35 48.125 C33.906875 48.12757813 32.81375 48.13015625 31.6875 48.1328125 C29 48 29 48 28 47 C27.87797367 44.91384092 27.82021909 42.82386762 27.7890625 40.734375 C27.76070312 39.45175781 27.73234375 38.16914063 27.703125 36.84765625 C27.6619785 34.80257745 27.62509999 32.75772665 27.59863281 30.71240234 C27.5708909 28.74033523 27.52393051 26.76856833 27.4765625 24.796875 C27.4468335 23.02328613 27.4468335 23.02328613 27.41650391 21.21386719 C26.96233487 17.70936471 26.17995367 15.76629491 24 13 C20.44569217 12.54625858 17.41172352 12.95023892 14 14 C12.90967885 17.57389176 12.81372968 20.97556061 12.71875 24.69921875 C12.68136719 25.99021484 12.64398438 27.28121094 12.60546875 28.61132812 C12.55166955 30.65890594 12.49951916 32.70652022 12.44775391 34.75415039 C12.39616807 36.73594563 12.33880363 38.71758784 12.28125 40.69921875 C12.25095703 41.88346436 12.22066406 43.06770996 12.18945312 44.2878418 C12 47 12 47 11 48 C6.71 47.67 2.42 47.34 -2 47 C-2 36.77 -2 26.54 -2 16 C-2.66 16 -3.32 16 -4 16 C-4.66 15.01 -5.32 14.02 -6 13 C-9.41589896 12.70928519 -11.73842267 12.91280756 -15 14 C-16.41560639 17.45128462 -16.2072395 21.27264604 -16.31640625 24.953125 C-16.33718735 25.61334656 -16.35796844 26.27356812 -16.37937927 26.95379639 C-16.44450147 29.05243015 -16.50358502 31.15118372 -16.5625 33.25 C-16.60572079 34.67709547 -16.6493362 36.10417905 -16.69335938 37.53125 C-16.80014411 41.02070722 -16.90151566 44.51029753 -17 48 C-18.97909398 48.02686553 -20.95828971 48.04633375 -22.9375 48.0625 C-24.03964844 48.07410156 -25.14179687 48.08570313 -26.27734375 48.09765625 C-29 48 -29 48 -30 47 C-30.14811723 43.93420249 -30.23518638 40.88815646 -30.28125 37.8203125 C-30.29965942 36.89660858 -30.31806885 35.97290466 -30.33703613 35.02120972 C-30.39598305 32.05587331 -30.44869747 29.09047793 -30.5 26.125 C-30.56759513 22.23164713 -30.64131953 18.33848073 -30.71875 14.4453125 C-30.73232544 13.54523468 -30.74590088 12.64515686 -30.7598877 11.71780396 C-30.77660522 10.88038666 -30.79332275 10.04296936 -30.81054688 9.18017578 C-30.82933899 8.07550461 -30.82933899 8.07550461 -30.84851074 6.94851685 C-30.93784667 4.78355665 -30.93784667 4.78355665 -32 2 C-30.12756019 0.12756019 -27.06340482 0.82619608 -24.5625 0.8125 C-22.80099609 0.79123047 -22.80099609 0.79123047 -21.00390625 0.76953125 C-18 1 -18 1 -16 3 C-15.21625 2.505 -14.4325 2.01 -13.625 1.5 C-8.93487537 -0.44074122 -5.01048933 -0.88147498 0 0 Z M-18 4 C-17 6 -17 6 -17 6 Z " fill="#171717" transform="translate(147,354)"/>
<path d="M0 0 C3.155625 0.2784375 3.155625 0.2784375 6.375 0.5625 C6.705 8.4825 7.035 16.4025 7.375 24.5625 C15.625 24.8925 23.875 25.2225 32.375 25.5625 C32.375 17.3125 32.375 9.0625 32.375 0.5625 C34.375 -0.4375 34.375 -0.4375 46.375 0.5625 C46.375 21.6825 46.375 42.8025 46.375 64.5625 C41.375 65.5625 41.375 65.5625 32.375 64.5625 C32.375 55.9825 32.375 47.4025 32.375 38.5625 C20 39.0575 20 39.0575 7.375 39.5625 C7.045 47.8125 6.715 56.0625 6.375 64.5625 C1.755 64.8925 -2.865 65.2225 -7.625 65.5625 C-8.70957182 62.30878455 -8.74546857 59.9535068 -8.73852539 56.53051758 C-8.73844986 55.28945755 -8.73837433 54.04839752 -8.73829651 52.76972961 C-8.73318991 51.41549642 -8.72797391 50.06126363 -8.72265625 48.70703125 C-8.72079083 47.32126415 -8.71936751 45.93549639 -8.71836853 44.54972839 C-8.7145531 40.9050209 -8.70473113 37.26035335 -8.69366455 33.61566162 C-8.6834295 29.89547262 -8.67886642 26.17527715 -8.67382812 22.45507812 C-8.66310798 15.15753389 -8.64604325 7.86002254 -8.625 0.5625 C-5.68113377 -0.90943312 -3.25109964 -0.28686173 0 0 Z " fill="#1D1D1D" transform="translate(347.625,336.4375)"/>
<path d="M0 0 C2.03125 1.53515625 2.03125 1.53515625 3.5 2.9375 C3.5 3.5975 3.5 4.2575 3.5 4.9375 C4.16 4.9375 4.82 4.9375 5.5 4.9375 C6.31837442 6.35078129 7.12946219 7.76828346 7.9375 9.1875 C8.61619141 10.37085938 8.61619141 10.37085938 9.30859375 11.578125 C10.39948722 13.73845174 11.12531473 15.5521797 11.5 17.9375 C9.63748319 19.80001681 6.7496451 19.23964039 4.25 19.3125 C-3.07066233 19.28035659 -3.07066233 19.28035659 -5.8125 16.5625 C-7.5 13.9375 -7.5 13.9375 -7.5 11.9375 C-9.15984798 11.25403318 -10.82836805 10.59161685 -12.5 9.9375 C-13.44875 9.545625 -14.3975 9.15375 -15.375 8.75 C-20.67572692 7.371811 -25.67092287 8.45770363 -30.5 10.9375 C-34.93229074 14.73660635 -36.68207882 18.29624765 -37.3125 24.0625 C-37.76379686 30.31379723 -37.25789493 36.66860546 -33.06640625 41.63671875 C-28.77482475 45.37178594 -25.14955386 46.10483835 -19.625 46.1875 C-18.59632812 46.21328125 -17.56765625 46.2390625 -16.5078125 46.265625 C-13.04254435 45.88759575 -11.26469134 45.03369948 -8.5 42.9375 C-7.10037519 41.1723064 -7.10037519 41.1723064 -6.1875 39.25 C-5.630625 38.156875 -5.07375 37.06375 -4.5 35.9375 C0.78 35.9375 6.06 35.9375 11.5 35.9375 C10.54058103 42.65343282 9.85207637 44.6390567 6.5 49.9375 C5.51 49.9375 4.52 49.9375 3.5 49.9375 C3.25894531 50.54335938 3.01789062 51.14921875 2.76953125 51.7734375 C0.50711789 55.62998212 -3.60404452 57.00319228 -7.5 58.9375 C-8.304375 59.370625 -9.10875 59.80375 -9.9375 60.25 C-18.31334914 62.49717904 -27.7461481 60.80175565 -35.6875 57.6875 C-40.9531845 54.41107409 -45.83980462 51.20934922 -47.5 44.9375 C-48.16 44.9375 -48.82 44.9375 -49.5 44.9375 C-52.98742857 34.5790068 -54.73408211 22.38403446 -50.5 11.9375 C-48.46587921 8.3457653 -46.33319532 4.95001148 -43.5 1.9375 C-42.16754537 1.60067132 -40.83429669 1.26695597 -39.5 0.9375 C-39.18675781 0.29167969 -38.87351562 -0.35414063 -38.55078125 -1.01953125 C-37.5 -3.0625 -37.5 -3.0625 -35.29296875 -4.07421875 C-34.43316406 -4.29722656 -33.57335937 -4.52023437 -32.6875 -4.75 C-31.83542969 -4.98074219 -30.98335937 -5.21148437 -30.10546875 -5.44921875 C-29.24566406 -5.65160156 -28.38585937 -5.85398437 -27.5 -6.0625 C-26.66726562 -6.25972656 -25.83453125 -6.45695312 -24.9765625 -6.66015625 C-15.91396728 -8.13247062 -7.29007585 -5.24373877 0 0 Z " fill="#191919" transform="translate(52.5,342.0625)"/>
<path d="M0 0 C4.99493679 2.90260187 8.5753581 6.83749258 10.84375 12.140625 C11.86521301 16.13189714 11.90876655 19.71746911 11.8125 23.8125 C11.80347656 24.54855469 11.79445312 25.28460938 11.78515625 26.04296875 C11.76180144 27.8412888 11.72593836 29.63943911 11.6875 31.4375 C11.0275 31.4375 10.3675 31.4375 9.6875 31.4375 C9.64625 32.118125 9.605 32.79875 9.5625 33.5 C7.99664135 38.75681117 4.54814715 42.30116684 -0.08203125 45.12890625 C-3.73218743 46.60750639 -6.38758154 46.8059473 -10.3125 46.75 C-11.488125 46.74613281 -12.66375 46.74226563 -13.875 46.73828125 C-17.31525637 46.43725882 -20.09793405 45.66746349 -23.3125 44.4375 C-23.30726318 45.03812256 -23.30202637 45.63874512 -23.29663086 46.25756836 C-23.27591986 48.96336838 -23.26285875 51.66915177 -23.25 54.375 C-23.24162109 55.32052734 -23.23324219 56.26605469 -23.22460938 57.24023438 C-23.22138672 58.13935547 -23.21816406 59.03847656 -23.21484375 59.96484375 C-23.20960693 60.79749756 -23.20437012 61.63015137 -23.19897461 62.48803711 C-23.3125 64.4375 -23.3125 64.4375 -24.3125 65.4375 C-26.1181894 65.69835401 -27.93307806 65.89711049 -29.75 66.0625 C-30.73871094 66.15789062 -31.72742188 66.25328125 -32.74609375 66.3515625 C-35.3125 66.4375 -35.3125 66.4375 -37.3125 65.4375 C-37.3125 43.6575 -37.3125 21.8775 -37.3125 -0.5625 C-33.0225 -0.5625 -28.7325 -0.5625 -24.3125 -0.5625 C-23.9825 0.0975 -23.6525 0.7575 -23.3125 1.4375 C-22.219375 0.9425 -21.12625 0.4475 -20 -0.0625 C-13.46955676 -2.47818608 -6.45126446 -2.86174638 0 0 Z M-23.31640625 15.3046875 C-25.07093465 19.06144243 -25.05260595 22.4072201 -24.3125 26.4375 C-22.78863685 30.70713107 -22.78863685 30.70713107 -19.48046875 33.57421875 C-15.78678368 35.04503749 -12.21749985 35.00930355 -8.3125 34.4375 C-4.84189832 32.36990751 -2.53524607 30.32805567 -1.3125 26.4375 C-0.626495 20.37778918 -1.96991599 17.30812241 -5.3125 12.4375 C-11.69423033 8.18301311 -18.80755432 8.99484938 -23.31640625 15.3046875 Z " fill="#1E1E1E" transform="translate(231.3125,355.5625)"/>
<path d="M0 0 C4.29 0 8.58 0 13 0 C13.04898437 1.34835937 13.09796875 2.69671875 13.1484375 4.0859375 C13.22346057 5.84897959 13.29900859 7.61199939 13.375 9.375 C13.4059375 10.26445312 13.436875 11.15390625 13.46875 12.0703125 C13.50742187 12.92109375 13.54609375 13.771875 13.5859375 14.6484375 C13.6173584 15.43395996 13.6487793 16.21948242 13.68115234 17.02880859 C13.8399465 19.23002939 13.8399465 19.23002939 16 21 C16.70898438 20.68160156 17.41796875 20.36320312 18.1484375 20.03515625 C24.10789003 17.87179335 30.18371107 17.81362477 36.05078125 20.28515625 C41.86400408 23.73847807 46.8814385 27.4021942 49 34 C50.67308145 42.12393159 51.37623177 48.92812736 46.875 56.25 C43.22950557 61.28797943 39.05195769 65.21357875 33 67 C29.84375 67.265625 29.84375 67.265625 26.5 67.25 C25.3965625 67.25515625 24.293125 67.2603125 23.15625 67.265625 C20.03607666 67.00303615 17.81695186 66.32438782 15 65 C14.505 65.495 14.505 65.495 14 66 C9.38 66 4.76 66 0 66 C0 44.22 0 22.44 0 0 Z M13 20 C14 22 14 22 14 22 Z M15 34 C13.24590718 37.95498286 12.52341195 42.71070754 13 47 C13.91568906 49.25132517 13.91568906 49.25132517 15 51 C15.66 51 16.32 51 17 51 C17.33 51.99 17.66 52.98 18 54 C21.48068998 55.74034499 25.20257598 55.58371457 29 55 C32.01125012 52.80429679 33.5265861 51.21735004 34.875 47.75 C35.12761718 42.19242207 35.09909198 37.73727442 32.0625 32.9375 C26.54412816 29.44628516 19.85561545 29.30516652 15 34 Z M13 62 C14 64 14 64 14 64 Z " fill="#1A1A1A" transform="translate(450,335)"/>
<path d="M0 0 C2.56029044 2.24025414 4.48346751 3.96693502 6 7 C6.08675538 9.69893181 6.11557897 12.37169231 6.09765625 15.0703125 C6.0962413 15.86654022 6.09482635 16.66276794 6.09336853 17.48312378 C6.08776345 20.0304538 6.07521014 22.57769647 6.0625 25.125 C6.05748565 26.85025915 6.05292263 28.57551967 6.04882812 30.30078125 C6.03779237 34.53388791 6.02052436 38.76692914 6 43 C4.86820313 42.98839844 3.73640625 42.97679687 2.5703125 42.96484375 C1.08854331 42.95546546 -0.39322765 42.9463653 -1.875 42.9375 C-2.99455078 42.92493164 -2.99455078 42.92493164 -4.13671875 42.91210938 C-8.19845578 42.79311916 -8.19845578 42.79311916 -12 44 C-19.74800115 44.66101828 -25.65291784 44.72340998 -32 40 C-32 39.34 -32 38.68 -32 38 C-32.66 38 -33.32 38 -34 38 C-36.21878991 33.56242018 -35.52674608 27.81680028 -35 23 C-33.1293602 18.93697035 -30.04771867 16.73581943 -26 15 C-19.77393095 13.71602467 -13.3257453 13.88114466 -7 14 C-9.25263065 10.29269508 -9.25263065 10.29269508 -12.9453125 8.5859375 C-14.96354167 8.390625 -16.98177083 8.1953125 -19 8 C-19.33 8.99 -19.66 9.98 -20 11 C-20.66 11 -21.32 11 -22 11 C-21.67 11.99 -21.34 12.98 -21 14 C-27.93 13.505 -27.93 13.505 -35 13 C-35 5.10948905 -35 5.10948905 -32.1875 2.1875 C-31.66542969 1.62417969 -31.14335938 1.06085938 -30.60546875 0.48046875 C-22.56761299 -6.93156856 -8.73690246 -5.5565985 0 0 Z M-21 25 C-21 25.99 -21 26.98 -21 28 C-21.66 28 -22.32 28 -23 28 C-22.65213292 29.97536745 -22.65213292 29.97536745 -22 32 C-18.80197706 33.59901147 -15.47079828 33.50072781 -12 33 C-9.41290128 31.41473019 -9.41290128 31.41473019 -8 29 C-8 27.68 -8 26.36 -8 25 C-14.525434 23.99607024 -14.525434 23.99607024 -21 25 Z " fill="#1B1B1B" transform="translate(104,358)"/>
<path d="M0 0 C4.62 0 9.24 0 14 0 C14.06058594 2.05863281 14.12117188 4.11726563 14.18359375 6.23828125 C14.24617658 8.23397829 14.30879126 10.22967447 14.37231445 12.2253418 C14.41560218 13.61135983 14.45728164 14.99742906 14.49731445 16.38354492 C14.55516584 18.37691798 14.61929776 20.37010565 14.68359375 22.36328125 C14.72025146 23.56251221 14.75690918 24.76174316 14.79467773 25.99731445 C14.87733025 29.04994349 14.87733025 29.04994349 16 32 C19.29650421 33.57333155 21.16931852 34.20767037 24.75 33.3125 C27.2782496 32.05843658 27.2782496 32.05843658 29 29 C29.35293953 26.01172564 29.35293953 26.01172564 29.37890625 22.6171875 C29.41306641 21.36808594 29.44722656 20.11898438 29.48242188 18.83203125 C29.50884766 17.52621094 29.53527344 16.22039062 29.5625 14.875 C29.62213873 12.28896313 29.68571747 9.70301305 29.75390625 7.1171875 C29.77783447 5.96847168 29.8017627 4.81975586 29.82641602 3.63623047 C30 1 30 1 31 0 C33.16480797 -0.0989294 35.33293785 -0.129711 37.5 -0.125 C38.6859375 -0.12757813 39.871875 -0.13015625 41.09375 -0.1328125 C44 0 44 0 45 1 C45.12713722 2.37501082 45.18819063 3.7562371 45.22119141 5.13671875 C45.24436432 6.01432861 45.26753723 6.89193848 45.29141235 7.79614258 C45.3112619 8.75029053 45.33111145 9.70443848 45.3515625 10.6875 C45.37471527 11.66033936 45.39786804 12.63317871 45.42172241 13.63549805 C45.46943442 15.69672289 45.51465947 17.75800653 45.55761719 19.81933594 C45.62471499 22.98654691 45.70244592 26.15337366 45.78125 29.3203125 C45.82616265 31.317694 45.87045444 33.31508959 45.9140625 35.3125 C45.93796051 36.26664795 45.96185852 37.2207959 45.98648071 38.20385742 C46.0033493 39.08146729 46.0202179 39.95907715 46.03759766 40.86328125 C46.05456696 41.63969971 46.07153625 42.41611816 46.08901978 43.21606445 C46 45 46 45 45 46 C42.64686445 46.07271741 40.29166332 46.08370868 37.9375 46.0625 C36.64714844 46.05347656 35.35679687 46.04445313 34.02734375 46.03515625 C33.02832031 46.02355469 32.02929688 46.01195312 31 46 C31 45.34 31 44.68 31 44 C30.154375 44.48597656 29.30875 44.97195313 28.4375 45.47265625 C22.75273948 47.99849871 17.10820333 47.64564144 11 47 C6.03348142 44.7736296 3.57167154 41.76235471 1 37 C0.01629865 32.51143687 -0.11660514 28.21844449 -0.09765625 23.6328125 C-0.0962413 22.95322479 -0.09482635 22.27363708 -0.09336853 21.57345581 C-0.08781518 19.42392388 -0.07527169 17.27449992 -0.0625 15.125 C-0.05747896 13.65885568 -0.05291711 12.19270971 -0.04882812 10.7265625 C-0.03871615 7.15096759 -0.01913224 3.57560326 0 0 Z " fill="#171717" transform="translate(400,355)"/>
<path d="M0 0 C3.0390625 0.0234375 3.0390625 0.0234375 6.625 0.375 C7.81351562 0.48585938 9.00203125 0.59671875 10.2265625 0.7109375 C11.14179688 0.80632812 12.05703125 0.90171875 13 1 C14.21004715 5.73684795 14.14442377 10.350308 14.1328125 15.203125 C14.13376923 16.08152039 14.13472595 16.95991577 14.13571167 17.8649292 C14.13639019 19.71398999 14.13455885 21.5630532 14.13037109 23.41210938 C14.12499251 26.2539599 14.1303403 29.09565421 14.13671875 31.9375 C14.13605841 33.73437535 14.13477817 35.5312506 14.1328125 37.328125 C14.13483673 38.18222961 14.13686096 39.03633423 14.13894653 39.9163208 C14.1149675 45.8850325 14.1149675 45.8850325 13 47 C10.87691847 47.09942806 8.75040328 47.12969184 6.625 47.125 C5.46226562 47.12757813 4.29953125 47.13015625 3.1015625 47.1328125 C0 47 0 47 -3 46 C-3.680625 46.28875 -4.36125 46.5775 -5.0625 46.875 C-9.99311924 48.76332226 -15.18646731 50.03884284 -20.28515625 48.15625 C-25.14359641 45.32291667 -28.73123921 41.75000022 -30.57788086 36.29199219 C-31.18325085 33.00499769 -31.236986 29.72278202 -31.31640625 26.390625 C-31.33718735 25.66381531 -31.35796844 24.93700562 -31.37937927 24.18817139 C-31.44455512 21.87554009 -31.5036104 19.56279907 -31.5625 17.25 C-31.60571566 15.67837425 -31.64933092 14.10675944 -31.69335938 12.53515625 C-31.80020356 8.69021547 -31.90156024 4.84516476 -32 1 C-27.38 1 -22.76 1 -18 1 C-18 9.91 -18 18.82 -18 28 C-17.34 28 -16.68 28 -16 28 C-15.67 29.65 -15.34 31.3 -15 33 C-10.73178661 34.80156583 -10.73178661 34.80156583 -6.25 34.25 C-3.89125622 33.07440364 -3.89125622 33.07440364 -2 31 C-1.75434262 28.01923517 -1.75434262 28.01923517 -1.875 24.53125 C-1.89046875 23.23832031 -1.9059375 21.94539063 -1.921875 20.61328125 C-1.94676269 19.24216607 -1.97281803 17.87107162 -2 16.5 C-2.05307754 13.82274383 -2.09296351 11.14646689 -2.125 8.46875 C-2.14820313 7.27701172 -2.17140625 6.08527344 -2.1953125 4.85742188 C-2 2 -2 2 0 0 Z " fill="#171717" transform="translate(278,354)"/>
<path d="M0 0 C2.26913346 1.91512543 3.34857966 3.39776189 5 6 C5.3125 9.875 5.3125 9.875 5 13 C1.24398553 13.88376811 -2.16194692 14.57162493 -6 14 C-7.33333333 12 -8.66666667 10 -10 8 C-13.21908202 7.54932852 -15.08944799 7.544724 -18 9 C-17.67 10.32 -17.34 11.64 -17 13 C-15.97519531 13.18175781 -14.95039063 13.36351562 -13.89453125 13.55078125 C-12.5337571 13.80416678 -11.17308527 14.0581022 -9.8125 14.3125 C-9.13896484 14.43044922 -8.46542969 14.54839844 -7.77148438 14.66992188 C-2.3983774 15.69212271 1.35368899 16.92063762 4.796875 21.26953125 C6.26341491 24.597815 6.33266935 27.06244892 6.25 30.6875 C6.23453125 31.82574219 6.2190625 32.96398437 6.203125 34.13671875 C6 37 6 37 5 39 C4.34 39 3.68 39 3 39 C3 39.66 3 40.32 3 41 C2.34 41 1.68 41 1 41 C1 41.66 1 42.32 1 43 C-3.27391633 45.08706809 -7.2023565 45.33433478 -11.875 45.3125 C-12.55691406 45.32861328 -13.23882812 45.34472656 -13.94140625 45.36132812 C-20.28484117 45.36736949 -26.39190158 43.57526162 -31 39 C-31.86328125 36.5546875 -31.86328125 36.5546875 -32.3125 33.875 C-32.55419922 32.54082031 -32.55419922 32.54082031 -32.80078125 31.1796875 C-32.86652344 30.46039063 -32.93226563 29.74109375 -33 29 C-32 28 -32 28 -29.27734375 27.90234375 C-28.17519531 27.91394531 -27.07304687 27.92554688 -25.9375 27.9375 C-24.28041016 27.95103516 -24.28041016 27.95103516 -22.58984375 27.96484375 C-21.73519531 27.97644531 -20.88054687 27.98804688 -20 28 C-20 28.99 -20 29.98 -20 31 C-19.34 31 -18.68 31 -18 31 C-18 31.66 -18 32.32 -18 33 C-14.7 33 -11.4 33 -8 33 C-8 32.01 -8 31.02 -8 30 C-9.56159059 29.51787786 -11.12431928 29.03944127 -12.6875 28.5625 C-13.55761719 28.29566406 -14.42773438 28.02882813 -15.32421875 27.75390625 C-17.96925654 26.96582753 -17.96925654 26.96582753 -20.6015625 26.51171875 C-22.91214262 26.01874481 -24.62508936 25.38084988 -26.6875 24.25 C-27.55955078 23.79367187 -27.55955078 23.79367187 -28.44921875 23.328125 C-31.27337694 20.90945048 -31.8760956 17.89602447 -32.37109375 14.31640625 C-32.57262933 5.95860724 -32.57262933 5.95860724 -29.9375 2.5 C-21.71215189 -4.50029627 -9.36874895 -5.8554681 0 0 Z " fill="#1A1A1A" transform="translate(328,357)"/>
<path d="M0 0 C3.57119101 2.90626214 5.63872451 5.26660292 6.9296875 9.76953125 C7.15571361 12.71327795 7.11898064 15.63196508 7.0546875 18.58203125 C7.04566406 19.37029297 7.03664063 20.15855469 7.02734375 20.97070312 C7.00391254 22.90377791 6.96804588 24.83669505 6.9296875 26.76953125 C7.5896875 26.76953125 8.2496875 26.76953125 8.9296875 26.76953125 C8.9296875 27.42953125 8.9296875 28.08953125 8.9296875 28.76953125 C9.88875 28.98609375 9.88875 28.98609375 10.8671875 29.20703125 C12.9296875 29.76953125 12.9296875 29.76953125 13.9296875 30.76953125 C13.9296875 33.40953125 13.9296875 36.04953125 13.9296875 38.76953125 C-0.9203125 38.76953125 -15.7703125 38.76953125 -31.0703125 38.76953125 C-32.60476344 35.70062938 -31.62015539 33.06858859 -31.0703125 29.76953125 C-30.0803125 29.43953125 -29.0903125 29.10953125 -28.0703125 28.76953125 C-25.94643485 23.45983711 -25.66922965 18.11538249 -25.31640625 12.44140625 C-25.0703125 9.76953125 -25.0703125 9.76953125 -24.0703125 6.76953125 C-23.4103125 6.76953125 -22.7503125 6.76953125 -22.0703125 6.76953125 C-21.8434375 6.19203125 -21.6165625 5.61453125 -21.3828125 5.01953125 C-19.45012938 1.70636018 -16.86449085 -0.64597353 -13.17578125 -1.84765625 C-8.58585232 -2.68218878 -4.06107904 -2.41366018 0 0 Z " fill="#161616" transform="translate(264.0703125,118.23046875)"/>
<path d="M0 0 C1.1859375 0.00257813 2.371875 0.00515625 3.59375 0.0078125 C4.7796875 0.00523437 5.965625 0.00265625 7.1875 0 C10.09375 0.1328125 10.09375 0.1328125 11.09375 1.1328125 C11.22088722 2.50782332 11.28194063 3.8890496 11.31494141 5.26953125 C11.33811432 6.14714111 11.36128723 7.02475098 11.38516235 7.92895508 C11.4050119 8.88310303 11.42486145 9.83725098 11.4453125 10.8203125 C11.46846527 11.79315186 11.49161804 12.76599121 11.51547241 13.76831055 C11.56318442 15.82953539 11.60840947 17.89081903 11.65136719 19.95214844 C11.71846499 23.11935941 11.79619592 26.28618616 11.875 29.453125 C11.91991265 31.4505065 11.96420444 33.44790209 12.0078125 35.4453125 C12.03171051 36.39946045 12.05560852 37.3536084 12.08023071 38.33666992 C12.0970993 39.21427979 12.1139679 40.09188965 12.13134766 40.99609375 C12.14831696 41.77251221 12.16528625 42.54893066 12.18276978 43.34887695 C12.09375 45.1328125 12.09375 45.1328125 11.09375 46.1328125 C8.74061445 46.20552991 6.38541332 46.21652118 4.03125 46.1953125 C2.74089844 46.18628906 1.45054687 46.17726563 0.12109375 46.16796875 C-0.87792969 46.15636719 -1.87695312 46.14476562 -2.90625 46.1328125 C-2.90625 45.4728125 -2.90625 44.8128125 -2.90625 44.1328125 C-3.56625 43.8028125 -4.22625 43.4728125 -4.90625 43.1328125 C-4.90625 40.4044357 -4.37293859 37.81627187 -3.90625 35.1328125 C-4.56625 35.1328125 -5.22625 35.1328125 -5.90625 35.1328125 C-6.40125 33.6478125 -6.40125 33.6478125 -6.90625 32.1328125 C-5.91625 30.6478125 -5.91625 30.6478125 -4.90625 29.1328125 C-4.55331047 26.14453814 -4.55331047 26.14453814 -4.52734375 22.75 C-4.49318359 21.50089844 -4.45902344 20.25179688 -4.42382812 18.96484375 C-4.39740234 17.65902344 -4.37097656 16.35320312 -4.34375 15.0078125 C-4.28411127 12.42177563 -4.22053253 9.83582555 -4.15234375 7.25 C-4.12841553 6.10128418 -4.1044873 4.95256836 -4.07983398 3.76904297 C-3.83632045 0.07078816 -3.73992685 0.17091064 0 0 Z " fill="#1C1C1C" transform="translate(433.90625,354.8671875)"/>
<path d="M0 0 C7.15655315 -0.72234368 11.97715085 -0.16078514 18.02734375 3.80859375 C24.71765392 11.2407997 24.54675002 19.82047685 24.35668945 29.29589844 C24.31203858 31.52301508 24.29515539 33.74905056 24.28320312 35.9765625 C24.18042906 46.81957094 24.18042906 46.81957094 23 48 C21.00200428 48.09873816 19.00042842 48.12971799 17 48.125 C15.906875 48.12757813 14.81375 48.13015625 13.6875 48.1328125 C11 48 11 48 10 47 C9.86575098 44.90242994 9.79636666 42.80065161 9.75390625 40.69921875 C9.72103516 39.41208984 9.68816406 38.12496094 9.65429688 36.79882812 C9.60696505 34.74492119 9.56256783 32.69103833 9.52319336 30.63696289 C9.48335185 28.65753149 9.4312749 26.67835835 9.37890625 24.69921875 C9.3538501 23.51158936 9.32879395 22.32395996 9.30297852 21.1003418 C9.01377109 18.1409179 8.49115185 16.51670135 7 14 C6.25700662 11.32103797 5.83464428 8.78253763 6 6 C7.9375 3.5 7.9375 3.5 10 2 C8.02 2.33 6.04 2.66 4 3 C4 2.34 4 1.68 4 1 C2.68 0.67 1.36 0.34 0 0 Z " fill="#212121" transform="translate(165,354)"/>
<path d="M0 0 C2.26913346 1.91512543 3.34857966 3.39776189 5 6 C5.3125 9.875 5.3125 9.875 5 13 C1.24398553 13.88376811 -2.16194692 14.57162493 -6 14 C-7.33333333 12 -8.66666667 10 -10 8 C-13.21908202 7.54932852 -15.08944799 7.544724 -18 9 C-17.67 10.32 -17.34 11.64 -17 13 C-13.7 13.66 -10.4 14.32 -7 15 C-7 15.33 -7 15.66 -7 16 C-8.79133978 16.05391993 -10.58313899 16.09275571 -12.375 16.125 C-13.37273437 16.14820313 -14.37046875 16.17140625 -15.3984375 16.1953125 C-18 16 -18 16 -20 14 C-20 15.98 -20 17.96 -20 20 C-19.34 20.33 -18.68 20.66 -18 21 C-18.33 21.99 -18.66 22.98 -19 24 C-16.6568787 23.74438677 -14.32156597 23.40729228 -12 23 C-11.67 22.34 -11.34 21.68 -11 21 C-10.34 21 -9.68 21 -9 21 C-8.855625 21.7425 -8.71125 22.485 -8.5625 23.25 C-8.09800774 25.52085106 -7.57094564 27.75460033 -7 30 C-7.73605469 29.79503906 -8.47210938 29.59007812 -9.23046875 29.37890625 C-10.20628906 29.10949219 -11.18210937 28.84007812 -12.1875 28.5625 C-13.15042969 28.29566406 -14.11335938 28.02882813 -15.10546875 27.75390625 C-16.93290232 27.27793502 -18.77607221 26.85606969 -20.6328125 26.51171875 C-22.9254559 26.01611432 -24.63905476 25.37319245 -26.6875 24.25 C-27.55955078 23.79367187 -27.55955078 23.79367187 -28.44921875 23.328125 C-31.27337694 20.90945048 -31.8760956 17.89602447 -32.37109375 14.31640625 C-32.57262933 5.95860724 -32.57262933 5.95860724 -29.9375 2.5 C-21.71215189 -4.50029627 -9.36874895 -5.8554681 0 0 Z " fill="#1F1F1F" transform="translate(328,357)"/>
<path d="M0 0 C4.62 0 9.24 0 14 0 C14.1941064 3.4580802 14.38058011 6.91627607 14.5625 10.375 C14.61857422 11.35984375 14.67464844 12.3446875 14.73242188 13.359375 C14.78076172 14.30039062 14.82910156 15.24140625 14.87890625 16.2109375 C14.9260376 17.08024902 14.97316895 17.94956055 15.02172852 18.84521484 C15 21 15 21 14 23 C9.38 23 4.76 23 0 23 C0 15.41 0 7.82 0 0 Z " fill="#252525" transform="translate(145,253)"/>
<path d="M0 0 C4.95 0 9.9 0 15 0 C15.02682987 3.64588169 15.04675569 7.29156846 15.0625 10.9375 C15.07087891 11.97841797 15.07925781 13.01933594 15.08789062 14.09179688 C15.09111328 15.08115234 15.09433594 16.07050781 15.09765625 17.08984375 C15.10289307 18.00628662 15.10812988 18.92272949 15.11352539 19.86694336 C15 22 15 22 14 23 C11.81360547 23.07258946 9.62499611 23.08373783 7.4375 23.0625 C5.64119141 23.04896484 5.64119141 23.04896484 3.80859375 23.03515625 C2.88175781 23.02355469 1.95492187 23.01195312 1 23 C0.03911617 20.11734851 -0.11670941 18.32337729 -0.09765625 15.33203125 C-0.09443359 14.43935547 -0.09121094 13.54667969 -0.08789062 12.62695312 C-0.07951172 11.69818359 -0.07113281 10.76941406 -0.0625 9.8125 C-0.05798828 8.87212891 -0.05347656 7.93175781 -0.04882812 6.96289062 C-0.03704645 4.64189992 -0.01911114 2.32094193 0 0 Z " fill="#252525" transform="translate(172,253)"/>
<path d="M0 0 C4.62 0 9.24 0 14 0 C14.19377038 3.47892354 14.38031376 6.95796765 14.5625 10.4375 C14.61857422 11.43072266 14.67464844 12.42394531 14.73242188 13.44726562 C14.78076172 14.39150391 14.82910156 15.33574219 14.87890625 16.30859375 C14.9260376 17.18314209 14.97316895 18.05769043 15.02172852 18.95874023 C15 21 15 21 14 22 C11.64686445 22.07271741 9.29166332 22.08370868 6.9375 22.0625 C5.64714844 22.05347656 4.35679687 22.04445312 3.02734375 22.03515625 C2.02832031 22.02355469 1.02929688 22.01195312 0 22 C-0.97556564 19.07330309 -1.0606341 17.55938679 -0.87890625 14.55078125 C-0.83056641 13.70322266 -0.78222656 12.85566406 -0.73242188 11.98242188 C-0.67634766 11.10134766 -0.62027344 10.22027344 -0.5625 9.3125 C-0.51029297 8.41982422 -0.45808594 7.52714844 -0.40429688 6.60742188 C-0.27472126 4.40463649 -0.13804014 2.20227115 0 0 Z " fill="#1E1E1E" transform="translate(145,217)"/>
<path d="M0 0 C10.05859375 -0.09765625 10.05859375 -0.09765625 13 0 C14 1 14 1 14.11352539 3.04125977 C14.10828857 3.91580811 14.10305176 4.79035645 14.09765625 5.69140625 C14.09443359 6.63564453 14.09121094 7.57988281 14.08789062 8.55273438 C14.07951172 9.54595703 14.07113281 10.53917969 14.0625 11.5625 C14.05798828 12.55958984 14.05347656 13.55667969 14.04882812 14.58398438 C14.03700023 17.05601487 14.01906415 19.52801472 14 22 C9.05 22 4.1 22 -1 22 C-0.67 14.74 -0.34 7.48 0 0 Z " fill="#202020" transform="translate(173,217)"/>
<path d="M0 0 C4.29 0 8.58 0 13 0 C13 7.59 13 15.18 13 23 C3.8203125 23.29296875 3.8203125 23.29296875 1 23 C-1.18185426 19.72721861 -1.21432326 19.0648752 -0.9765625 15.33203125 C-0.925 14.43935547 -0.8734375 13.54667969 -0.8203125 12.62695312 C-0.75585938 11.69818359 -0.69140625 10.76941406 -0.625 9.8125 C-0.56828125 8.87212891 -0.5115625 7.93175781 -0.453125 6.96289062 C-0.31170957 4.64132068 -0.15711024 2.32056065 0 0 Z " fill="#1E1E1E" transform="translate(351,253)"/>
<path d="M0 0 C4.29 0 8.58 0 13 0 C13.02682987 3.64588169 13.04675569 7.29156846 13.0625 10.9375 C13.07087891 11.97841797 13.07925781 13.01933594 13.08789062 14.09179688 C13.09111328 15.08115234 13.09433594 16.07050781 13.09765625 17.08984375 C13.10289307 18.00628662 13.10812988 18.92272949 13.11352539 19.86694336 C13 22 13 22 12 23 C7.99779347 23.14355117 4.00558317 23.04216403 0 23 C0 15.41 0 7.82 0 0 Z " fill="#1F1F1F" transform="translate(324,253)"/>
<path d="M0 0 C4.62 0 9.24 0 14 0 C14 7.26 14 14.52 14 22 C9.38 22 4.76 22 0 22 C0 14.74 0 7.48 0 0 Z " fill="#101010" transform="translate(323,217)"/>
<path d="M0 0 C4.29 0 8.58 0 13 0 C13.33 7.26 13.66 14.52 14 22 C9.38 22 4.76 22 0 22 C-1.22625047 19.54749907 -1.03425355 18.15689565 -0.87890625 15.4296875 C-0.83056641 14.53378906 -0.78222656 13.63789063 -0.73242188 12.71484375 C-0.67634766 11.77769531 -0.62027344 10.84054688 -0.5625 9.875 C-0.51029297 8.93011719 -0.45808594 7.98523438 -0.40429688 7.01171875 C-0.27443481 4.67420159 -0.13784835 2.33705979 0 0 Z " fill="#1A1A1A" transform="translate(351,217)"/>
<path d="M0 0 C0.90105469 0.01804687 1.80210938 0.03609375 2.73046875 0.0546875 C3.41753906 0.07789063 4.10460937 0.10109375 4.8125 0.125 C3.86042348 2.57319677 2.93744122 4.90799682 1.625 7.1875 C0.62278526 9.5773967 0.95669702 10.72875166 1.8125 13.125 C0.8225 13.455 -0.1675 13.785 -1.1875 14.125 C-0.8575 15.115 -0.5275 16.105 -0.1875 17.125 C-7.1175 16.63 -7.1175 16.63 -14.1875 16.125 C-14.1875 8.23448905 -14.1875 8.23448905 -11.375 5.3125 C-10.85292969 4.74917969 -10.33085938 4.18585938 -9.79296875 3.60546875 C-6.44536825 0.51850868 -4.43646504 -0.11523286 0 0 Z " fill="#151515" transform="translate(83.1875,354.875)"/>
<path d="M0 0 C2.4375 0.8125 2.4375 0.8125 5 2 C5.33 2.99 5.66 3.98 6 5 C6.66 5 7.32 5 8 5 C8.81837442 6.41328129 9.62946219 7.83078346 10.4375 9.25 C11.11619141 10.43335938 11.11619141 10.43335938 11.80859375 11.640625 C12.89948722 13.80095174 13.62531473 15.6146797 14 18 C12.13748319 19.86251681 9.2496451 19.30214039 6.75 19.375 C-0.57066233 19.34285659 -0.57066233 19.34285659 -3.3125 16.625 C-5 14 -5 14 -5 12 C-5.66 11.67 -6.32 11.34 -7 11 C-6.360625 10.896875 -5.72125 10.79375 -5.0625 10.6875 C-4.0415625 10.3471875 -4.0415625 10.3471875 -3 10 C-2.67 9.01 -2.34 8.02 -2 7 C-1.34 6.67 -0.68 6.34 0 6 C0 4.02 0 2.04 0 0 Z " fill="#1B1B1B" transform="translate(50,342)"/>
<path d="M0 0 C1.98 0 3.96 0 6 0 C5.67 3.3 5.34 6.6 5 10 C1.37673261 11.2077558 0.35853631 10.54311128 -3 9 C-2.34 7.35 -1.68 5.7 -1 4 C-0.34 4 0.32 4 1 4 C0.67 2.68 0.34 1.36 0 0 Z " fill="#111111" transform="translate(14,385)"/>
<path d="M0 0 C4.62 0 9.24 0 14 0 C14 6.93 14 13.86 14 21 C13.67 21 13.34 21 13 21 C13 14.4 13 7.8 13 1 C11.35 1 9.7 1 8 1 C7.67 1.99 7.34 2.98 7 4 C6.34 3.34 5.68 2.68 5 2 C2.42938689 1.35232207 2.42938689 1.35232207 0 1 C0 0.67 0 0.34 0 0 Z " fill="#606060" transform="translate(323,217)"/>
<path d="M0 0 C0.99 0.33 1.98 0.66 3 1 C3 1.66 3 2.32 3 3 C6.63 3 10.26 3 14 3 C14 3.66 14 4.32 14 5 C9.38 5.33 4.76 5.66 0 6 C-1 3 -1 3 0 0 Z " fill="#050505" transform="translate(340,396)"/>
<path d="M0 0 C0.99 0.66 1.98 1.32 3 2 C2.34 2.66 1.68 3.32 1 4 C0.62826984 6.6182767 0.62826984 6.6182767 0.5859375 9.6640625 C0.54726563 10.78554688 0.50859375 11.90703125 0.46875 13.0625 C0.4378125 14.238125 0.406875 15.41375 0.375 16.625 C0.33632813 17.80835938 0.29765625 18.99171875 0.2578125 20.2109375 C0.16331155 23.14046691 0.07775442 26.06998597 0 29 C-0.33 29 -0.66 29 -1 29 C-1.22506224 24.54234428 -1.4272243 20.08394312 -1.625 15.625 C-1.68945312 14.35398437 -1.75390625 13.08296875 -1.8203125 11.7734375 C-1.871875 10.56171875 -1.9234375 9.35 -1.9765625 8.1015625 C-2.02893066 6.98088379 -2.08129883 5.86020508 -2.13525391 4.70556641 C-2 2 -2 2 0 0 Z " fill="#000000" transform="translate(278,354)"/>
<path d="M0 0 C4.62 0 9.24 0 14 0 C14 1.32 14 2.64 14 4 C10.37673261 5.2077558 9.35853631 4.54311128 6 3 C6 2.34 6 1.68 6 1 C4.02 1 2.04 1 0 1 C0 0.67 0 0.34 0 0 Z " fill="#363636" transform="translate(145,217)"/>
<path d="M0 0 C0.66 0.99 1.32 1.98 2 3 C0.38405168 5.04119788 -1.2856382 7.04072937 -3 9 C-3.66 9 -4.32 9 -5 9 C-5.66 7.68 -6.32 6.36 -7 5 C-4 3 -4 3 -1 2 C-0.67 1.34 -0.34 0.68 0 0 Z " fill="#111111" transform="translate(496,386)"/>
<path d="M0 0 C1.22589844 0.15275391 1.22589844 0.15275391 2.4765625 0.30859375 C3.41628906 0.43427734 3.41628906 0.43427734 4.375 0.5625 C4.375 0.8925 4.375 1.2225 4.375 1.5625 C2.7353125 1.7790625 2.7353125 1.7790625 1.0625 2 C-2.55622987 2.44538104 -2.55622987 2.44538104 -5.625 3.5625 C-5.625 7.8525 -5.625 12.1425 -5.625 16.5625 C-5.955 16.5625 -6.285 16.5625 -6.625 16.5625 C-6.625 11.2825 -6.625 6.0025 -6.625 0.5625 C-4.10446405 -0.69776798 -2.7707902 -0.35624445 0 0 Z " fill="#3C3C3C" transform="translate(345.625,336.4375)"/>
<path d="M0 0 C-1.98567708 -0.06510417 -3.97135417 -0.13020833 -5.95703125 -0.1953125 C-8.31359719 -0.13254462 -8.31359719 -0.13254462 -11 2 C-11.66 1.01 -12.32 0.02 -13 -1 C-16.08365871 -1.2502157 -16.08365871 -1.2502157 -19 -1 C-19 -1.33 -19 -1.66 -19 -2 C-12.80736663 -3.85779001 -5.61439935 -3.17673866 0 0 Z " fill="#626262" transform="translate(44,338)"/>
<path d="M0 0 C0.33 0 0.66 0 1 0 C1.33 4.62 1.66 9.24 2 14 C1.01 13.67 0.02 13.34 -1 13 C-1.75 11 -1.75 11 -2 9 C-1.67 8.67 -1.34 8.34 -1 8 C-0.76924918 6.65252916 -0.58846937 5.29622435 -0.4375 3.9375 C-0.293125 2.638125 -0.14875 1.33875 0 0 Z " fill="#7E7E7E" transform="translate(444,386)"/>
<path d="M0 0 C1.98 0.66 3.96 1.32 6 2 C6 2.66 6 3.32 6 4 C3.03 4 0.06 4 -3 4 C-2.67 3.01 -2.34 2.02 -2 1 C-1.34 1.33 -0.68 1.66 0 2 C0 1.34 0 0.68 0 0 Z " fill="#5B5B5B" transform="translate(53,357)"/>
<path d="M0 0 C0.99 0 1.98 0 3 0 C1.75651745 3.73044765 0.19286425 4.79540326 -3 7 C-3.99 7 -4.98 7 -6 7 C-5.67 6.01 -5.34 5.02 -5 4 C-3.66666667 3.66666667 -2.33333333 3.33333333 -1 3 C-0.67 2.01 -0.34 1.02 0 0 Z " fill="#0F0F0F" transform="translate(14,340)"/>
<path d="M0 0 C0.12375 0.639375 0.2475 1.27875 0.375 1.9375 C0.684375 2.9584375 0.684375 2.9584375 1 4 C1.66 4.33 2.32 4.66 3 5 C2 8 2 8 -0.0625 9.1875 C-0.701875 9.455625 -1.34125 9.72375 -2 10 C-1.33333333 7.33333333 -0.66666667 4.66666667 0 2 C-1.32 1.67 -2.64 1.34 -4 1 C-2.68 0.67 -1.36 0.34 0 0 Z " fill="#060606" transform="translate(96,381)"/>
<path d="M0 0 C-0.33 0.66 -0.66 1.32 -1 2 C-3.64 2 -6.28 2 -9 2 C-8.67 1.01 -8.34 0.02 -8 -1 C-4.37673261 -2.2077558 -3.35853631 -1.54311128 0 0 Z " fill="#080808" transform="translate(104,398)"/>
<path d="M0 0 C-1.24348255 3.73044765 -2.80713575 4.79540326 -6 7 C-6.99 7 -7.98 7 -9 7 C-9 6.34 -9 5.68 -9 5 C-7.5390625 3.7109375 -7.5390625 3.7109375 -5.625 2.375 C-4.99851563 1.92898437 -4.37203125 1.48296875 -3.7265625 1.0234375 C-2 0 -2 0 0 0 Z " fill="#333333" transform="translate(243,82)"/>
<path d="M0 0 C-0.33 0.99 -0.66 1.98 -1 3 C-3.31 3 -5.62 3 -8 3 C-7.67 2.01 -7.34 1.02 -7 0 C-4.05610218 -1.17755913 -3.10046087 -1.03348696 0 0 Z " fill="#040404" transform="translate(160,273)"/>
<path d="M0 0 C0.99 0.33 1.98 0.66 3 1 C2.34 1 1.68 1 1 1 C0.67 2.98 0.34 4.96 0 7 C-1.32 7.33 -2.64 7.66 -4 8 C-2.68 5.36 -1.36 2.72 0 0 Z " fill="#020202" transform="translate(48,378)"/>
<path d="M0 0 C0.66 0 1.32 0 2 0 C2.33 0.66 2.66 1.32 3 2 C4.97888961 2.72693904 6.97954558 3.39816251 9 4 C6 6 6 6 3.9375 5.9375 C2 5 2 5 0.75 2.4375 C0.5025 1.633125 0.255 0.82875 0 0 Z " fill="#6D6D6D" transform="translate(319,365)"/>
<path d="M0 0 C1.2065625 0.0309375 1.2065625 0.0309375 2.4375 0.0625 C2.1075 1.3825 1.7775 2.7025 1.4375 4.0625 C0.1175 4.0625 -1.2025 4.0625 -2.5625 4.0625 C-2.8925 3.0725 -3.2225 2.0825 -3.5625 1.0625 C-2.5625 0.0625 -2.5625 0.0625 0 0 Z " fill="#0D0D0D" transform="translate(118.5625,354.9375)"/>
<path d="M0 0 C0.33 0 0.66 0 1 0 C1 2.31 1 4.62 1 7 C2.98 7.495 2.98 7.495 5 8 C5 8.66 5 9.32 5 10 C3.35 10 1.7 10 0 10 C0 6.7 0 3.4 0 0 Z " fill="#040404" transform="translate(324,266)"/>
<path d="M0 0 C2 2 2 2 2 5 C-1 5 -1 5 -4 3 C-4 2.34 -4 1.68 -4 1 C-2.125 0.375 -2.125 0.375 0 0 Z " fill="#303030" transform="translate(301,393)"/>
<path d="M0 0 C0.99 0 1.98 0 3 0 C3 1.98 3 3.96 3 6 C2.34 6 1.68 6 1 6 C0.67 6.99 0.34 7.98 0 9 C0 6.03 0 3.06 0 0 Z " fill="#0D0D0D" transform="translate(146,391)"/>
<path d="M0 0 C2 2 2 2 2.125 4.625 C2.08375 5.40875 2.0425 6.1925 2 7 C1.896875 6.360625 1.79375 5.72125 1.6875 5.0625 C1.460625 4.381875 1.23375 3.70125 1 3 C0.01 2.67 -0.98 2.34 -2 2 C-1.34 1.34 -0.68 0.68 0 0 Z M-4 2 C-3.34 2.33 -2.68 2.66 -2 3 C-2.33 3.99 -2.66 4.98 -3 6 C-3.66 5.67 -4.32 5.34 -5 5 C-4.67 4.01 -4.34 3.02 -4 2 Z " fill="#0C0C0C" transform="translate(462,370)"/>
<path d="M0 0 C1.32 0.33 2.64 0.66 4 1 C2.515 4.465 2.515 4.465 1 8 C0.67 8 0.34 8 0 8 C0 5.36 0 2.72 0 0 Z " fill="#0E0E0E" transform="translate(146,369)"/>
<path d="M0 0 C3.96 0 7.92 0 12 0 C11.01 0.495 11.01 0.495 10 1 C9.67 1.66 9.34 2.32 9 3 C4.545 2.01 4.545 2.01 0 1 C0 0.67 0 0.34 0 0 Z " fill="#686868" transform="translate(83,354)"/>
<path d="M0 0 C0.66 0 1.32 0 2 0 C2.33 1.32 2.66 2.64 3 4 C1.35 4.33 -0.3 4.66 -2 5 C-1.34 3.35 -0.68 1.7 0 0 Z " fill="#363636" transform="translate(61,356)"/>
<path d="M0 0 C1.32 0 2.64 0 4 0 C4.33 1.32 4.66 2.64 5 4 C4.01 4.66 3.02 5.32 2 6 C1.34 4.02 0.68 2.04 0 0 Z " fill="#0D0D0D" transform="translate(295,386)"/>
<path d="M0 0 C3.3 0 6.6 0 10 0 C10 1.65 10 3.3 10 5 C9.649375 4.525625 9.29875 4.05125 8.9375 3.5625 C6.15836457 1.32126175 3.4855283 1.32882342 0 1 C0 0.67 0 0.34 0 0 Z " fill="#5B5B5B" transform="translate(404,355)"/>
<path d="M0 0 C4.3177458 0.50797009 8.03302114 1.19682779 12 3 C9.26965677 4.36517162 7.92769462 3.74894513 5 3 C3.3207762 2.36562656 1.64991582 1.70710678 0 1 C0 0.67 0 0.34 0 0 Z " fill="#7A7A7A" transform="translate(316,354)"/>
<path d="" fill="#000000" transform="translate(0,0)"/>
</svg>
